%FSLAX25Y25*%
%MOIN*%
G70*
G01*
G75*
G04 Layer_Physical_Order=6*
G04 Layer_Color=16711680*
%ADD10R,0.05906X0.05118*%
G04:AMPARAMS|DCode=11|XSize=25.59mil|YSize=23.62mil|CornerRadius=5.91mil|HoleSize=0mil|Usage=FLASHONLY|Rotation=180.000|XOffset=0mil|YOffset=0mil|HoleType=Round|Shape=RoundedRectangle|*
%AMROUNDEDRECTD11*
21,1,0.02559,0.01181,0,0,180.0*
21,1,0.01378,0.02362,0,0,180.0*
1,1,0.01181,-0.00689,0.00591*
1,1,0.01181,0.00689,0.00591*
1,1,0.01181,0.00689,-0.00591*
1,1,0.01181,-0.00689,-0.00591*
%
%ADD11ROUNDEDRECTD11*%
G04:AMPARAMS|DCode=12|XSize=25.59mil|YSize=23.62mil|CornerRadius=5.91mil|HoleSize=0mil|Usage=FLASHONLY|Rotation=270.000|XOffset=0mil|YOffset=0mil|HoleType=Round|Shape=RoundedRectangle|*
%AMROUNDEDRECTD12*
21,1,0.02559,0.01181,0,0,270.0*
21,1,0.01378,0.02362,0,0,270.0*
1,1,0.01181,-0.00591,-0.00689*
1,1,0.01181,-0.00591,0.00689*
1,1,0.01181,0.00591,0.00689*
1,1,0.01181,0.00591,-0.00689*
%
%ADD12ROUNDEDRECTD12*%
%ADD13R,0.00866X0.01024*%
%ADD14R,0.01024X0.00866*%
%ADD15R,0.05118X0.05906*%
G04:AMPARAMS|DCode=16|XSize=15.75mil|YSize=17.72mil|CornerRadius=3.94mil|HoleSize=0mil|Usage=FLASHONLY|Rotation=180.000|XOffset=0mil|YOffset=0mil|HoleType=Round|Shape=RoundedRectangle|*
%AMROUNDEDRECTD16*
21,1,0.01575,0.00984,0,0,180.0*
21,1,0.00787,0.01772,0,0,180.0*
1,1,0.00787,-0.00394,0.00492*
1,1,0.00787,0.00394,0.00492*
1,1,0.00787,0.00394,-0.00492*
1,1,0.00787,-0.00394,-0.00492*
%
%ADD16ROUNDEDRECTD16*%
%ADD17C,0.00984*%
%ADD18R,0.02756X0.01575*%
%ADD19R,0.02362X0.01969*%
%ADD20R,0.01654X0.01811*%
%ADD21R,0.03937X0.04331*%
%ADD22R,0.01575X0.02756*%
G04:AMPARAMS|DCode=23|XSize=15.75mil|YSize=17.72mil|CornerRadius=3.94mil|HoleSize=0mil|Usage=FLASHONLY|Rotation=270.000|XOffset=0mil|YOffset=0mil|HoleType=Round|Shape=RoundedRectangle|*
%AMROUNDEDRECTD23*
21,1,0.01575,0.00984,0,0,270.0*
21,1,0.00787,0.01772,0,0,270.0*
1,1,0.00787,-0.00492,-0.00394*
1,1,0.00787,-0.00492,0.00394*
1,1,0.00787,0.00492,0.00394*
1,1,0.00787,0.00492,-0.00394*
%
%ADD23ROUNDEDRECTD23*%
%ADD24R,0.01811X0.01654*%
%ADD25O,0.03347X0.01102*%
%ADD26O,0.01102X0.03347*%
%ADD27R,0.01181X0.01181*%
%ADD28R,0.06496X0.17323*%
%ADD29R,0.02559X0.00984*%
%ADD30R,0.01772X0.01772*%
%ADD31C,0.01082*%
%ADD32R,0.02658X0.00984*%
%ADD33R,0.02402X0.05591*%
%ADD34R,0.09843X0.06299*%
%ADD35R,0.00984X0.01969*%
G04:AMPARAMS|DCode=36|XSize=70.87mil|YSize=51.18mil|CornerRadius=12.8mil|HoleSize=0mil|Usage=FLASHONLY|Rotation=0.000|XOffset=0mil|YOffset=0mil|HoleType=Round|Shape=RoundedRectangle|*
%AMROUNDEDRECTD36*
21,1,0.07087,0.02559,0,0,0.0*
21,1,0.04528,0.05118,0,0,0.0*
1,1,0.02559,0.02264,-0.01280*
1,1,0.02559,-0.02264,-0.01280*
1,1,0.02559,-0.02264,0.01280*
1,1,0.02559,0.02264,0.01280*
%
%ADD36ROUNDEDRECTD36*%
%ADD37C,0.01181*%
%ADD38R,0.01181X0.03937*%
%ADD39R,0.09449X0.01181*%
%ADD40R,0.05512X0.06693*%
%ADD41R,0.01000X0.11811*%
%ADD42R,0.03937X0.01000*%
%ADD43R,0.11811X0.01000*%
%ADD44R,0.01969X0.03937*%
%ADD45R,0.03937X0.01969*%
%ADD46R,0.02362X0.02756*%
%ADD47R,0.01969X0.04724*%
%ADD48C,0.00800*%
%ADD49C,0.00500*%
%ADD50C,0.01000*%
%ADD51C,0.00400*%
%ADD52C,0.01200*%
%ADD53C,0.01500*%
%ADD54C,0.00900*%
%ADD55C,0.00600*%
%ADD56C,0.02000*%
%ADD57C,0.00700*%
%ADD58O,0.08000X0.07500*%
%ADD59C,0.07480*%
%ADD60C,0.08000*%
%ADD61C,0.01200*%
%ADD62C,0.01969*%
%ADD63C,0.08200*%
%ADD64C,0.02200*%
%ADD65C,0.02600*%
%ADD66C,0.01024*%
%ADD67C,0.00807*%
%ADD68R,0.12000X0.06000*%
%ADD69R,0.03937X0.01575*%
%ADD70R,0.00886X0.00709*%
G04:AMPARAMS|DCode=71|XSize=8.86mil|YSize=7.09mil|CornerRadius=0mil|HoleSize=0mil|Usage=FLASHONLY|Rotation=135.000|XOffset=0mil|YOffset=0mil|HoleType=Round|Shape=Rectangle|*
%AMROTATEDRECTD71*
4,1,4,0.00564,-0.00063,0.00063,-0.00564,-0.00564,0.00063,-0.00063,0.00564,0.00564,-0.00063,0.0*
%
%ADD71ROTATEDRECTD71*%

%ADD72R,0.00709X0.00886*%
D13*
X2854Y65827D02*
D03*
Y67638D02*
D03*
X15000Y65895D02*
D03*
Y67706D02*
D03*
X9900D02*
D03*
Y65895D02*
D03*
X37100Y127406D02*
D03*
Y125594D02*
D03*
X33500D02*
D03*
Y127406D02*
D03*
X5400Y39206D02*
D03*
Y37394D02*
D03*
X5000Y21406D02*
D03*
Y19594D02*
D03*
X7000D02*
D03*
Y21406D02*
D03*
X12000D02*
D03*
Y19594D02*
D03*
X7600Y35306D02*
D03*
Y33494D02*
D03*
X5400D02*
D03*
Y35306D02*
D03*
X3000Y21406D02*
D03*
Y19594D02*
D03*
X9500Y21406D02*
D03*
Y19594D02*
D03*
X37100Y121395D02*
D03*
Y123205D02*
D03*
X33500Y123205D02*
D03*
Y121395D02*
D03*
X13000Y65895D02*
D03*
Y67706D02*
D03*
X25197Y47165D02*
D03*
Y48976D02*
D03*
X21100Y49005D02*
D03*
Y47194D02*
D03*
X17217Y49147D02*
D03*
Y50958D02*
D03*
X25117Y51147D02*
D03*
Y52957D02*
D03*
X23117D02*
D03*
Y51147D02*
D03*
X21167D02*
D03*
Y52957D02*
D03*
X23117Y47157D02*
D03*
Y45347D02*
D03*
X31117Y45057D02*
D03*
Y43246D02*
D03*
X42900Y45805D02*
D03*
Y43995D02*
D03*
X45200D02*
D03*
Y45805D02*
D03*
X17368Y39271D02*
D03*
Y41082D02*
D03*
X28800Y3695D02*
D03*
Y5505D02*
D03*
X25700D02*
D03*
Y3695D02*
D03*
X17400Y37205D02*
D03*
Y35394D02*
D03*
X23117Y41058D02*
D03*
Y39246D02*
D03*
X29232Y33274D02*
D03*
Y31463D02*
D03*
X27255Y31437D02*
D03*
Y33248D02*
D03*
X13100Y31394D02*
D03*
Y33206D02*
D03*
X23300Y35405D02*
D03*
Y33595D02*
D03*
X28969Y41071D02*
D03*
Y42882D02*
D03*
X25300Y33305D02*
D03*
Y31495D02*
D03*
X19400Y33395D02*
D03*
Y35206D02*
D03*
X21358Y33374D02*
D03*
Y31563D02*
D03*
X17200Y31394D02*
D03*
Y33206D02*
D03*
X35200Y31594D02*
D03*
Y33406D02*
D03*
X31200Y33305D02*
D03*
Y31495D02*
D03*
X38800Y60194D02*
D03*
Y62006D02*
D03*
X36900D02*
D03*
Y60194D02*
D03*
X47800Y55405D02*
D03*
Y53594D02*
D03*
D14*
X60295Y152900D02*
D03*
X62106D02*
D03*
X8200Y124900D02*
D03*
X6389D02*
D03*
X6289Y121100D02*
D03*
X8100D02*
D03*
X18695Y65600D02*
D03*
X20505D02*
D03*
X5406Y74700D02*
D03*
X3594D02*
D03*
X53095Y32000D02*
D03*
X54905D02*
D03*
X53095Y24500D02*
D03*
X54905D02*
D03*
Y27000D02*
D03*
X53095D02*
D03*
Y29500D02*
D03*
X54905D02*
D03*
X5685Y60835D02*
D03*
X7496D02*
D03*
X42006Y116500D02*
D03*
X40194D02*
D03*
X44805Y106100D02*
D03*
X42994D02*
D03*
X36094Y12500D02*
D03*
X37905D02*
D03*
X9181Y37303D02*
D03*
X7370D02*
D03*
X10194Y25900D02*
D03*
X12005D02*
D03*
X18695Y67600D02*
D03*
X20505D02*
D03*
X13194Y51100D02*
D03*
X15006D02*
D03*
X13212Y47052D02*
D03*
X15023D02*
D03*
X36805Y43200D02*
D03*
X34995D02*
D03*
X29212Y49252D02*
D03*
X31023D02*
D03*
X13212Y49052D02*
D03*
X15023D02*
D03*
X31012Y47152D02*
D03*
X32823D02*
D03*
X26923Y43152D02*
D03*
X25112D02*
D03*
X21174Y43176D02*
D03*
X19363D02*
D03*
X29016Y45079D02*
D03*
X27205D02*
D03*
X15312Y43252D02*
D03*
X17123D02*
D03*
X40205Y33500D02*
D03*
X38394D02*
D03*
Y31500D02*
D03*
X40205D02*
D03*
X12005Y28000D02*
D03*
X10194D02*
D03*
X15223Y37252D02*
D03*
X13412D02*
D03*
X30830Y35335D02*
D03*
X29019D02*
D03*
X32923Y37352D02*
D03*
X31112D02*
D03*
X35116Y28930D02*
D03*
X33305D02*
D03*
X27112Y37352D02*
D03*
X28923D02*
D03*
X31012Y41152D02*
D03*
X32823D02*
D03*
X15205Y41200D02*
D03*
X13395D02*
D03*
X3594Y70500D02*
D03*
X5406D02*
D03*
D48*
X40742Y68058D02*
X49487Y59313D01*
X1900Y72194D02*
Y73100D01*
Y72194D02*
X3594Y70500D01*
X3500Y70406D02*
X3594Y70500D01*
X3500Y69500D02*
Y70406D01*
X2854Y68854D02*
X3500Y69500D01*
X2854Y67638D02*
Y68854D01*
X9900Y68700D02*
X10300Y69100D01*
X9900Y68300D02*
Y68700D01*
Y67706D02*
Y68300D01*
X31000Y29000D02*
X33000Y31000D01*
X50187Y124413D02*
Y125987D01*
X49600Y127400D02*
X49602Y127402D01*
X50187Y125987D02*
Y126813D01*
X50800Y131700D02*
X50900D01*
X50187Y130487D02*
Y130987D01*
X48613Y130487D02*
X50187D01*
X41700Y118000D02*
X42006Y117694D01*
Y116500D02*
Y117694D01*
X39800Y117900D02*
X40000D01*
X40194Y117706D01*
Y116500D02*
Y117706D01*
X33000Y119800D02*
X33500Y120300D01*
X33000Y118200D02*
Y119800D01*
X42787Y133813D02*
Y135387D01*
X43787D02*
X44200Y135800D01*
X42787Y135387D02*
X43787D01*
X58287Y135887D02*
X58800Y136400D01*
Y136900D01*
X52444Y134787D02*
X52713D01*
X50869Y133213D02*
X52444Y134787D01*
X50287Y133213D02*
X50869D01*
X52713Y135313D02*
X53500Y136100D01*
X52713Y134787D02*
Y135313D01*
X53500Y136100D02*
X54287Y135313D01*
Y134787D02*
Y135313D01*
X58600Y152900D02*
X60295D01*
X58000Y153500D02*
X58600Y152900D01*
X58000Y156000D02*
X58587Y155413D01*
X60013D01*
X58000Y158500D02*
X59000D01*
X59200Y158300D01*
X60200D01*
X33500Y120300D02*
Y121395D01*
X48713Y133213D02*
X50287D01*
X4295Y125600D02*
X4995Y124900D01*
X6389D01*
X6494Y116300D02*
Y117400D01*
X5694Y121100D02*
X6289D01*
X4995Y118900D02*
X6494Y117400D01*
X4995Y118900D02*
Y120400D01*
X5694Y121100D01*
X11347Y41200D02*
X13395D01*
X11307Y41240D02*
X11347Y41200D01*
X21100Y47194D02*
X21150Y47144D01*
X23117D01*
X17368Y39271D02*
X19186D01*
X19187Y39272D01*
X27112Y37352D02*
Y39231D01*
X27063Y39279D02*
X27112Y39231D01*
X23300Y32000D02*
Y33595D01*
X23806Y31495D02*
X25300D01*
X23300Y32000D02*
X23806Y31495D01*
X61587Y156987D02*
Y157713D01*
X60013Y156987D02*
Y158113D01*
X60200Y158300D01*
X61000D02*
X61587Y157713D01*
X60200Y158300D02*
X61000D01*
X61213Y139787D02*
X62787D01*
X64087D01*
X64100Y139800D01*
X58287Y133213D02*
Y134787D01*
Y135887D01*
X33500Y127406D02*
Y128100D01*
X32900Y128700D02*
X33500Y128100D01*
X32700Y128700D02*
X32900D01*
X32700D02*
X32800Y128800D01*
X32600Y84800D02*
Y85900D01*
X30800Y83000D02*
X32600Y84800D01*
X30800Y78300D02*
Y83000D01*
Y78300D02*
X40742Y68358D01*
X5406Y73808D02*
Y74700D01*
X4400Y72802D02*
X5406Y73808D01*
X49600Y127400D02*
X50187Y126813D01*
Y130987D02*
X50900Y131700D01*
X3642Y72802D02*
X4400D01*
X37100Y127406D02*
Y128100D01*
X37900Y128900D01*
X31117Y45057D02*
X32258D01*
X32800Y45600D01*
X45700Y47600D02*
X49487Y51387D01*
Y59313D01*
X37900Y128900D02*
X38800D01*
X13780Y-39277D02*
Y-45276D01*
X16779D01*
X17778Y-44276D01*
Y-43276D01*
X16779Y-42277D01*
X13780D01*
X16779D01*
X17778Y-41277D01*
Y-40277D01*
X16779Y-39277D01*
X13780D01*
X20777Y-45276D02*
X22777D01*
X23776Y-44276D01*
Y-42277D01*
X22777Y-41277D01*
X20777D01*
X19778Y-42277D01*
Y-44276D01*
X20777Y-45276D01*
X26775Y-40277D02*
Y-41277D01*
X25776D01*
X27775D01*
X26775D01*
Y-44276D01*
X27775Y-45276D01*
X31774Y-40277D02*
Y-41277D01*
X30774D01*
X32773D01*
X31774D01*
Y-44276D01*
X32773Y-45276D01*
X36772D02*
X38771D01*
X39771Y-44276D01*
Y-42277D01*
X38771Y-41277D01*
X36772D01*
X35772Y-42277D01*
Y-44276D01*
X36772Y-45276D01*
X41770D02*
Y-41277D01*
X42770D01*
X43770Y-42277D01*
Y-45276D01*
Y-42277D01*
X44769Y-41277D01*
X45769Y-42277D01*
Y-45276D01*
D49*
X62913Y155413D02*
X63600Y156100D01*
Y156800D01*
X53500Y131100D02*
X54287Y131887D01*
X54504Y129700D02*
X54921Y130116D01*
X54287Y131887D02*
Y133213D01*
X56713Y129987D02*
Y133213D01*
X24591Y19400D02*
X31000D01*
X23500D02*
X24591D01*
X21100Y21800D02*
Y22800D01*
Y21800D02*
X23500Y19400D01*
X17009Y23900D02*
X17400Y23509D01*
Y22191D02*
Y23509D01*
Y22191D02*
X21191Y18400D01*
X2854Y59046D02*
Y65827D01*
Y59046D02*
X4450Y57450D01*
X2900Y48900D02*
Y54100D01*
X3000Y54200D02*
X5200Y56400D01*
X2900Y54100D02*
X3000Y54200D01*
X1500Y42900D02*
X3159Y44559D01*
X5859D01*
X7370Y46070D01*
X1500Y36100D02*
Y42900D01*
Y36100D02*
X2600Y35000D01*
X840Y24541D02*
X2600Y26300D01*
X840Y22458D02*
X1893Y21406D01*
X840Y22458D02*
Y24541D01*
X1893Y21406D02*
X3000D01*
X1893D02*
X2300D01*
X2600Y26300D02*
Y35000D01*
X31000Y19400D02*
X51286D01*
X31000D02*
X34400D01*
X9850Y65845D02*
X9900Y65895D01*
X1600Y18500D02*
Y18712D01*
X45800Y55900D02*
X47778D01*
X17900Y69800D02*
X18650Y70550D01*
X21959D01*
X23250Y69259D01*
Y69050D02*
Y69259D01*
Y68241D02*
X28895Y62595D01*
X12600Y62500D02*
X15000Y64900D01*
X7300Y57900D02*
Y59000D01*
X6850Y57450D02*
X7300Y57900D01*
X4450Y57450D02*
X6850D01*
X5200Y56400D02*
X7500D01*
X9300Y58200D01*
Y60900D01*
X10900Y62500D01*
X2900Y46900D02*
X3700Y46100D01*
X2900Y46900D02*
Y48900D01*
X3700Y46100D02*
X3900D01*
X2900Y47900D02*
Y48900D01*
X15000Y64900D02*
Y65895D01*
X62613Y25000D02*
X63400D01*
X62557Y24943D02*
X62613Y25000D01*
X60400Y29681D02*
X63481D01*
X63500Y29700D01*
X39150Y3050D02*
X51450D01*
X10900Y5100D02*
X13656Y2345D01*
X7300Y5100D02*
X10900D01*
X60400Y32043D02*
X63143D01*
X63200Y32100D01*
X7600Y32600D02*
Y33494D01*
X6398Y31398D02*
X7600Y32600D01*
X5402Y31398D02*
X6398D01*
X54905Y24500D02*
X55362Y24957D01*
X53850Y25750D02*
X54356Y26256D01*
X44530Y25750D02*
X53850D01*
X54356Y26451D02*
X54905Y27000D01*
X54356Y26256D02*
Y26451D01*
X56581Y27000D02*
X56900Y27319D01*
X54905Y27000D02*
X56581D01*
X16559Y24350D02*
X17009Y23900D01*
X10239Y24450D02*
X12500D01*
X13750D01*
X12500D02*
X16459D01*
X17009Y23900D01*
X54949Y32043D02*
X59374D01*
X55362Y24957D02*
X62557D01*
Y24943D02*
Y24957D01*
X53532Y20232D02*
X59374D01*
X46200Y106100D02*
X46200Y106100D01*
X44805Y106100D02*
X46200D01*
X52600Y129700D02*
X54504D01*
X52150Y130150D02*
X52600Y129700D01*
X56713Y129987D02*
X57500Y129200D01*
X50187Y128913D02*
X51287D01*
X41213Y131287D02*
X41500Y131000D01*
X41213Y131287D02*
Y133813D01*
X48087Y134787D02*
X48713D01*
X62787Y137913D02*
Y138213D01*
X52150Y130150D02*
Y132650D01*
X52713Y133213D01*
X61587Y155413D02*
X62913D01*
X2395Y19594D02*
X3000D01*
X9450Y21455D02*
X9500Y21406D01*
X7370Y27461D02*
X8720Y26111D01*
X10194Y25900D02*
Y28000D01*
X8545Y24740D02*
X8720Y24916D01*
Y26111D01*
X61587Y155413D02*
X62106Y154894D01*
Y152900D02*
Y154894D01*
X50287Y134787D02*
Y134844D01*
X49190Y135941D02*
X50287Y134844D01*
X4961Y27461D02*
X5402D01*
X47778Y55900D02*
X47800Y55878D01*
X40843Y29437D02*
X44530Y25750D01*
X62787Y137913D02*
X63700Y137000D01*
X47400Y134100D02*
X48087Y134787D01*
X51287Y128913D02*
X51500Y128700D01*
X57500Y128000D02*
Y129200D01*
X37100Y121395D02*
X38295D01*
X38600Y121700D02*
X38900D01*
X38295Y121395D02*
X38600Y121700D01*
X51450Y3050D02*
X58900Y10500D01*
Y16000D01*
X56700Y18200D02*
X58900Y16000D01*
X55994Y22594D02*
X57500D01*
X54480D02*
X57500D01*
X21191Y18400D02*
X51700D01*
X53532Y20232D01*
X51286Y19400D02*
X54480Y22594D01*
X8000Y24196D02*
X8720Y24916D01*
X7370Y46070D02*
Y49114D01*
X3000Y21406D02*
Y21411D01*
X5000Y21406D02*
Y23700D01*
X8000Y22906D02*
Y24196D01*
Y22906D02*
X9500Y21406D01*
X11095D02*
X12000D01*
X10900Y21600D02*
X11095Y21406D01*
X10900Y21600D02*
Y22600D01*
X9500Y23700D02*
X10194Y24395D01*
Y25900D01*
X4100Y26600D02*
X4961Y27461D01*
X7000Y21406D02*
Y25122D01*
X7370Y25492D01*
X4100Y24600D02*
X5000Y23700D01*
X4100Y24600D02*
Y26600D01*
X47141Y135941D02*
X48400D01*
X49190D01*
X47000Y135800D02*
X47141Y135941D01*
X49190D01*
X49766Y135366D01*
X47913Y124413D02*
X48613D01*
X47500Y124000D02*
X47913Y124413D01*
X9850Y64750D02*
Y65100D01*
Y65845D01*
Y64550D02*
Y65100D01*
X9200Y63900D02*
X9850Y64550D01*
X1600Y18800D02*
X2395Y19594D01*
X1600Y18500D02*
Y18800D01*
X54905Y29500D02*
X57119D01*
X57300Y29681D01*
X60400D01*
X57600Y32043D02*
X60400D01*
X56900Y27319D02*
X57900D01*
X59374D01*
X57900D02*
X60400D01*
X58000Y20232D02*
X60400D01*
X57500Y22594D02*
X57800D01*
X59374D01*
X57800D02*
X60400D01*
X10900Y62500D02*
X11700D01*
X12600D01*
X18096Y65600D02*
X18695D01*
X17800Y65304D02*
X18096Y65600D01*
X23250Y68241D02*
Y69259D01*
X32400Y3200D02*
X39000D01*
X13656Y2345D02*
X31545D01*
X32400Y3200D01*
X12100Y125039D02*
Y126400D01*
X12100Y119761D02*
Y121121D01*
X27386Y94614D02*
Y100370D01*
X35681Y131381D02*
X36819D01*
X38800Y129400D01*
Y128900D02*
Y129400D01*
X31719Y130019D02*
X32900Y128837D01*
Y128700D02*
Y128837D01*
X12800Y106879D02*
Y108239D01*
Y101561D02*
Y102921D01*
X27386Y91700D02*
Y93535D01*
X30838Y105138D02*
X31800Y106100D01*
X36839Y111000D02*
X38335D01*
D50*
X57600Y143300D02*
X59131Y144832D01*
Y147716D01*
X36300Y136400D02*
Y137000D01*
Y135484D02*
Y136400D01*
X44100Y80900D02*
X47600Y77400D01*
X5406Y70500D02*
X7200D01*
X4354Y68354D02*
X5406Y69406D01*
Y70500D01*
X7200D02*
X7900Y69800D01*
X8500D01*
X4354Y64354D02*
Y68354D01*
X4300Y64300D02*
X4354Y64354D01*
X18695Y68148D02*
X19746Y69200D01*
X21400D01*
X18695Y68148D02*
X19523Y68977D01*
X21400Y69033D02*
Y69200D01*
X21334Y69033D02*
X21400D01*
X22300Y65600D02*
X22500Y65800D01*
X20505Y65600D02*
X22300D01*
X18695Y67600D02*
Y68148D01*
X4300Y64300D02*
Y64900D01*
Y64300D02*
X4800Y63800D01*
X4509Y43209D02*
X5402D01*
X3600Y42300D02*
X4509Y43209D01*
X3600Y40200D02*
Y42300D01*
Y40200D02*
X4594Y39206D01*
X5400D01*
X25700Y3695D02*
X28800D01*
X60400Y34405D02*
X62680D01*
X63300Y35026D01*
X34841Y41152D02*
X34937Y41248D01*
X32823Y41152D02*
X34841D01*
X32823Y47152D02*
X34935D01*
X52000Y22500D02*
X52100Y22400D01*
X51200Y27000D02*
X53095D01*
X51100Y27100D02*
X51200Y27000D01*
X44100Y80900D02*
X44200D01*
X43700Y118200D02*
X44500Y117400D01*
Y108900D02*
Y117400D01*
X42994Y107395D02*
X44500Y108900D01*
X42994Y106100D02*
Y107395D01*
X43000Y121600D02*
X43200Y121400D01*
X43000Y121600D02*
Y124016D01*
X41032D02*
X43000D01*
Y125984D01*
X34332Y133516D02*
X36300D01*
X32600Y136400D02*
X33516Y135484D01*
X34332D01*
X59600Y138900D02*
X60287Y138213D01*
X61213D01*
X61016Y138016D02*
X61213Y138213D01*
X61016Y134968D02*
Y138016D01*
X63467Y151467D02*
X63500Y151500D01*
X62000Y151467D02*
X63467D01*
X61100Y150567D02*
X62000Y151467D01*
X61100Y149684D02*
Y150567D01*
X63068Y146056D02*
Y147716D01*
Y149684D01*
X61100Y147716D02*
Y149684D01*
X57500Y150200D02*
Y151500D01*
Y150200D02*
X58016Y149684D01*
X62984Y131032D02*
Y133000D01*
X61016D02*
X62984D01*
X11307Y49114D02*
X11369Y49052D01*
X13212D01*
X11315Y51091D02*
X11324Y51100D01*
X13194D01*
X37905Y11294D02*
X38700Y10500D01*
X37905Y11294D02*
Y12500D01*
X36094D02*
Y14095D01*
X9500Y19200D02*
X10500Y18200D01*
X12000Y19594D02*
X13905D01*
X11307Y37303D02*
X11358Y37252D01*
X11484Y33206D02*
X13100D01*
X11315Y33374D02*
X11484Y33206D01*
X11358Y37252D02*
X13412D01*
X9181Y37303D02*
X11150Y39272D01*
X11307D01*
X9500Y19200D02*
Y19594D01*
X25700Y5505D02*
Y7047D01*
X25689Y7058D02*
X25700Y7047D01*
X28800Y5505D02*
Y7000D01*
X28800Y7000D01*
X13905Y19594D02*
X14384Y19116D01*
X14600D01*
X13100Y31394D02*
X13600Y30895D01*
X20505Y65600D02*
Y67600D01*
X15000Y67706D02*
X15000Y67706D01*
X21259Y52957D02*
X23117D01*
X29032Y31463D02*
X29063Y31495D01*
X25117Y52957D02*
X26970D01*
X27059Y53047D01*
X58016Y149684D02*
X59131D01*
X61016Y134968D02*
X62984D01*
X60300Y133000D02*
X61016D01*
X59800Y132500D02*
X60300Y133000D01*
X62984Y128316D02*
Y131032D01*
Y128316D02*
X63000Y128300D01*
X62900Y128000D02*
X63000Y128100D01*
Y128300D01*
X62900Y128000D02*
Y128100D01*
X60484Y130500D02*
X61016Y131032D01*
X59800Y130500D02*
X60484D01*
X4594Y35306D02*
X5400D01*
X3900Y36000D02*
X4594Y35306D01*
X3900Y36000D02*
Y36200D01*
X12005Y25900D02*
X12500D01*
X13600Y27000D01*
X53095Y23595D02*
Y24500D01*
Y27000D02*
Y29500D01*
X47600Y77400D02*
X57181D01*
X42994Y106100D02*
X43294Y105801D01*
Y104106D02*
Y105801D01*
Y104106D02*
X43700Y103700D01*
X13182Y47052D02*
X13212D01*
X11307Y45177D02*
X13182Y47052D01*
X6900Y16200D02*
X7000Y16300D01*
X6800Y16200D02*
X6900D01*
X5000Y16300D02*
Y19594D01*
X7000Y16300D02*
Y19594D01*
X13600Y27000D02*
Y30895D01*
X52000Y22500D02*
X53095Y23595D01*
X2200Y77600D02*
X3594Y76205D01*
Y74700D02*
Y76205D01*
X12405Y65300D02*
X13000Y65895D01*
X11800Y65300D02*
X12405D01*
X21158Y53059D02*
X21259Y52957D01*
X29063Y31495D02*
X31200D01*
X11200Y64700D02*
X11800Y65300D01*
X13000Y67706D02*
Y69100D01*
X13200Y69300D02*
Y69663D01*
X15000Y67706D02*
Y69600D01*
X59131Y147716D02*
X60200D01*
X61100D01*
X62898Y128002D02*
X62900Y128000D01*
X28800Y3695D02*
X30694D01*
X30700Y3700D01*
Y4100D01*
X36300Y133516D02*
Y133700D01*
Y135484D01*
D51*
X40100Y75265D02*
Y103300D01*
Y75265D02*
X42287Y73077D01*
X41300Y75761D02*
X42785Y74277D01*
X59700Y47203D02*
Y63097D01*
X50100Y39300D02*
X53800D01*
X41300Y75761D02*
Y112400D01*
X33500Y123205D02*
X33500Y123205D01*
X39600Y103800D02*
X40100Y103300D01*
X39600Y103800D02*
Y105100D01*
X40100Y105600D01*
Y106900D01*
X39400Y107600D02*
X40100Y106900D01*
X39400Y107600D02*
Y108700D01*
X40100Y109400D01*
Y111903D01*
X36300Y114600D02*
X37403D01*
X35702Y115199D02*
X36300Y114600D01*
X35702Y115199D02*
Y116302D01*
X39573Y112430D02*
X40100Y111903D01*
X37403Y114600D02*
X38100Y113903D01*
X38670Y112430D02*
X39573D01*
X38100Y113000D02*
X38670Y112430D01*
X38100Y113000D02*
Y113903D01*
X34633Y117370D02*
X35702Y116302D01*
X57900Y53100D02*
X58500Y53700D01*
Y47700D02*
Y49238D01*
X58019Y49719D02*
X58500Y49238D01*
X58019Y49719D02*
Y50419D01*
X58500Y50900D01*
Y51800D01*
X57900Y52400D02*
X58500Y51800D01*
X57900Y52400D02*
Y53100D01*
X58500Y53700D02*
Y54900D01*
X57900Y59000D02*
Y60000D01*
X57800Y55600D02*
X58500Y54900D01*
X57800Y55600D02*
Y56400D01*
X58500Y57100D01*
Y58400D01*
X57900Y59000D02*
X58500Y58400D01*
X57900Y60000D02*
X58500Y60600D01*
Y62600D01*
X54500Y42500D02*
X55400Y43400D01*
X54500Y41697D02*
Y42500D01*
X53303Y40500D02*
X54500Y41697D01*
X52800Y40500D02*
X53303D01*
X52100Y41200D02*
X52800Y40500D01*
X51300Y41200D02*
X52100D01*
X55400Y43400D02*
X56203D01*
X56900Y44097D01*
Y46100D01*
X42296Y73077D02*
X43273Y72100D01*
X42287Y73077D02*
X42296D01*
X33500Y123205D02*
X34295D01*
X34633Y117370D02*
Y122867D01*
X34295Y123205D02*
X34800Y123711D01*
X34295Y123205D02*
X34633Y122867D01*
X33500Y125594D02*
X34161D01*
X34800Y124956D01*
X31800Y131600D02*
X34767Y128633D01*
X34161Y125594D02*
X34767Y126200D01*
Y128633D01*
X34800Y123711D02*
Y124956D01*
X56300Y64800D02*
X58500Y62600D01*
X49500Y40900D02*
X49900Y40500D01*
X50600D01*
X56900Y46100D02*
X58500Y47700D01*
X54003Y64800D02*
X56300D01*
X49603Y69200D02*
X54003Y64800D01*
X36900Y123205D02*
X36900Y123205D01*
X36505Y125594D02*
X37100D01*
X35967Y126133D02*
Y129130D01*
Y126133D02*
X36505Y125594D01*
X32297Y132800D02*
X35967Y129130D01*
X42793Y74277D02*
X43770Y73300D01*
X42785Y74277D02*
X42793D01*
X56797Y66000D02*
X59700Y63097D01*
X35767Y117933D02*
Y122872D01*
X35800Y123506D02*
Y124889D01*
X35767Y122872D02*
X36100Y123205D01*
X35767Y117933D02*
X41300Y112400D01*
X35800Y124889D02*
X36505Y125594D01*
X35800Y123506D02*
X36100Y123205D01*
X36900D01*
X49600Y38800D02*
X50100Y39300D01*
X58100Y43600D02*
Y45603D01*
X59700Y47203D01*
X53800Y39300D02*
X58100Y43600D01*
X54500Y66000D02*
X56797D01*
X50100Y70400D02*
X54500Y66000D01*
X40100Y75265D02*
X40881Y74484D01*
X41300Y75761D02*
X42081Y74981D01*
X47100Y34697D02*
Y45900D01*
X45356Y32953D02*
X47100Y34697D01*
X40753Y32953D02*
X45356D01*
X48100Y34000D02*
Y45200D01*
X46100Y32000D02*
X48100Y34000D01*
X40705Y32000D02*
X46100D01*
X40205Y31500D02*
X40705Y32000D01*
X40205Y33500D02*
X40753Y32953D01*
X44561Y70500D02*
X53600Y61462D01*
Y50703D02*
Y61462D01*
X52100Y49203D02*
X53600Y50703D01*
X52100Y49200D02*
Y49203D01*
X44065Y69300D02*
X52400Y60965D01*
Y51200D02*
Y60965D01*
X47100Y45900D02*
X52400Y51200D01*
X24200Y80603D02*
Y87303D01*
Y80603D02*
X33300Y71503D01*
X18883Y92620D02*
X24200Y87303D01*
X25400Y81100D02*
X34500Y72000D01*
X25400Y81100D02*
Y87800D01*
X19853Y87450D02*
X21300Y86003D01*
X20350Y88650D02*
X22500Y86500D01*
X8953Y87450D02*
X19853D01*
X9450Y88650D02*
X20350D01*
X21253Y72600D02*
X24200Y69653D01*
X15500Y72600D02*
X21253D01*
X13000Y75100D02*
X15500Y72600D01*
X13600Y76000D02*
X15900Y73700D01*
X44794Y45805D02*
X45200D01*
X43205D02*
X43400Y46000D01*
X42900Y45805D02*
X43205D01*
X18331Y127281D02*
Y127535D01*
X38400Y62406D02*
X38800Y62006D01*
X36906Y31405D02*
X37400Y31900D01*
X37995D01*
X37179Y33100D02*
X37995D01*
X38394Y33500D01*
X37995Y31900D02*
X38394Y31500D01*
X42805Y43900D02*
X42900Y43995D01*
X36906Y33374D02*
X37179Y33100D01*
X27386Y117914D02*
Y118480D01*
X7000Y76539D02*
X7900Y77439D01*
X7000Y75062D02*
Y76539D01*
Y75062D02*
X7762Y74300D01*
X8839D01*
X9639Y75100D01*
X13000D01*
X42300Y48200D02*
X43697D01*
X44400Y47497D01*
Y46200D02*
Y47497D01*
X37038Y54400D02*
X40200Y51239D01*
X37536Y55600D02*
X41400Y51736D01*
X43400Y46000D02*
Y46800D01*
X43200Y47000D02*
X43400Y46800D01*
X41803Y47000D02*
X43200D01*
X41400Y49100D02*
Y51736D01*
X4500Y109900D02*
Y111100D01*
Y107200D02*
X5200Y107900D01*
Y109200D01*
X4500Y109900D02*
X5200Y109200D01*
X4500Y111100D02*
X5200Y111800D01*
Y112900D01*
X4500Y113600D02*
X5200Y112900D01*
X4500Y113600D02*
Y115700D01*
X33500Y56197D02*
Y61703D01*
Y56197D02*
X34097Y55600D01*
X37536D01*
X32300Y55700D02*
Y62200D01*
X9995Y124200D02*
X10000D01*
X9544Y123750D02*
X9995Y124200D01*
X4544Y122550D02*
X9245D01*
X8100Y121100D02*
Y122500D01*
X44400Y46200D02*
X44794Y45805D01*
X40200Y48603D02*
X41803Y47000D01*
X41400Y49100D02*
X42300Y48200D01*
X3400Y116800D02*
X4500Y115700D01*
X2200Y116303D02*
X3300Y115203D01*
Y93103D02*
Y115203D01*
X4500Y93600D02*
X9450Y88650D01*
X3400Y116800D02*
Y121405D01*
X2200Y116303D02*
Y121891D01*
X33500Y61703D02*
X33800Y62003D01*
X32300Y62200D02*
X32600Y62500D01*
X3300Y93103D02*
X8953Y87450D01*
X14700Y123650D02*
X18331Y127281D01*
X2194Y121897D02*
X2200Y121891D01*
X2194Y121897D02*
X4047Y123750D01*
X8195D01*
X8200Y123756D01*
Y124900D01*
X8195Y123750D02*
X9544D01*
X32300Y55700D02*
X33600Y54400D01*
X9794Y122000D02*
X10244Y122450D01*
X3395Y121400D02*
X3400Y121405D01*
X4544Y122550D01*
X9245D02*
X9794Y122000D01*
X33600Y54400D02*
X37038D01*
X40200Y48603D02*
Y51239D01*
X23000Y90200D02*
X25400Y87800D01*
X23000Y90200D02*
Y91400D01*
X22200Y92200D02*
X23000Y91400D01*
X21000Y92200D02*
X22200D01*
X19380Y93819D02*
X21000Y92200D01*
X16100Y93819D02*
X19380D01*
X9800Y96400D02*
Y99300D01*
X14280Y94600D02*
X15319D01*
X16100Y93819D01*
X13500D02*
X14280Y94600D01*
X12381Y93819D02*
X13500D01*
X10500Y100000D02*
Y101000D01*
X9800Y99300D02*
X10500Y100000D01*
X9800Y101700D02*
X10500Y101000D01*
X9800Y101700D02*
Y102797D01*
X34500Y69297D02*
X38400Y65397D01*
Y62406D02*
Y65397D01*
X33300Y68800D02*
Y71503D01*
Y68800D02*
X37200Y64900D01*
X34500Y69297D02*
Y72000D01*
X11884Y92620D02*
X18883D01*
X8600Y95903D02*
X11884Y92620D01*
X9800Y96400D02*
X12381Y93819D01*
X8600Y95903D02*
Y103294D01*
X10803Y105497D02*
X14403D01*
X8600Y103294D02*
X10803Y105497D01*
X14403D02*
X18331Y109425D01*
X9800Y102797D02*
X11300Y104297D01*
X14403D02*
X18331Y100370D01*
X11300Y104297D02*
X14403D01*
X48100Y45200D02*
X52100Y49200D01*
X35100Y76500D02*
Y77000D01*
Y78800D02*
Y79500D01*
X34600Y77500D02*
X35100Y77000D01*
X34600Y77500D02*
Y78300D01*
X35100Y78800D01*
X34500Y80100D02*
X35100Y79500D01*
X34500Y80100D02*
Y80900D01*
X35100Y81500D01*
Y82600D01*
Y76500D02*
X42300Y69300D01*
X34400Y83300D02*
Y84200D01*
Y83300D02*
X35100Y82600D01*
X34400Y84200D02*
X35100Y84900D01*
Y86600D01*
X34000Y87700D02*
Y88700D01*
X33300Y93100D02*
Y94300D01*
Y89400D02*
X34000Y88700D01*
X33300Y89400D02*
Y90600D01*
X34000Y91300D01*
Y92400D01*
X33300Y93100D02*
X34000Y92400D01*
X33300Y94300D02*
X34000Y95000D01*
Y96000D01*
X33200Y96800D02*
Y98600D01*
X33300Y101600D02*
Y103200D01*
Y105800D02*
Y107000D01*
X33200Y96800D02*
X34000Y96000D01*
X33200Y98600D02*
X34000Y99400D01*
Y100900D01*
X33300Y101600D02*
X34000Y100900D01*
X33300Y103200D02*
X34000Y103900D01*
Y105100D01*
X33300Y105800D02*
X34000Y105100D01*
X33300Y107000D02*
X34000Y107700D01*
Y111400D01*
X36300Y76997D02*
X42797Y70500D01*
X36300Y76997D02*
Y87097D01*
X27386Y109425D02*
X31061Y113100D01*
X32300D02*
X34000Y111400D01*
X31061Y113100D02*
X32300D01*
X34000Y87700D02*
X35100Y86600D01*
X35200Y88197D02*
X36300Y87097D01*
X27386Y117914D02*
X31000Y114300D01*
X35200Y88197D02*
Y111897D01*
X32797Y114300D02*
X35200Y111897D01*
X31000Y114300D02*
X32797D01*
X42797Y70500D02*
X44561D01*
X42300Y69300D02*
X44065D01*
X44033Y43033D02*
Y44400D01*
X43500Y42500D02*
X44033Y43033D01*
X41534Y42500D02*
X43500D01*
X44601Y44594D02*
X45200Y43995D01*
X44227Y44594D02*
X44601D01*
X44033Y44400D02*
X44227Y44594D01*
X36900Y41200D02*
X38537D01*
X40800Y41766D02*
X41534Y42500D01*
X38537Y41200D02*
X41237Y43900D01*
X42805D01*
X40800Y41200D02*
Y41766D01*
X38450Y58350D02*
X39331Y57469D01*
X40231D01*
X40800Y56900D01*
Y56000D02*
Y56900D01*
Y56000D02*
X41400Y55400D01*
X42500D01*
X43000Y54900D01*
Y53800D02*
Y54900D01*
Y53800D02*
X44000Y52800D01*
X37250Y57850D02*
X42800Y52300D01*
X37250Y57850D02*
Y58750D01*
X42800Y50953D02*
Y52300D01*
X44000Y51450D02*
Y52800D01*
Y51450D02*
X44400Y51050D01*
X44750Y49850D02*
X45200Y49400D01*
X43903Y49850D02*
X44750D01*
X42800Y50953D02*
X43903Y49850D01*
X44400Y51050D02*
X44750D01*
X45200Y51500D01*
X43600Y40500D02*
X45000D01*
X43500D02*
X43600D01*
X44503Y39300D02*
X44800Y39003D01*
X38700Y39000D02*
X38838D01*
X40000Y37839D01*
Y36400D02*
Y37839D01*
X41200Y36897D02*
Y39000D01*
X41000Y39200D02*
X41200Y39000D01*
Y36897D02*
X41697Y36400D01*
X43300Y39300D02*
X44503D01*
X42800Y38800D02*
X43300Y39300D01*
X45000Y40500D02*
X46000Y39500D01*
X44800Y37097D02*
Y39003D01*
X46000Y36600D02*
Y39500D01*
X44103Y36400D02*
X44800Y37097D01*
X41697Y36400D02*
X44103D01*
X44600Y35200D02*
X46000Y36600D01*
X41200Y35200D02*
X44600D01*
X40000Y36400D02*
X41200Y35200D01*
X43000Y41000D02*
X43500Y40500D01*
X50600D02*
X51300Y41200D01*
X30700Y131600D02*
X31800D01*
X27386Y128286D02*
X30700Y131600D01*
X27386Y127535D02*
Y128286D01*
X28500Y132800D02*
X32297D01*
X27386Y133914D02*
Y136590D01*
Y133914D02*
X28500Y132800D01*
X10550Y123650D02*
X14700D01*
X10000Y124200D02*
X10550Y123650D01*
X10244Y122450D02*
X15550D01*
X18331Y119669D01*
Y118480D02*
Y119669D01*
X8700Y76000D02*
X13600D01*
X8300Y75600D02*
X8700Y76000D01*
X38450Y58350D02*
Y59000D01*
Y59645D01*
Y59000D02*
Y59844D01*
X38800Y60194D01*
X37250Y58750D02*
Y58900D01*
Y59645D01*
Y58900D02*
Y59844D01*
X36900Y60194D02*
X37250Y59844D01*
X37200Y62305D02*
Y63200D01*
Y64900D01*
Y62305D02*
Y63200D01*
X36900Y62006D02*
X37200Y62305D01*
X24200Y68900D02*
Y69653D01*
Y68900D02*
X28900Y64200D01*
X31300D01*
X4500Y93600D02*
Y107200D01*
X48200Y69200D02*
X49603D01*
X43770Y73300D02*
X45797D01*
X48697Y70400D02*
X50100D01*
X43273Y72100D02*
X45300D01*
X48200Y69200D01*
X45797Y73300D02*
X48697Y70400D01*
X28400Y69400D02*
X32600Y65200D01*
Y62500D02*
Y65200D01*
X29600Y69897D02*
X33800Y65697D01*
Y62003D02*
Y65697D01*
X25600Y69100D02*
X28849Y65851D01*
X29400D01*
X24439Y73700D02*
X25600Y72539D01*
X15900Y73700D02*
X24439D01*
X25600Y69100D02*
Y71800D01*
Y72539D01*
X21300Y79200D02*
Y86003D01*
Y79200D02*
X28400Y72100D01*
Y69400D02*
Y72100D01*
X22500Y79697D02*
Y86500D01*
Y79697D02*
X29600Y72597D01*
Y69897D02*
Y72597D01*
D52*
X46978Y53122D02*
X47800D01*
X45900Y54200D02*
X46978Y53122D01*
X33000Y31000D02*
Y33400D01*
X31000Y26400D02*
Y29000D01*
Y26400D02*
X32000Y25400D01*
X35900D02*
X37700Y23600D01*
X32000Y25400D02*
X35900D01*
X29019Y38519D02*
X31005Y40505D01*
X48100Y89100D02*
X49800Y87400D01*
X56400D01*
X47500Y127700D02*
Y127800D01*
X48613Y128913D01*
X44972Y125987D02*
X48613D01*
X41200Y137700D02*
X41213Y137687D01*
Y135387D02*
Y137687D01*
X30992Y33361D02*
X31031Y33400D01*
X56713Y134787D02*
Y139500D01*
X33000Y33400D02*
Y34100D01*
X34700Y35800D02*
Y38104D01*
X31211Y40263D02*
Y40300D01*
X31005Y40505D02*
X31211Y40300D01*
X31922Y39552D02*
X33252D01*
X31211Y40263D02*
X31922Y39552D01*
X33000Y34100D02*
X34700Y35800D01*
X33252Y39552D02*
X34700Y38104D01*
X37700Y23600D02*
X41200D01*
X42900D01*
X29019Y37303D02*
Y38519D01*
X31005Y40505D02*
Y41240D01*
X31031Y33400D02*
X33000D01*
D53*
X45700Y91400D02*
X49450Y95150D01*
X54931D02*
X57181Y97400D01*
X49450Y95150D02*
X54931D01*
X5406Y70500D02*
Y70906D01*
X13500Y70800D02*
Y72549D01*
X13200Y70500D02*
X13500Y70800D01*
X13200Y69300D02*
Y70500D01*
X5406Y70906D02*
X7179Y72679D01*
X12399Y73650D02*
X13500Y72549D01*
X45700Y86700D02*
Y91400D01*
Y86700D02*
X46900Y85500D01*
X44969Y130668D02*
X45000Y130700D01*
X44969Y125984D02*
Y130668D01*
Y125984D02*
X44972Y125987D01*
X44969Y124016D02*
Y125984D01*
X39100Y125800D02*
X39284Y125984D01*
X41032D01*
X46700Y137700D02*
X47000Y138000D01*
X41200Y137700D02*
X46700D01*
X39000D02*
X41200D01*
X38269Y138432D02*
X39000Y137700D01*
X47000Y138000D02*
X47100Y138100D01*
X53900D01*
X42100Y140300D02*
X56113D01*
X41500Y139700D02*
X42100Y140300D01*
X35800Y139600D02*
X37100D01*
X38269Y138432D01*
Y135484D02*
Y138432D01*
Y133516D02*
Y135484D01*
X56113Y140300D02*
X56713Y139700D01*
X56613Y139600D02*
X56713Y139500D01*
Y139700D02*
X63068Y146056D01*
X56713Y139500D02*
Y139700D01*
X53095Y32000D02*
Y32902D01*
X53876Y33683D01*
X55683D01*
X56800Y34800D01*
X7179Y72679D02*
X9556D01*
X10528Y73650D01*
X12399D01*
X12825Y73225D01*
X60400Y36768D02*
Y39300D01*
X61600Y40500D01*
Y43300D01*
D57*
X12005Y28000D02*
Y28731D01*
X11307Y29429D02*
X12005Y28731D01*
D58*
X27386Y100370D02*
D03*
Y109425D02*
D03*
Y118480D02*
D03*
Y127535D02*
D03*
Y136590D02*
D03*
D59*
X18331D02*
D03*
D60*
Y127535D02*
D03*
Y118480D02*
D03*
Y109425D02*
D03*
Y100370D02*
D03*
D61*
X62000Y159400D02*
D03*
X64100Y158500D02*
D03*
X57600Y143300D02*
D03*
X32700Y128700D02*
D03*
X54921Y130116D02*
D03*
X51500Y128700D02*
D03*
X53500Y131100D02*
D03*
X49500Y40900D02*
D03*
X49600Y38800D02*
D03*
X64600Y65600D02*
D03*
X1100Y48500D02*
D03*
X800Y64600D02*
D03*
X6202Y64802D02*
D03*
X1400Y142800D02*
D03*
X64700Y48000D02*
D03*
X11400Y60800D02*
D03*
X9200Y63900D02*
D03*
X7122Y66322D02*
D03*
X8500Y69800D02*
D03*
X6300Y67900D02*
D03*
X4800Y63800D02*
D03*
X5409Y60933D02*
D03*
Y58965D02*
D03*
X1600Y18500D02*
D03*
X4500Y52600D02*
D03*
X53400Y43800D02*
D03*
X45500Y42333D02*
D03*
X45900Y54200D02*
D03*
X38700Y50900D02*
D03*
X38900Y49100D02*
D03*
X45700Y47600D02*
D03*
X45800Y55900D02*
D03*
X36906Y49122D02*
D03*
X45400Y59800D02*
D03*
X53600Y48700D02*
D03*
X55400D02*
D03*
X17900Y69800D02*
D03*
X21400Y69200D02*
D03*
X11200Y64700D02*
D03*
X24300Y72000D02*
D03*
X28895Y62595D02*
D03*
X15200Y69800D02*
D03*
X7300Y60900D02*
D03*
X3900Y46100D02*
D03*
X10300Y69100D02*
D03*
X1100Y34200D02*
D03*
X1200Y32600D02*
D03*
X7378Y53059D02*
D03*
X7400Y54900D02*
D03*
X4500Y50700D02*
D03*
X11600Y71800D02*
D03*
X13200Y69300D02*
D03*
X5402Y31398D02*
D03*
Y43209D02*
D03*
X7370Y49114D02*
D03*
X11307Y45177D02*
D03*
Y43209D02*
D03*
X9339Y45177D02*
D03*
X11307Y41240D02*
D03*
X28900Y60600D02*
D03*
X22200Y62900D02*
D03*
X63400Y25000D02*
D03*
X63500Y29700D02*
D03*
X40400Y5100D02*
D03*
X40600Y9500D02*
D03*
X49000Y4400D02*
D03*
X8400Y2100D02*
D03*
X7300Y5100D02*
D03*
X63200Y32100D02*
D03*
X63300Y35026D02*
D03*
X45300Y66200D02*
D03*
X36906Y31405D02*
D03*
X34937Y43216D02*
D03*
Y41248D02*
D03*
X32800Y45600D02*
D03*
X36906Y43216D02*
D03*
X34937Y47153D02*
D03*
X36906D02*
D03*
X35131Y20968D02*
D03*
X33000Y37400D02*
D03*
X34937Y31405D02*
D03*
Y53059D02*
D03*
Y56996D02*
D03*
Y58965D02*
D03*
X38749Y43251D02*
D03*
X43300Y68000D02*
D03*
X36906Y37311D02*
D03*
X38700Y37300D02*
D03*
X38900Y45100D02*
D03*
X34937Y33374D02*
D03*
X36906D02*
D03*
X38900Y35400D02*
D03*
X38874Y25500D02*
D03*
X40843Y27468D02*
D03*
X39000Y3200D02*
D03*
X56700Y18200D02*
D03*
X49000Y67900D02*
D03*
X55800Y52100D02*
D03*
X55900Y54400D02*
D03*
X55800Y56600D02*
D03*
X55900Y58900D02*
D03*
Y61300D02*
D03*
X52500Y72700D02*
D03*
X46200Y106100D02*
D03*
X61200Y50200D02*
D03*
X10826Y90300D02*
D03*
X62200Y54100D02*
D03*
X59300Y81600D02*
D03*
X59900Y83300D02*
D03*
X58200Y83000D02*
D03*
X63800Y104700D02*
D03*
X48600Y103900D02*
D03*
X56600Y104500D02*
D03*
X60200Y112100D02*
D03*
X62300Y112000D02*
D03*
X58300Y112100D02*
D03*
X55800D02*
D03*
X53800D02*
D03*
X51800D02*
D03*
X63100Y114200D02*
D03*
X63200Y116200D02*
D03*
X63100Y118200D02*
D03*
X63200Y121200D02*
D03*
X63300Y123300D02*
D03*
X63200Y125400D02*
D03*
X48352Y122448D02*
D03*
X48300Y120800D02*
D03*
Y114300D02*
D03*
Y116400D02*
D03*
Y118400D02*
D03*
X53800Y128200D02*
D03*
X57200Y48700D02*
D03*
X48600Y99300D02*
D03*
X48800Y97200D02*
D03*
X46700Y96400D02*
D03*
X48100Y89100D02*
D03*
X30800Y85800D02*
D03*
X64000Y54500D02*
D03*
X61800Y62100D02*
D03*
X61360Y67964D02*
D03*
X59000Y67900D02*
D03*
X63500Y71300D02*
D03*
X63600Y69600D02*
D03*
X54200Y73300D02*
D03*
X53900Y81600D02*
D03*
X64700Y96400D02*
D03*
X19700Y95120D02*
D03*
X37200Y100600D02*
D03*
X46900Y104300D02*
D03*
X43700Y118200D02*
D03*
X27100Y85900D02*
D03*
X26900Y83800D02*
D03*
X49602Y127402D02*
D03*
X47500Y127700D02*
D03*
X45000Y130700D02*
D03*
X50800Y131700D02*
D03*
X45100Y121300D02*
D03*
X43200Y121400D02*
D03*
X39100Y125800D02*
D03*
X41700Y118000D02*
D03*
X39800Y117900D02*
D03*
X33000Y118200D02*
D03*
X39300Y131400D02*
D03*
X47000Y135800D02*
D03*
X44200D02*
D03*
X38800Y128900D02*
D03*
X57500Y128000D02*
D03*
X58800Y136900D02*
D03*
X53500Y136100D02*
D03*
X58000Y156000D02*
D03*
Y158500D02*
D03*
X3100Y3700D02*
D03*
X22539Y7061D02*
D03*
X38700Y10500D02*
D03*
X34300Y13300D02*
D03*
X34200Y4800D02*
D03*
X34300Y7300D02*
D03*
Y10000D02*
D03*
X35000Y15400D02*
D03*
X39700Y16600D02*
D03*
X36094Y14095D02*
D03*
X15800Y6100D02*
D03*
X22539Y10561D02*
D03*
X32469Y22368D02*
D03*
X28532Y22332D02*
D03*
X25400Y22500D02*
D03*
X4900Y3500D02*
D03*
X20100Y16500D02*
D03*
X25689Y7058D02*
D03*
X28800Y7000D02*
D03*
X30060Y8760D02*
D03*
X25300Y31495D02*
D03*
X29032Y31463D02*
D03*
X21150Y35335D02*
D03*
X27100Y31500D02*
D03*
X21200Y31495D02*
D03*
X23118Y25492D02*
D03*
X21154Y41244D02*
D03*
X29013Y41240D02*
D03*
X25091Y41244D02*
D03*
X19187Y39272D02*
D03*
X23110Y39263D02*
D03*
X21150Y37303D02*
D03*
X25069D02*
D03*
X21150Y39284D02*
D03*
X23114Y41244D02*
D03*
X19163Y41240D02*
D03*
X17210Y41243D02*
D03*
X15248Y41244D02*
D03*
X27059D02*
D03*
X25082Y39272D02*
D03*
X29019Y37303D02*
D03*
X31000D02*
D03*
X31000Y35335D02*
D03*
X29019D02*
D03*
X23110Y37295D02*
D03*
X23118Y35335D02*
D03*
X17213Y37297D02*
D03*
X27055Y33348D02*
D03*
X30992Y33361D02*
D03*
X31005Y41240D02*
D03*
X27063Y39279D02*
D03*
Y35342D02*
D03*
X29032Y33374D02*
D03*
X25095D02*
D03*
X38874Y27468D02*
D03*
X40800Y25500D02*
D03*
X19189Y33374D02*
D03*
X21158D02*
D03*
X19189Y35342D02*
D03*
X17221D02*
D03*
X19189Y37311D02*
D03*
X4295Y125600D02*
D03*
X6494Y116300D02*
D03*
X27063Y56996D02*
D03*
X25095Y55028D02*
D03*
Y47153D02*
D03*
X21158Y49122D02*
D03*
X23126D02*
D03*
X25095D02*
D03*
X21158Y53059D02*
D03*
X19189D02*
D03*
X17221D02*
D03*
X21150Y55020D02*
D03*
X17213Y49097D02*
D03*
X15244Y49129D02*
D03*
X15246Y47144D02*
D03*
X15245Y43209D02*
D03*
X31009Y49097D02*
D03*
X30991Y47144D02*
D03*
X29009Y45191D02*
D03*
X31007Y43194D02*
D03*
X29024Y43208D02*
D03*
X25095Y43209D02*
D03*
X23110Y45186D02*
D03*
X21124Y43209D02*
D03*
X27059Y43204D02*
D03*
X27055Y45190D02*
D03*
X23117Y47144D02*
D03*
X23118Y43203D02*
D03*
X19174Y43209D02*
D03*
X17213Y43197D02*
D03*
X21150Y45184D02*
D03*
X19193Y45177D02*
D03*
X17213Y45191D02*
D03*
X19181Y49122D02*
D03*
X27055Y49098D02*
D03*
X29024Y49130D02*
D03*
X9339Y43209D02*
D03*
X30992Y55027D02*
D03*
X29048Y55044D02*
D03*
X27059Y55024D02*
D03*
X25098Y51083D02*
D03*
X27059Y53047D02*
D03*
X30999Y53044D02*
D03*
X29017D02*
D03*
X19206Y55044D02*
D03*
X30959Y56994D02*
D03*
X29059Y56944D02*
D03*
X15256Y51094D02*
D03*
X19171Y51083D02*
D03*
X17210Y51086D02*
D03*
X23110Y51091D02*
D03*
X21150Y51084D02*
D03*
X5800Y100600D02*
D03*
X12300Y98900D02*
D03*
X14600Y96600D02*
D03*
X3400Y84600D02*
D03*
X3600Y90200D02*
D03*
X6395Y126500D02*
D03*
X6795Y119500D02*
D03*
X40843Y29437D02*
D03*
X23400Y22500D02*
D03*
X22289Y16611D02*
D03*
X26800Y16600D02*
D03*
X33300Y29100D02*
D03*
X35220Y29060D02*
D03*
X44000Y13700D02*
D03*
X44100Y11800D02*
D03*
X42600Y10700D02*
D03*
X47400D02*
D03*
X45600D02*
D03*
X14400Y14600D02*
D03*
X15900Y9200D02*
D03*
X3400Y10800D02*
D03*
X5500Y10600D02*
D03*
X16300Y4500D02*
D03*
X7500Y10600D02*
D03*
X44300Y16900D02*
D03*
X58000Y153500D02*
D03*
X57500Y151500D02*
D03*
X63500D02*
D03*
X64100Y139800D02*
D03*
X59800Y132500D02*
D03*
X59600Y138900D02*
D03*
X59800Y130500D02*
D03*
X47000Y138000D02*
D03*
X53900Y138100D02*
D03*
X35800Y139600D02*
D03*
X41500Y139700D02*
D03*
X32600Y136400D02*
D03*
X36300Y137000D02*
D03*
X19100Y31600D02*
D03*
X17221Y27468D02*
D03*
X5402Y37303D02*
D03*
X15289Y37348D02*
D03*
X11307Y37303D02*
D03*
Y39272D02*
D03*
X17221Y33374D02*
D03*
X19189Y29437D02*
D03*
X17100Y31400D02*
D03*
X13300Y29500D02*
D03*
X7400Y35320D02*
D03*
X7370Y37303D02*
D03*
X11307Y49114D02*
D03*
X5402Y41240D02*
D03*
X38874Y47153D02*
D03*
X43000Y23700D02*
D03*
X41200Y23600D02*
D03*
X46900Y29400D02*
D03*
X45100D02*
D03*
X45600Y23700D02*
D03*
X56800Y34800D02*
D03*
X59400Y43300D02*
D03*
X61600D02*
D03*
X49900Y36100D02*
D03*
X47400Y134100D02*
D03*
X63700Y137000D02*
D03*
X41500Y131000D02*
D03*
X38900Y121700D02*
D03*
X47500Y124000D02*
D03*
X9300Y54900D02*
D03*
X15252Y35342D02*
D03*
X15300Y33400D02*
D03*
X39700Y64300D02*
D03*
X41500Y64500D02*
D03*
X37000Y68700D02*
D03*
X34937Y60933D02*
D03*
X40843D02*
D03*
X40900Y62700D02*
D03*
X32600Y85900D02*
D03*
X29300Y79700D02*
D03*
X32368Y80200D02*
D03*
X33600Y82000D02*
D03*
X64900Y49600D02*
D03*
X18600Y800D02*
D03*
X16900D02*
D03*
X48300Y1000D02*
D03*
X64900Y32400D02*
D03*
Y34100D02*
D03*
X7200Y160300D02*
D03*
X64900Y79900D02*
D03*
X64800Y81600D02*
D03*
X1200Y81300D02*
D03*
X1600Y95400D02*
D03*
X1400Y97000D02*
D03*
X1300Y112800D02*
D03*
X1500Y111100D02*
D03*
X1300Y127000D02*
D03*
Y128600D02*
D03*
Y144400D02*
D03*
X1700Y158900D02*
D03*
X45300Y98700D02*
D03*
X48300Y80200D02*
D03*
X32000Y69500D02*
D03*
X56600Y15500D02*
D03*
X21158Y25500D02*
D03*
X21100Y22800D02*
D03*
X43700Y103700D02*
D03*
X48200Y82100D02*
D03*
X46900Y85500D02*
D03*
X5000Y16300D02*
D03*
X38000Y77500D02*
D03*
X44200Y80900D02*
D03*
X40800Y45200D02*
D03*
X18560Y8760D02*
D03*
X16400Y10900D02*
D03*
Y12600D02*
D03*
X19390Y7010D02*
D03*
X16300Y14600D02*
D03*
X52100Y22400D02*
D03*
X51800Y35900D02*
D03*
X54000Y18300D02*
D03*
X51100Y24200D02*
D03*
Y27100D02*
D03*
X18900Y22600D02*
D03*
X11315Y33374D02*
D03*
X9339Y31398D02*
D03*
X5402Y29429D02*
D03*
X7370Y27461D02*
D03*
X11307Y29429D02*
D03*
X3900Y36200D02*
D03*
X5409Y33374D02*
D03*
X9347Y51091D02*
D03*
X31300Y64200D02*
D03*
X11307Y55020D02*
D03*
X17188Y55044D02*
D03*
X6800Y16200D02*
D03*
X15252Y53059D02*
D03*
X15134Y55020D02*
D03*
X9319Y53074D02*
D03*
X11315Y51091D02*
D03*
X7370Y51083D02*
D03*
X22500Y65800D02*
D03*
X7370Y29429D02*
D03*
X18500Y17200D02*
D03*
X12600Y23100D02*
D03*
X10169Y16532D02*
D03*
X14600Y19116D02*
D03*
X10500Y18200D02*
D03*
X9500Y23700D02*
D03*
X16000Y23000D02*
D03*
X10900Y22600D02*
D03*
X7370Y25492D02*
D03*
X5402Y27461D02*
D03*
X5600Y25600D02*
D03*
X2190Y23017D02*
D03*
X1100Y79600D02*
D03*
X7500Y79200D02*
D03*
X7900Y77439D02*
D03*
X17800Y65304D02*
D03*
X17221Y56996D02*
D03*
X7300Y59000D02*
D03*
X15252Y56996D02*
D03*
X19204Y56988D02*
D03*
X25095Y56996D02*
D03*
X21110Y56994D02*
D03*
X2200Y77600D02*
D03*
X11307Y58947D02*
D03*
X8300Y75600D02*
D03*
X3642Y72802D02*
D03*
X1900Y73100D02*
D03*
X10000Y124200D02*
D03*
X9794Y122000D02*
D03*
X36900Y41200D02*
D03*
X40800D02*
D03*
X45200Y51500D02*
D03*
Y49400D02*
D03*
X38700Y39000D02*
D03*
X41000Y39200D02*
D03*
X42800Y38800D02*
D03*
X43000Y41000D02*
D03*
X18900Y64000D02*
D03*
X47000Y74600D02*
D03*
X44143Y74900D02*
D03*
X49000Y72000D02*
D03*
X50800Y72200D02*
D03*
X29400Y65851D02*
D03*
X42665Y111000D02*
D03*
X38335D02*
D03*
X63600Y156800D02*
D03*
X64300Y144500D02*
D03*
Y142835D02*
D03*
Y127000D02*
D03*
X62898Y128002D02*
D03*
X64600Y128800D02*
D03*
X64400Y112100D02*
D03*
X64100Y18600D02*
D03*
X64200Y16600D02*
D03*
X30700Y4100D02*
D03*
X32700Y1500D02*
D03*
X34600Y1600D02*
D03*
X1600Y2600D02*
D03*
X3000Y1700D02*
D03*
X1500Y16800D02*
D03*
X12100Y126400D02*
D03*
X12100Y119761D02*
D03*
X12800Y108239D02*
D03*
Y101561D02*
D03*
X30838Y105138D02*
D03*
X27400Y91700D02*
D03*
D62*
X15649Y85335D02*
D03*
Y81398D02*
D03*
Y77461D02*
D03*
X19586Y85335D02*
D03*
Y81398D02*
D03*
Y77461D02*
D03*
D66*
X59131Y147716D02*
D03*
X61100D02*
D03*
X63068D02*
D03*
X59131Y149684D02*
D03*
X61100D02*
D03*
X63068D02*
D03*
X38269Y135484D02*
D03*
X36300D02*
D03*
X34332D02*
D03*
X38269Y133516D02*
D03*
X36300D02*
D03*
X34332D02*
D03*
X61016Y134968D02*
D03*
Y133000D02*
D03*
Y131032D02*
D03*
X62984Y134968D02*
D03*
Y133000D02*
D03*
Y131032D02*
D03*
X41032Y124016D02*
D03*
X43000D02*
D03*
X44969D02*
D03*
X41032Y125984D02*
D03*
X43000D02*
D03*
X44969D02*
D03*
D67*
X61587Y156987D02*
D03*
X60013D02*
D03*
X61587Y155413D02*
D03*
X60013D02*
D03*
X52713Y133213D02*
D03*
X54287D02*
D03*
X52713Y134787D02*
D03*
X54287D02*
D03*
X61213Y138213D02*
D03*
X62787D02*
D03*
X61213Y139787D02*
D03*
X62787D02*
D03*
X50187Y124413D02*
D03*
Y125987D02*
D03*
X48613Y124413D02*
D03*
Y125987D02*
D03*
Y128913D02*
D03*
X50187D02*
D03*
X48613Y130487D02*
D03*
X50187D02*
D03*
X42787Y133813D02*
D03*
Y135387D02*
D03*
X41213Y133813D02*
D03*
Y135387D02*
D03*
X50287Y134787D02*
D03*
X48713D02*
D03*
X50287Y133213D02*
D03*
X48713D02*
D03*
X58287D02*
D03*
Y134787D02*
D03*
X56713Y133213D02*
D03*
Y134787D02*
D03*
D68*
X57181Y77400D02*
D03*
Y87400D02*
D03*
Y97400D02*
D03*
D69*
X60400Y20232D02*
D03*
Y22594D02*
D03*
Y24957D02*
D03*
Y27319D02*
D03*
Y36768D02*
D03*
Y34405D02*
D03*
Y29681D02*
D03*
Y32043D02*
D03*
D70*
X27386Y93445D02*
D03*
Y94705D02*
D03*
X12100Y122291D02*
D03*
Y121031D02*
D03*
X12100Y125130D02*
D03*
Y123870D02*
D03*
X12800Y104091D02*
D03*
Y102831D02*
D03*
Y106969D02*
D03*
Y105709D02*
D03*
D71*
X32609Y130909D02*
D03*
X31719Y130019D02*
D03*
X35500Y131400D02*
D03*
X34609Y130509D02*
D03*
D72*
X33091Y106400D02*
D03*
X31831D02*
D03*
X36730Y111000D02*
D03*
X35470D02*
D03*
M02*
