%FSLAX25Y25*%
%MOIN*%
G70*
G01*
G75*
G04 Layer_Color=8388736*
%ADD10R,0.05906X0.05118*%
G04:AMPARAMS|DCode=11|XSize=25.59mil|YSize=23.62mil|CornerRadius=5.91mil|HoleSize=0mil|Usage=FLASHONLY|Rotation=180.000|XOffset=0mil|YOffset=0mil|HoleType=Round|Shape=RoundedRectangle|*
%AMROUNDEDRECTD11*
21,1,0.02559,0.01181,0,0,180.0*
21,1,0.01378,0.02362,0,0,180.0*
1,1,0.01181,-0.00689,0.00591*
1,1,0.01181,0.00689,0.00591*
1,1,0.01181,0.00689,-0.00591*
1,1,0.01181,-0.00689,-0.00591*
%
%ADD11ROUNDEDRECTD11*%
G04:AMPARAMS|DCode=12|XSize=25.59mil|YSize=23.62mil|CornerRadius=5.91mil|HoleSize=0mil|Usage=FLASHONLY|Rotation=270.000|XOffset=0mil|YOffset=0mil|HoleType=Round|Shape=RoundedRectangle|*
%AMROUNDEDRECTD12*
21,1,0.02559,0.01181,0,0,270.0*
21,1,0.01378,0.02362,0,0,270.0*
1,1,0.01181,-0.00591,-0.00689*
1,1,0.01181,-0.00591,0.00689*
1,1,0.01181,0.00591,0.00689*
1,1,0.01181,0.00591,-0.00689*
%
%ADD12ROUNDEDRECTD12*%
%ADD13R,0.00866X0.01024*%
%ADD14R,0.01024X0.00866*%
%ADD15R,0.05118X0.05906*%
G04:AMPARAMS|DCode=16|XSize=15.75mil|YSize=17.72mil|CornerRadius=3.94mil|HoleSize=0mil|Usage=FLASHONLY|Rotation=180.000|XOffset=0mil|YOffset=0mil|HoleType=Round|Shape=RoundedRectangle|*
%AMROUNDEDRECTD16*
21,1,0.01575,0.00984,0,0,180.0*
21,1,0.00787,0.01772,0,0,180.0*
1,1,0.00787,-0.00394,0.00492*
1,1,0.00787,0.00394,0.00492*
1,1,0.00787,0.00394,-0.00492*
1,1,0.00787,-0.00394,-0.00492*
%
%ADD16ROUNDEDRECTD16*%
%ADD17C,0.00984*%
%ADD18R,0.02756X0.01575*%
%ADD19R,0.02362X0.01969*%
%ADD20R,0.01654X0.01811*%
%ADD21R,0.03937X0.04331*%
%ADD22R,0.01575X0.02756*%
G04:AMPARAMS|DCode=23|XSize=15.75mil|YSize=17.72mil|CornerRadius=3.94mil|HoleSize=0mil|Usage=FLASHONLY|Rotation=270.000|XOffset=0mil|YOffset=0mil|HoleType=Round|Shape=RoundedRectangle|*
%AMROUNDEDRECTD23*
21,1,0.01575,0.00984,0,0,270.0*
21,1,0.00787,0.01772,0,0,270.0*
1,1,0.00787,-0.00492,-0.00394*
1,1,0.00787,-0.00492,0.00394*
1,1,0.00787,0.00492,0.00394*
1,1,0.00787,0.00492,-0.00394*
%
%ADD23ROUNDEDRECTD23*%
%ADD24R,0.01811X0.01654*%
%ADD25O,0.03347X0.01102*%
%ADD26O,0.01102X0.03347*%
%ADD27R,0.01181X0.01181*%
%ADD28R,0.06496X0.17323*%
%ADD29R,0.02559X0.00984*%
%ADD30R,0.01772X0.01772*%
%ADD31C,0.01082*%
%ADD32R,0.02658X0.00984*%
%ADD33R,0.02402X0.05591*%
%ADD34R,0.09843X0.06299*%
%ADD35R,0.00984X0.01969*%
G04:AMPARAMS|DCode=36|XSize=70.87mil|YSize=51.18mil|CornerRadius=12.8mil|HoleSize=0mil|Usage=FLASHONLY|Rotation=0.000|XOffset=0mil|YOffset=0mil|HoleType=Round|Shape=RoundedRectangle|*
%AMROUNDEDRECTD36*
21,1,0.07087,0.02559,0,0,0.0*
21,1,0.04528,0.05118,0,0,0.0*
1,1,0.02559,0.02264,-0.01280*
1,1,0.02559,-0.02264,-0.01280*
1,1,0.02559,-0.02264,0.01280*
1,1,0.02559,0.02264,0.01280*
%
%ADD36ROUNDEDRECTD36*%
%ADD37C,0.01181*%
%ADD38R,0.01181X0.03937*%
%ADD39R,0.09449X0.01181*%
%ADD40R,0.05512X0.06693*%
%ADD41R,0.01000X0.11811*%
%ADD42R,0.03937X0.01000*%
%ADD43R,0.11811X0.01000*%
%ADD44R,0.01969X0.03937*%
%ADD45R,0.03937X0.01969*%
%ADD46R,0.02362X0.02756*%
%ADD47R,0.01969X0.04724*%
%ADD48C,0.00800*%
%ADD49C,0.00500*%
%ADD50C,0.01000*%
%ADD51C,0.00400*%
%ADD52C,0.01200*%
%ADD53C,0.01500*%
%ADD54C,0.00900*%
%ADD55C,0.00600*%
%ADD56C,0.02000*%
%ADD57C,0.00700*%
%ADD58O,0.08000X0.07500*%
%ADD59C,0.07480*%
%ADD60C,0.08000*%
%ADD61C,0.01200*%
%ADD62C,0.01969*%
%ADD63C,0.08200*%
%ADD64C,0.02200*%
%ADD65C,0.02600*%
%ADD66C,0.01024*%
%ADD67C,0.00807*%
%ADD68R,0.12000X0.06000*%
%ADD69R,0.03937X0.01575*%
%ADD70R,0.00886X0.00709*%
G04:AMPARAMS|DCode=71|XSize=8.86mil|YSize=7.09mil|CornerRadius=0mil|HoleSize=0mil|Usage=FLASHONLY|Rotation=135.000|XOffset=0mil|YOffset=0mil|HoleType=Round|Shape=Rectangle|*
%AMROTATEDRECTD71*
4,1,4,0.00564,-0.00063,0.00063,-0.00564,-0.00564,0.00063,-0.00063,0.00564,0.00564,-0.00063,0.0*
%
%ADD71ROTATEDRECTD71*%

%ADD72R,0.00709X0.00886*%
%ADD73R,0.03228X0.05197*%
%ADD74R,0.03228X0.05197*%
%ADD75R,0.00906X0.03543*%
%ADD76C,0.01339*%
%ADD77C,0.00394*%
%ADD78C,0.00984*%
%ADD79C,0.00591*%
%ADD80C,0.00197*%
%ADD81C,0.00098*%
%ADD82C,0.00472*%
%ADD83C,0.00787*%
%ADD84R,0.01824X0.01666*%
%ADD85R,0.01666X0.01824*%
%ADD86C,0.02000*%
G36*
X43146Y84307D02*
X40981D01*
Y87653D01*
X46493D01*
X43146Y84307D01*
D02*
G37*
G36*
X38619D02*
X36454D01*
X33107Y87653D01*
X38619D01*
Y84307D01*
D02*
G37*
G36*
X19155Y87402D02*
X21655D01*
Y75394D01*
X19155D01*
Y70964D01*
X18250D01*
Y73819D01*
X16990D01*
Y70964D01*
X16085D01*
Y75394D01*
X13585D01*
Y87402D01*
X16085D01*
Y91831D01*
X16990D01*
Y88976D01*
X18250D01*
Y91831D01*
X19155D01*
Y87402D01*
D02*
G37*
G36*
X46493Y94346D02*
X40981D01*
Y97693D01*
X43146D01*
X46493Y94346D01*
D02*
G37*
G36*
X38620Y94327D02*
X33127D01*
X36473Y97673D01*
X38620D01*
Y94327D01*
D02*
G37*
D10*
X60600Y94440D02*
D03*
Y86960D02*
D03*
X52600Y108640D02*
D03*
Y101160D02*
D03*
X60300D02*
D03*
Y108640D02*
D03*
D11*
X60500Y152532D02*
D03*
Y156468D02*
D03*
X57300Y130332D02*
D03*
Y134268D02*
D03*
X62000Y134268D02*
D03*
Y130332D02*
D03*
X48500Y25168D02*
D03*
Y21231D02*
D03*
X46500Y4532D02*
D03*
Y8468D02*
D03*
Y16969D02*
D03*
Y13032D02*
D03*
X12500Y16532D02*
D03*
Y20469D02*
D03*
X42000D02*
D03*
Y16532D02*
D03*
X54000Y24468D02*
D03*
Y20531D02*
D03*
D12*
X62868Y148600D02*
D03*
X58931D02*
D03*
X32469Y20000D02*
D03*
X28532D02*
D03*
X20031D02*
D03*
X23968D02*
D03*
X55231Y46300D02*
D03*
X59168D02*
D03*
X46668Y101700D02*
D03*
X42731D02*
D03*
X34231Y134300D02*
D03*
X38168D02*
D03*
X41131Y133400D02*
D03*
X45068D02*
D03*
X45169Y123800D02*
D03*
X41232D02*
D03*
X32368Y77700D02*
D03*
X28431D02*
D03*
X3272Y82640D02*
D03*
X7209D02*
D03*
X48031Y46300D02*
D03*
X51968D02*
D03*
X45268Y127300D02*
D03*
X41331D02*
D03*
D13*
X53900Y134406D02*
D03*
Y132595D02*
D03*
X45700Y76406D02*
D03*
Y74594D02*
D03*
D14*
X50106Y129500D02*
D03*
X48294D02*
D03*
X52306Y70500D02*
D03*
X50494D02*
D03*
X56305Y70400D02*
D03*
X54495D02*
D03*
X8100Y121100D02*
D03*
X6289D02*
D03*
X3494Y66800D02*
D03*
X5305D02*
D03*
X6389Y124900D02*
D03*
X8200D02*
D03*
X44894Y38700D02*
D03*
X46705D02*
D03*
Y40800D02*
D03*
X44894D02*
D03*
X8405Y3500D02*
D03*
X6594D02*
D03*
D15*
X50760Y31000D02*
D03*
X58240D02*
D03*
X51960Y116200D02*
D03*
X59440D02*
D03*
Y123300D02*
D03*
X51960D02*
D03*
X51960Y10500D02*
D03*
X59440D02*
D03*
X60940Y39400D02*
D03*
X53460D02*
D03*
D16*
X5807Y88484D02*
D03*
Y91240D02*
D03*
X63100Y56122D02*
D03*
Y58878D02*
D03*
Y52078D02*
D03*
Y49322D02*
D03*
X45200Y71078D02*
D03*
Y68322D02*
D03*
X29100Y88978D02*
D03*
Y86222D02*
D03*
X5807Y98327D02*
D03*
Y95571D02*
D03*
X63000Y66978D02*
D03*
Y64222D02*
D03*
D17*
X10587Y67587D02*
D03*
Y66013D02*
D03*
X9013Y67587D02*
D03*
Y66013D02*
D03*
X13313D02*
D03*
Y67587D02*
D03*
X14887Y66013D02*
D03*
Y67587D02*
D03*
X40843Y25500D02*
D03*
X38874D02*
D03*
X36906D02*
D03*
X34937D02*
D03*
X32969D02*
D03*
X31000D02*
D03*
X29032D02*
D03*
X27063D02*
D03*
X25095D02*
D03*
X23126D02*
D03*
X21158D02*
D03*
X19189D02*
D03*
X17221D02*
D03*
X15252D02*
D03*
X13284D02*
D03*
X11315D02*
D03*
X9347D02*
D03*
X7378D02*
D03*
X5409D02*
D03*
X40843Y27468D02*
D03*
X38874D02*
D03*
X36906D02*
D03*
X34937D02*
D03*
X32969D02*
D03*
X31000D02*
D03*
X29032D02*
D03*
X27063D02*
D03*
X25095D02*
D03*
X23126D02*
D03*
X21158D02*
D03*
X19189D02*
D03*
X17221D02*
D03*
X15252D02*
D03*
X13284D02*
D03*
X11315D02*
D03*
X9347D02*
D03*
X7378D02*
D03*
X5409D02*
D03*
X40843Y29437D02*
D03*
X38874D02*
D03*
X36906D02*
D03*
X34937D02*
D03*
X32969D02*
D03*
X31000D02*
D03*
X29032D02*
D03*
X27063D02*
D03*
X25095D02*
D03*
X23126D02*
D03*
X21158D02*
D03*
X19189D02*
D03*
X17221D02*
D03*
X15252D02*
D03*
X13284D02*
D03*
X11315D02*
D03*
X9347D02*
D03*
X7378D02*
D03*
X5409D02*
D03*
X40843Y31405D02*
D03*
X38874D02*
D03*
X36906D02*
D03*
X34937D02*
D03*
X11315D02*
D03*
X9347D02*
D03*
X7378D02*
D03*
X5409D02*
D03*
X40843Y33374D02*
D03*
X38874D02*
D03*
X36906D02*
D03*
X34937D02*
D03*
X31000D02*
D03*
X29032D02*
D03*
X27063D02*
D03*
X25095D02*
D03*
X23126D02*
D03*
X21158D02*
D03*
X19189D02*
D03*
X17221D02*
D03*
X15252D02*
D03*
X11315D02*
D03*
X9347D02*
D03*
X7378D02*
D03*
X5409D02*
D03*
X40843Y35342D02*
D03*
X38874D02*
D03*
X36906D02*
D03*
X34937D02*
D03*
X31000D02*
D03*
X29032D02*
D03*
X27063D02*
D03*
X25095D02*
D03*
X23126D02*
D03*
X21158D02*
D03*
X19189D02*
D03*
X17221D02*
D03*
X15252D02*
D03*
X11315D02*
D03*
X9347D02*
D03*
X7378D02*
D03*
X5409D02*
D03*
X40843Y37311D02*
D03*
X38874D02*
D03*
X36906D02*
D03*
X34937D02*
D03*
X31000D02*
D03*
X29032D02*
D03*
X27063D02*
D03*
X25095D02*
D03*
X23126D02*
D03*
X21158D02*
D03*
X19189D02*
D03*
X17221D02*
D03*
X15252D02*
D03*
X11315D02*
D03*
X9347D02*
D03*
X7378D02*
D03*
X5409D02*
D03*
X40843Y39279D02*
D03*
X38874D02*
D03*
X36906D02*
D03*
X34937D02*
D03*
X31000D02*
D03*
X29032D02*
D03*
X27063D02*
D03*
X25095D02*
D03*
X23126D02*
D03*
X21158D02*
D03*
X19189D02*
D03*
X17221D02*
D03*
X15252D02*
D03*
X11315D02*
D03*
X9347D02*
D03*
X7378D02*
D03*
X5409D02*
D03*
X40843Y41248D02*
D03*
X38874D02*
D03*
X36906D02*
D03*
X34937D02*
D03*
X31000D02*
D03*
X29032D02*
D03*
X27063D02*
D03*
X25095D02*
D03*
X23126D02*
D03*
X21158D02*
D03*
X19189D02*
D03*
X17221D02*
D03*
X15252D02*
D03*
X11315D02*
D03*
X9347D02*
D03*
X7378D02*
D03*
X5409D02*
D03*
X40843Y43216D02*
D03*
X38874D02*
D03*
X36906D02*
D03*
X34937D02*
D03*
X31000D02*
D03*
X29032D02*
D03*
X27063D02*
D03*
X25095D02*
D03*
X23126D02*
D03*
X21158D02*
D03*
X19189D02*
D03*
X17221D02*
D03*
X15252D02*
D03*
X11315D02*
D03*
X9347D02*
D03*
X7378D02*
D03*
X5409D02*
D03*
X40843Y45185D02*
D03*
X38874D02*
D03*
X36906D02*
D03*
X34937D02*
D03*
X31000D02*
D03*
X29032D02*
D03*
X27063D02*
D03*
X25095D02*
D03*
X23126D02*
D03*
X21158D02*
D03*
X19189D02*
D03*
X17221D02*
D03*
X15252D02*
D03*
X11315D02*
D03*
X9347D02*
D03*
X7378D02*
D03*
X5409D02*
D03*
X40843Y47153D02*
D03*
X38874D02*
D03*
X36906D02*
D03*
X34937D02*
D03*
X31000D02*
D03*
X29032D02*
D03*
X27063D02*
D03*
X25095D02*
D03*
X23126D02*
D03*
X21158D02*
D03*
X19189D02*
D03*
X17221D02*
D03*
X15252D02*
D03*
X11315D02*
D03*
X9347D02*
D03*
X7378D02*
D03*
X5409D02*
D03*
X40843Y49122D02*
D03*
X38874D02*
D03*
X36906D02*
D03*
X34937D02*
D03*
X31000D02*
D03*
X29032D02*
D03*
X27063D02*
D03*
X25095D02*
D03*
X23126D02*
D03*
X21158D02*
D03*
X19189D02*
D03*
X17221D02*
D03*
X15252D02*
D03*
X11315D02*
D03*
X9347D02*
D03*
X7378D02*
D03*
X5409D02*
D03*
X40843Y51091D02*
D03*
X38874D02*
D03*
X36906D02*
D03*
X34937D02*
D03*
X31000D02*
D03*
X29032D02*
D03*
X27063D02*
D03*
X25095D02*
D03*
X23126D02*
D03*
X21158D02*
D03*
X19189D02*
D03*
X17221D02*
D03*
X15252D02*
D03*
X11315D02*
D03*
X9347D02*
D03*
X7378D02*
D03*
X5409D02*
D03*
X40843Y53059D02*
D03*
X38874D02*
D03*
X36906D02*
D03*
X34937D02*
D03*
X31000D02*
D03*
X29032D02*
D03*
X27063D02*
D03*
X25095D02*
D03*
X23126D02*
D03*
X21158D02*
D03*
X19189D02*
D03*
X17221D02*
D03*
X15252D02*
D03*
X11315D02*
D03*
X9347D02*
D03*
X7378D02*
D03*
X5409D02*
D03*
X40843Y55028D02*
D03*
X38874D02*
D03*
X36906D02*
D03*
X34937D02*
D03*
X32969D02*
D03*
X31000D02*
D03*
X29032D02*
D03*
X27063D02*
D03*
X25095D02*
D03*
X23126D02*
D03*
X21158D02*
D03*
X19189D02*
D03*
X17221D02*
D03*
X15252D02*
D03*
X13284D02*
D03*
X11315D02*
D03*
X9347D02*
D03*
X7378D02*
D03*
X5409D02*
D03*
X40843Y56996D02*
D03*
X38874D02*
D03*
X36906D02*
D03*
X34937D02*
D03*
X32969D02*
D03*
X31000D02*
D03*
X29032D02*
D03*
X27063D02*
D03*
X25095D02*
D03*
X23126D02*
D03*
X21158D02*
D03*
X19189D02*
D03*
X17221D02*
D03*
X15252D02*
D03*
X13284D02*
D03*
X11315D02*
D03*
X9347D02*
D03*
X7378D02*
D03*
X5409D02*
D03*
X40843Y58965D02*
D03*
X38874D02*
D03*
X36906D02*
D03*
X34937D02*
D03*
X32969D02*
D03*
X31000D02*
D03*
X29032D02*
D03*
X27063D02*
D03*
X25095D02*
D03*
X23126D02*
D03*
X21158D02*
D03*
X19189D02*
D03*
X17221D02*
D03*
X15252D02*
D03*
X13284D02*
D03*
X11315D02*
D03*
X9347D02*
D03*
X7378D02*
D03*
X5409D02*
D03*
X40843Y60933D02*
D03*
X38874D02*
D03*
X36906D02*
D03*
X34937D02*
D03*
X32969D02*
D03*
X31000D02*
D03*
X29032D02*
D03*
X27063D02*
D03*
X25095D02*
D03*
X23126D02*
D03*
X21158D02*
D03*
X19189D02*
D03*
X17221D02*
D03*
X15252D02*
D03*
X13284D02*
D03*
X11315D02*
D03*
X9347D02*
D03*
X7378D02*
D03*
X5409D02*
D03*
X6016Y6416D02*
D03*
Y8384D02*
D03*
X7984Y6416D02*
D03*
Y8384D02*
D03*
D18*
X62300Y79222D02*
D03*
Y81978D02*
D03*
X62400Y73122D02*
D03*
Y75878D02*
D03*
D19*
X37500Y20968D02*
D03*
Y17031D02*
D03*
X16000D02*
D03*
Y20968D02*
D03*
D20*
X3300Y5801D02*
D03*
Y8399D02*
D03*
X24100Y65501D02*
D03*
Y68099D02*
D03*
X35100Y102599D02*
D03*
Y100001D02*
D03*
X46200Y79201D02*
D03*
Y81799D02*
D03*
D21*
X12500Y11347D02*
D03*
Y4654D02*
D03*
X35800Y121754D02*
D03*
Y128446D02*
D03*
D22*
X6398Y75161D02*
D03*
X3642D02*
D03*
X3722Y70800D02*
D03*
X6478D02*
D03*
D23*
X17378Y94500D02*
D03*
X14622D02*
D03*
X28622Y71400D02*
D03*
X31378D02*
D03*
Y74500D02*
D03*
X28622D02*
D03*
X3122Y79500D02*
D03*
X5878D02*
D03*
D24*
X58801Y70400D02*
D03*
X61399D02*
D03*
X31299Y81800D02*
D03*
X28701D02*
D03*
D25*
X24409Y74508D02*
D03*
Y76477D02*
D03*
Y78445D02*
D03*
Y80414D02*
D03*
Y82382D02*
D03*
Y84351D02*
D03*
Y86319D02*
D03*
Y88288D02*
D03*
X10826D02*
D03*
Y86319D02*
D03*
Y84351D02*
D03*
Y82382D02*
D03*
Y80414D02*
D03*
Y78445D02*
D03*
Y76477D02*
D03*
Y74508D02*
D03*
D26*
X20571Y90158D02*
D03*
X14665D02*
D03*
Y72638D02*
D03*
X20571D02*
D03*
D27*
X17618Y81398D02*
D03*
D28*
X53900Y58500D02*
D03*
D29*
X48290Y51610D02*
D03*
Y53579D02*
D03*
Y55547D02*
D03*
Y57516D02*
D03*
Y59484D02*
D03*
Y61453D02*
D03*
Y63421D02*
D03*
Y65390D02*
D03*
X59510D02*
D03*
Y63421D02*
D03*
Y61453D02*
D03*
Y59484D02*
D03*
Y57516D02*
D03*
Y55547D02*
D03*
Y53579D02*
D03*
Y51610D02*
D03*
D30*
X9646Y98721D02*
D03*
Y95965D02*
D03*
D31*
X58500Y22000D02*
D03*
X59484Y20295D02*
D03*
X57516D02*
D03*
X59484Y23705D02*
D03*
X57516D02*
D03*
D32*
X50717Y75731D02*
D03*
Y77700D02*
D03*
Y79668D02*
D03*
X57883D02*
D03*
Y77700D02*
D03*
Y75731D02*
D03*
D33*
X54300Y77700D02*
D03*
D34*
X40500Y111000D02*
D03*
D35*
X36563Y116020D02*
D03*
X38138D02*
D03*
X39713D02*
D03*
X41287D02*
D03*
X42862D02*
D03*
X44437D02*
D03*
Y105980D02*
D03*
X42862D02*
D03*
X41287D02*
D03*
X39713D02*
D03*
X38138D02*
D03*
X36563D02*
D03*
D36*
X52000Y85263D02*
D03*
Y93137D02*
D03*
D37*
X39000Y12437D02*
D03*
X42150Y8500D02*
D03*
X35850D02*
D03*
X42150Y12437D02*
D03*
Y4563D02*
D03*
X35850Y12437D02*
D03*
Y4563D02*
D03*
X39000Y8500D02*
D03*
D38*
X28839Y13484D02*
D03*
X25689D02*
D03*
X22539D02*
D03*
X19390D02*
D03*
Y4035D02*
D03*
X22539D02*
D03*
X25689D02*
D03*
X28839D02*
D03*
D39*
X24114Y8760D02*
D03*
D40*
X35863Y91000D02*
D03*
X43737D02*
D03*
D41*
X591Y9744D02*
D03*
Y25492D02*
D03*
Y41240D02*
D03*
Y56988D02*
D03*
Y72736D02*
D03*
Y88484D02*
D03*
Y104232D02*
D03*
Y119980D02*
D03*
Y135728D02*
D03*
Y151476D02*
D03*
X65354D02*
D03*
Y135728D02*
D03*
Y119980D02*
D03*
Y104232D02*
D03*
Y88484D02*
D03*
Y72736D02*
D03*
Y56988D02*
D03*
Y41240D02*
D03*
Y25492D02*
D03*
Y9744D02*
D03*
D42*
X3937Y160728D02*
D03*
X59547D02*
D03*
D43*
X41339Y492D02*
D03*
X25591D02*
D03*
X9843D02*
D03*
D44*
X33500Y139500D02*
D03*
X39169D02*
D03*
X44839D02*
D03*
X50508D02*
D03*
X56177D02*
D03*
D45*
X60400Y145100D02*
D03*
D46*
X3635Y13444D02*
D03*
Y18956D02*
D03*
X7965D02*
D03*
Y13444D02*
D03*
D47*
X39500Y80840D02*
D03*
X42059Y73360D02*
D03*
X36941D02*
D03*
D48*
X0Y-31403D02*
X3999D01*
X1999D01*
Y-37402D01*
X6998D02*
X8997D01*
X9997Y-36402D01*
Y-34402D01*
X8997Y-33403D01*
X6998D01*
X5998Y-34402D01*
Y-36402D01*
X6998Y-37402D01*
X11996Y-39401D02*
Y-33403D01*
X14995D01*
X15995Y-34402D01*
Y-36402D01*
X14995Y-37402D01*
X11996D01*
X27991Y-32403D02*
X26991Y-31403D01*
X24992D01*
X23992Y-32403D01*
Y-33403D01*
X24992Y-34402D01*
X26991D01*
X27991Y-35402D01*
Y-36402D01*
X26991Y-37402D01*
X24992D01*
X23992Y-36402D01*
X30990Y-37402D02*
X32989D01*
X33989Y-36402D01*
Y-34402D01*
X32989Y-33403D01*
X30990D01*
X29990Y-34402D01*
Y-36402D01*
X30990Y-37402D01*
X35988D02*
X37988D01*
X36988D01*
Y-31403D01*
X35988D01*
X44985D02*
Y-37402D01*
X41986D01*
X40987Y-36402D01*
Y-34402D01*
X41986Y-33403D01*
X44985D01*
X49984Y-37402D02*
X47984D01*
X46985Y-36402D01*
Y-34402D01*
X47984Y-33403D01*
X49984D01*
X50984Y-34402D01*
Y-35402D01*
X46985D01*
X52983Y-33403D02*
Y-37402D01*
Y-35402D01*
X53983Y-34402D01*
X54982Y-33403D01*
X55982D01*
D58*
X27386Y100370D02*
D03*
Y109425D02*
D03*
Y118480D02*
D03*
Y127535D02*
D03*
Y136590D02*
D03*
D59*
X18331D02*
D03*
D60*
Y127535D02*
D03*
Y118480D02*
D03*
Y109425D02*
D03*
Y100370D02*
D03*
D62*
X15649Y85335D02*
D03*
Y81398D02*
D03*
Y77461D02*
D03*
X19586Y85335D02*
D03*
Y81398D02*
D03*
Y77461D02*
D03*
D84*
X41006Y66200D02*
D03*
X39195D02*
D03*
X41006Y69200D02*
D03*
X39195D02*
D03*
D85*
X45100Y62094D02*
D03*
Y63906D02*
D03*
D86*
X57600Y143300D02*
D03*
M02*
