%FSLAX25Y25*%
%MOIN*%
G70*
G01*
G75*
G04 Layer_Physical_Order=3*
G04 Layer_Color=36540*
%ADD10R,0.05906X0.05118*%
G04:AMPARAMS|DCode=11|XSize=25.59mil|YSize=23.62mil|CornerRadius=5.91mil|HoleSize=0mil|Usage=FLASHONLY|Rotation=180.000|XOffset=0mil|YOffset=0mil|HoleType=Round|Shape=RoundedRectangle|*
%AMROUNDEDRECTD11*
21,1,0.02559,0.01181,0,0,180.0*
21,1,0.01378,0.02362,0,0,180.0*
1,1,0.01181,-0.00689,0.00591*
1,1,0.01181,0.00689,0.00591*
1,1,0.01181,0.00689,-0.00591*
1,1,0.01181,-0.00689,-0.00591*
%
%ADD11ROUNDEDRECTD11*%
G04:AMPARAMS|DCode=12|XSize=25.59mil|YSize=23.62mil|CornerRadius=5.91mil|HoleSize=0mil|Usage=FLASHONLY|Rotation=270.000|XOffset=0mil|YOffset=0mil|HoleType=Round|Shape=RoundedRectangle|*
%AMROUNDEDRECTD12*
21,1,0.02559,0.01181,0,0,270.0*
21,1,0.01378,0.02362,0,0,270.0*
1,1,0.01181,-0.00591,-0.00689*
1,1,0.01181,-0.00591,0.00689*
1,1,0.01181,0.00591,0.00689*
1,1,0.01181,0.00591,-0.00689*
%
%ADD12ROUNDEDRECTD12*%
%ADD13R,0.00866X0.01024*%
%ADD14R,0.01024X0.00866*%
%ADD15R,0.05118X0.05906*%
G04:AMPARAMS|DCode=16|XSize=15.75mil|YSize=17.72mil|CornerRadius=3.94mil|HoleSize=0mil|Usage=FLASHONLY|Rotation=180.000|XOffset=0mil|YOffset=0mil|HoleType=Round|Shape=RoundedRectangle|*
%AMROUNDEDRECTD16*
21,1,0.01575,0.00984,0,0,180.0*
21,1,0.00787,0.01772,0,0,180.0*
1,1,0.00787,-0.00394,0.00492*
1,1,0.00787,0.00394,0.00492*
1,1,0.00787,0.00394,-0.00492*
1,1,0.00787,-0.00394,-0.00492*
%
%ADD16ROUNDEDRECTD16*%
%ADD17C,0.00984*%
%ADD18R,0.02756X0.01575*%
%ADD19R,0.02362X0.01969*%
%ADD20R,0.01654X0.01811*%
%ADD21R,0.03937X0.04331*%
%ADD22R,0.01575X0.02756*%
G04:AMPARAMS|DCode=23|XSize=15.75mil|YSize=17.72mil|CornerRadius=3.94mil|HoleSize=0mil|Usage=FLASHONLY|Rotation=270.000|XOffset=0mil|YOffset=0mil|HoleType=Round|Shape=RoundedRectangle|*
%AMROUNDEDRECTD23*
21,1,0.01575,0.00984,0,0,270.0*
21,1,0.00787,0.01772,0,0,270.0*
1,1,0.00787,-0.00492,-0.00394*
1,1,0.00787,-0.00492,0.00394*
1,1,0.00787,0.00492,0.00394*
1,1,0.00787,0.00492,-0.00394*
%
%ADD23ROUNDEDRECTD23*%
%ADD24R,0.01811X0.01654*%
%ADD25O,0.03347X0.01102*%
%ADD26O,0.01102X0.03347*%
%ADD27R,0.01181X0.01181*%
%ADD28R,0.06496X0.17323*%
%ADD29R,0.02559X0.00984*%
%ADD30R,0.01772X0.01772*%
%ADD31C,0.01082*%
%ADD32R,0.02658X0.00984*%
%ADD33R,0.02402X0.05591*%
%ADD34R,0.09843X0.06299*%
%ADD35R,0.00984X0.01969*%
G04:AMPARAMS|DCode=36|XSize=70.87mil|YSize=51.18mil|CornerRadius=12.8mil|HoleSize=0mil|Usage=FLASHONLY|Rotation=0.000|XOffset=0mil|YOffset=0mil|HoleType=Round|Shape=RoundedRectangle|*
%AMROUNDEDRECTD36*
21,1,0.07087,0.02559,0,0,0.0*
21,1,0.04528,0.05118,0,0,0.0*
1,1,0.02559,0.02264,-0.01280*
1,1,0.02559,-0.02264,-0.01280*
1,1,0.02559,-0.02264,0.01280*
1,1,0.02559,0.02264,0.01280*
%
%ADD36ROUNDEDRECTD36*%
%ADD37C,0.01181*%
%ADD38R,0.01181X0.03937*%
%ADD39R,0.09449X0.01181*%
%ADD40R,0.05512X0.06693*%
%ADD41R,0.01000X0.11811*%
%ADD42R,0.03937X0.01000*%
%ADD43R,0.11811X0.01000*%
%ADD44R,0.01969X0.03937*%
%ADD45R,0.03937X0.01969*%
%ADD46R,0.02362X0.02756*%
%ADD47R,0.01969X0.04724*%
%ADD48C,0.00800*%
%ADD49C,0.00500*%
%ADD50C,0.01000*%
%ADD51C,0.00400*%
%ADD52C,0.01200*%
%ADD53C,0.01500*%
%ADD54C,0.00900*%
%ADD55C,0.00600*%
%ADD56C,0.02000*%
%ADD57C,0.00700*%
%ADD58O,0.08000X0.07500*%
%ADD59C,0.07480*%
%ADD60C,0.08000*%
%ADD61C,0.01200*%
%ADD62C,0.01969*%
%ADD63C,0.08200*%
%ADD64C,0.02200*%
G36*
X45571Y107115D02*
X45559Y106995D01*
X45407Y106893D01*
X45164Y106529D01*
X45078Y106100D01*
X45164Y105671D01*
X45407Y105307D01*
X45771Y105064D01*
X45892Y104771D01*
X45864Y104729D01*
X45778Y104300D01*
X45864Y103871D01*
X46107Y103507D01*
X46471Y103264D01*
X46900Y103178D01*
X47329Y103264D01*
X47329Y103264D01*
X47329Y103264D01*
X47759Y103178D01*
X47807Y103107D01*
X48171Y102864D01*
X48600Y102778D01*
X48999Y102858D01*
X49385Y102541D01*
Y100659D01*
X48999Y100342D01*
X48600Y100422D01*
X48171Y100336D01*
X47807Y100093D01*
X47564Y99729D01*
X47478Y99300D01*
X47564Y98871D01*
X47807Y98507D01*
X48171Y98264D01*
X48171Y98264D01*
X48007Y97993D01*
X48007Y97993D01*
X48007D01*
X47764Y97629D01*
X47743Y97526D01*
X47281Y97334D01*
X47129Y97436D01*
X46700Y97522D01*
X46271Y97436D01*
X45907Y97193D01*
X45664Y96829D01*
X45578Y96400D01*
X45664Y95971D01*
X45907Y95607D01*
X46271Y95364D01*
X46700Y95278D01*
X47129Y95364D01*
X47493Y95607D01*
X47736Y95971D01*
X47757Y96074D01*
X48219Y96266D01*
X48371Y96164D01*
X48800Y96078D01*
X48999Y96118D01*
X49385Y95801D01*
Y94500D01*
X49200D01*
X47400Y92700D01*
X44500Y89800D01*
X38800D01*
X35000Y93600D01*
X34400Y94200D01*
X25100D01*
X23000Y96300D01*
Y102600D01*
X25100Y104700D01*
X29807D01*
X30045Y104345D01*
X30409Y104102D01*
X30838Y104016D01*
X31267Y104102D01*
X31631Y104345D01*
X31868Y104700D01*
X37200D01*
X40000Y107500D01*
X45454D01*
X45571Y107115D01*
D02*
G37*
%LPC*%
G36*
X37200Y101722D02*
X36771Y101636D01*
X36407Y101393D01*
X36164Y101029D01*
X36078Y100600D01*
X36164Y100171D01*
X36407Y99807D01*
X36771Y99564D01*
X37200Y99478D01*
X37629Y99564D01*
X37993Y99807D01*
X38236Y100171D01*
X38322Y100600D01*
X38236Y101029D01*
X37993Y101393D01*
X37629Y101636D01*
X37200Y101722D01*
D02*
G37*
%LPD*%
D48*
X58700Y50600D02*
X62200Y54100D01*
X58700Y47300D02*
Y50600D01*
X54900Y43500D02*
X58700Y47300D01*
X51415Y32015D02*
X54900Y35500D01*
Y43500D01*
X37724Y28924D02*
Y29854D01*
X35400Y26600D02*
X37724Y28924D01*
X31700Y30600D02*
X33300Y32200D01*
X34800Y36400D02*
Y38400D01*
X33200Y43879D02*
X34721Y45400D01*
X35305D01*
X32400Y26600D02*
X35400D01*
X31700Y27300D02*
X32400Y26600D01*
X31700Y27300D02*
Y30600D01*
X33300Y32200D02*
Y34900D01*
X34800Y36400D01*
X33200Y40000D02*
X34800Y38400D01*
X33200Y40000D02*
Y43879D01*
X35305Y45400D02*
X36906Y47001D01*
Y47153D01*
X37724Y29854D02*
X39885Y32015D01*
X51415D01*
X3999Y-36340D02*
X2999Y-35340D01*
X1000D01*
X0Y-36340D01*
Y-37340D01*
X1000Y-38340D01*
X2999D01*
X3999Y-39339D01*
Y-40339D01*
X2999Y-41339D01*
X1000D01*
X0Y-40339D01*
X5998Y-35340D02*
X7997D01*
X6998D01*
Y-41339D01*
X5998D01*
X7997D01*
X14995Y-36340D02*
X13995Y-35340D01*
X11996D01*
X10996Y-36340D01*
Y-40339D01*
X11996Y-41339D01*
X13995D01*
X14995Y-40339D01*
Y-38340D01*
X12996D01*
X16995Y-41339D02*
X18994D01*
X17994D01*
Y-35340D01*
X16995Y-36340D01*
X21993Y-42338D02*
X25992D01*
X27991Y-35340D02*
Y-41339D01*
X31990D01*
X33989D02*
Y-37340D01*
X35988Y-35340D01*
X37988Y-37340D01*
Y-41339D01*
Y-38340D01*
X33989D01*
X39987Y-35340D02*
Y-36340D01*
X41986Y-38340D01*
X43986Y-36340D01*
Y-35340D01*
X41986Y-38340D02*
Y-41339D01*
X49984Y-35340D02*
X45985D01*
Y-41339D01*
X49984D01*
X45985Y-38340D02*
X47984D01*
X51983Y-41339D02*
Y-35340D01*
X54982D01*
X55982Y-36340D01*
Y-38340D01*
X54982Y-39339D01*
X51983D01*
X53983D02*
X55982Y-41339D01*
X57981Y-36340D02*
X58981Y-35340D01*
X60980D01*
X61980Y-36340D01*
Y-37340D01*
X60980Y-38340D01*
X59981D01*
X60980D01*
X61980Y-39339D01*
Y-40339D01*
X60980Y-41339D01*
X58981D01*
X57981Y-40339D01*
D49*
X61800Y155000D02*
X63600Y156800D01*
X61800Y129900D02*
Y155000D01*
X50952Y128152D02*
X51500Y128700D01*
X41500Y120700D02*
Y131000D01*
X46150Y124559D02*
X47291Y125700D01*
X49952D01*
X51952Y117200D02*
Y122452D01*
X57500Y128000D01*
X5000Y39000D02*
X7700D01*
X2543Y41457D02*
Y49043D01*
Y41457D02*
X5000Y39000D01*
X3052Y24825D02*
Y32371D01*
Y33442D01*
X4600Y34991D01*
X3052Y24825D02*
X7977Y19900D01*
X20500Y9100D02*
X22539Y7061D01*
X20500Y9100D02*
Y12500D01*
X16700Y16300D02*
X20500Y12500D01*
X14900Y16300D02*
X16700D01*
X11300Y19900D02*
X14900Y16300D01*
X7977Y19900D02*
X11300D01*
X1800Y49786D02*
X2543Y49043D01*
X2200Y62500D02*
Y69600D01*
X1800Y49786D02*
Y62100D01*
X2200Y62500D01*
X3060Y61906D02*
X3200Y62047D01*
Y64600D01*
Y67200D01*
Y64177D02*
Y64600D01*
X1800Y49786D02*
X1950Y49636D01*
X2800Y59400D02*
Y60000D01*
Y50200D02*
Y59400D01*
X4059Y54940D02*
Y61492D01*
Y54940D02*
X4892Y54108D01*
X2800Y50200D02*
X5200Y47800D01*
X50150Y89241D02*
Y105350D01*
X44050Y55100D02*
Y64873D01*
X9300Y55030D02*
X12657Y58387D01*
X14005Y60300D02*
X24500D01*
X8717Y61508D02*
X10509Y63300D01*
X8717Y57781D02*
Y61508D01*
X9717Y57367D02*
Y61026D01*
X12250Y62150D02*
X13000Y61400D01*
X11500Y62150D02*
X12250D01*
X11500D02*
X12048D01*
X10841D02*
X11500D01*
X12657Y58952D02*
X14005Y60300D01*
X9717Y61026D02*
X10841Y62150D01*
X14320Y59200D02*
X25300D01*
X13657Y58538D02*
X14320Y59200D01*
X12657Y58387D02*
Y58952D01*
X10509Y63300D02*
X12514D01*
X6200Y62900D02*
Y64800D01*
X5600Y62300D02*
X6200Y62900D01*
X7000Y69300D02*
X9100Y67200D01*
X3200D02*
X5400Y69400D01*
X4867Y62300D02*
X5600D01*
X4059Y61492D02*
X4867Y62300D01*
X44450Y53641D02*
X45241Y52850D01*
X41464Y34050D02*
X47850Y40436D01*
Y43836D01*
X46850Y40850D02*
Y44250D01*
X43300Y37300D02*
X46850Y40850D01*
X41209Y43700D02*
X42250Y44741D01*
X40300Y43700D02*
X41209D01*
X38900Y45100D02*
X40300Y43700D01*
X41473Y42550D02*
X43250Y44327D01*
X39450Y42550D02*
X41473D01*
X48500Y44486D02*
Y53509D01*
X46150Y52850D02*
X47500Y51500D01*
X45241Y52850D02*
X46150D01*
X43250Y44327D02*
Y54127D01*
X42250Y44741D02*
Y53712D01*
X38493Y55800D02*
X41250Y53043D01*
X37100Y55400D02*
X40250Y52250D01*
Y48541D02*
Y52250D01*
X47500Y44900D02*
Y51500D01*
X44450Y53641D02*
Y54700D01*
X44050Y55100D02*
X44450Y54700D01*
X43050Y54327D02*
Y60635D01*
Y54327D02*
X43250Y54127D01*
X38874Y47165D02*
X40250Y48541D01*
X46850Y44250D02*
X47500Y44900D01*
X47850Y43836D02*
X48500Y44486D01*
X38700Y37300D02*
X43300D01*
X39492Y56470D02*
X42250Y53712D01*
X21750Y67350D02*
X22459D01*
X11700Y67800D02*
X14196Y65304D01*
X23250Y68850D02*
X28332Y73932D01*
X23250Y68141D02*
Y68850D01*
X22459Y67350D02*
X23250Y68141D01*
X20800Y66400D02*
X21750Y67350D01*
X24250Y67950D02*
X27400Y71100D01*
X24250Y62650D02*
Y67950D01*
X23000Y61400D02*
X24250Y62650D01*
X32400Y68150D02*
X34541D01*
X31441D02*
X32400D01*
X34541D02*
X41291Y74900D01*
X44143D01*
X14196Y65304D02*
X17800D01*
X6000Y48414D02*
X6714Y47700D01*
X6000Y48414D02*
Y50300D01*
X4700Y46100D02*
X6752Y44048D01*
X3900Y46100D02*
X4700D01*
X3800Y71200D02*
X5700D01*
X2200Y69600D02*
X3800Y71200D01*
X6811Y56370D02*
X7306D01*
X8717Y57781D01*
X11700Y67800D02*
Y68400D01*
X10200Y71200D02*
X11700Y69700D01*
Y68400D02*
Y69700D01*
Y68400D02*
Y68700D01*
X12514Y63300D02*
X13414Y62400D01*
X3800Y71200D02*
X10200D01*
X6400Y72200D02*
X11200D01*
X4100Y74500D02*
X6400Y72200D01*
X6473Y46527D02*
X12173D01*
X12665Y46035D01*
Y32044D02*
X15891Y28819D01*
X8500Y98000D02*
Y120095D01*
X4295Y124300D02*
X8500Y120095D01*
X43300Y65623D02*
X44050Y64873D01*
X38874Y27468D02*
Y29378D01*
X40283Y30787D01*
X38749Y43251D02*
X39450Y42550D01*
X36906Y35485D02*
Y37311D01*
Y35485D02*
X38341Y34050D01*
X41464D01*
X10831Y27468D02*
X17221D01*
X6000Y95500D02*
X8500Y98000D01*
X4295Y124300D02*
Y125600D01*
X6752Y41548D02*
X9800Y38500D01*
X18571Y28819D02*
X19189Y29437D01*
X15891Y28819D02*
X18571D01*
X5200Y47800D02*
X5847Y47153D01*
X5200Y47800D02*
X6473Y46527D01*
X9898Y32748D02*
X10689Y31957D01*
Y30839D02*
Y31957D01*
X9800Y32795D02*
Y38500D01*
X9957Y28343D02*
X10831Y27468D01*
X12700Y47700D02*
X13665Y46735D01*
X6714Y47700D02*
X12700D01*
X38874Y22826D02*
Y25500D01*
Y22826D02*
X40650Y21050D01*
X40843Y27468D02*
X42711Y25600D01*
X62800D02*
X63400Y25000D01*
X42711Y25600D02*
X62800D01*
X40283Y30787D02*
X61887D01*
X63200Y32100D01*
X8800Y34800D02*
Y37900D01*
X7700Y39000D02*
X8800Y37900D01*
X7989Y33989D02*
X8800Y34800D01*
X49200Y109000D02*
X49600Y108600D01*
X46600Y111600D02*
X49600Y108600D01*
X49952Y125700D02*
X50952Y126700D01*
Y128152D01*
X49200Y110414D02*
Y113291D01*
X49650Y113741D01*
Y114898D01*
X51952Y117200D01*
X50214Y110814D02*
Y112891D01*
X50650Y113327D01*
Y114484D02*
X52952Y116786D01*
X50650Y113327D02*
Y114484D01*
X52952Y121052D02*
X61800Y129900D01*
X45300Y110200D02*
Y118700D01*
X49100Y85500D02*
Y86777D01*
X47241Y87750D02*
X48659D01*
X51300Y85700D02*
X53150Y87550D01*
Y107878D01*
X50300Y86562D02*
X52150Y88412D01*
Y107464D01*
X49100Y86777D02*
X51150Y88827D01*
Y107050D01*
X48659Y87750D02*
X50150Y89241D01*
X50214Y110814D02*
X53150Y107878D01*
X49200Y110414D02*
X52150Y107464D01*
X45300Y110200D02*
X50150Y105350D01*
X49600Y108600D02*
X51150Y107050D01*
X46600Y111600D02*
Y117000D01*
Y121800D01*
Y117000D02*
Y118700D01*
X46150Y122250D02*
X46600Y121800D01*
X46150Y122250D02*
Y124559D01*
X41500Y120700D02*
X42200Y120000D01*
X44000D01*
X45300Y118700D01*
X7400Y54900D02*
Y54990D01*
X7370Y55020D02*
X7400Y54990D01*
X7370Y55020D02*
X9717Y57367D01*
X17704Y65304D02*
X17800D01*
X40900Y62700D02*
X40985D01*
X43050Y60635D01*
X50300Y80291D02*
Y86562D01*
X20539Y26118D02*
X21158Y25500D01*
X19200Y20900D02*
X21100Y22800D01*
X26642Y70342D02*
X27400Y71100D01*
X46550Y82950D02*
X49100Y85500D01*
X45550Y86059D02*
X47241Y87750D01*
X46550Y79636D02*
Y82950D01*
X30132Y71932D02*
X34968D01*
X33800Y72932D02*
X36650Y75782D01*
X37441Y78850D02*
X38559D01*
X38659Y78750D01*
X28332Y73932D02*
X33132D01*
X35650Y78473D02*
X37027Y79850D01*
X36650Y78059D02*
X37441Y78850D01*
X33132Y73932D02*
X35650Y76450D01*
Y78473D01*
X36650Y75782D02*
Y78059D01*
X45550Y80050D02*
Y86059D01*
X45164Y78250D02*
X46550Y79636D01*
X44750Y79250D02*
X45550Y80050D01*
X44000Y74900D02*
X44143D01*
X51300Y79877D02*
Y85700D01*
X37027Y79850D02*
X42800D01*
X43400Y79250D02*
X44750D01*
X42800Y79850D02*
X43400Y79250D01*
X10767Y26118D02*
X20539D01*
X24500Y60300D02*
X25700Y61500D01*
X9300Y54900D02*
Y55030D01*
X4600Y34991D02*
X5250Y35641D01*
X13665Y32458D02*
Y46735D01*
X12665Y32044D02*
Y46035D01*
X9957Y28343D02*
Y30107D01*
X10689Y30839D01*
X8720Y28166D02*
X10767Y26118D01*
X25300Y59200D02*
X26878Y60778D01*
X25700Y67500D02*
X30132Y71932D01*
X25700Y61500D02*
Y67500D01*
X47259Y77250D02*
X50300Y80291D01*
X40700Y76250D02*
X47673D01*
X51300Y79877D01*
X38559Y78850D02*
X39159Y78250D01*
X45164D01*
X40286Y77250D02*
X47259D01*
X34968Y71932D02*
X40286Y77250D01*
X35350Y70900D02*
X40700Y76250D01*
X6020Y55579D02*
X6811Y56370D01*
X9319Y53074D02*
X11774D01*
X6752Y41548D02*
Y44048D01*
X27400Y71100D02*
X29232Y72932D01*
X33800D01*
X6000Y84500D02*
Y95500D01*
X7989Y30720D02*
Y33989D01*
Y30720D02*
X8720Y29988D01*
Y28166D02*
Y29988D01*
X8391Y20900D02*
X19200D01*
X4052Y25239D02*
X8391Y20900D01*
X38493Y55800D02*
Y63407D01*
X37100Y55400D02*
Y62300D01*
X13000Y61400D02*
X23000D01*
X4100Y82600D02*
X6000Y84500D01*
X4100Y74500D02*
Y82600D01*
X11200Y72200D02*
X11600Y71800D01*
X19100Y31491D02*
Y31600D01*
X17659Y30050D02*
X19100Y31491D01*
X17100Y30050D02*
X17659D01*
X13665Y32458D02*
X16073Y30050D01*
X17100D01*
X5402Y35792D02*
Y37303D01*
X4815Y35206D02*
X5402Y35792D01*
X4052Y25239D02*
Y30700D01*
Y31957D01*
Y30700D02*
Y32016D01*
X5409Y33374D01*
X6020Y54417D02*
Y55579D01*
X11774Y53074D02*
X13657Y54957D01*
Y58538D01*
X9200Y63900D02*
Y67100D01*
X8637Y67663D02*
X9200Y67100D01*
X5400Y69400D02*
X6200D01*
X6900D01*
X7421Y68879D01*
X39492Y56470D02*
Y64092D01*
X39700Y64300D01*
X43300Y65623D02*
Y68000D01*
X31300Y64200D02*
X35200D01*
X37100Y62300D01*
X36049Y65851D02*
X38493Y63407D01*
X52952Y116786D02*
Y121052D01*
X40650Y21050D02*
X51100D01*
X52659D01*
X51100D02*
X62750D01*
X64750Y23050D02*
Y28450D01*
X62750Y21050D02*
X64750Y23050D01*
X63500Y29700D02*
X64750Y28450D01*
X41250Y45650D02*
Y53043D01*
X40800Y45200D02*
X41250Y45650D01*
X45800Y55900D02*
X46109D01*
X48500Y53509D01*
X2800Y60000D02*
Y60600D01*
Y61600D01*
Y60600D02*
Y61647D01*
X3176Y62024D01*
X20800Y63500D02*
Y66400D01*
X13414Y62400D02*
X19700D01*
X20800Y63500D01*
X30986Y70900D02*
X35350D01*
X26878Y60778D02*
Y66792D01*
X29650Y68150D02*
X32400D01*
X26878Y66792D02*
X30986Y70900D01*
X29400Y65851D02*
X36049D01*
X28050Y63441D02*
Y66550D01*
Y63441D02*
X28895Y62595D01*
X28050Y66550D02*
X29650Y68150D01*
D50*
X51500Y70500D02*
X61500D01*
X62400Y69600D01*
X63600D01*
X61500Y70500D02*
X62300Y69700D01*
X50800Y71200D02*
X51500Y70500D01*
X50800Y71200D02*
Y72200D01*
X44200Y80900D02*
Y81600D01*
X10826Y90300D02*
X25600D01*
X26000Y89900D01*
X35900D01*
X44200Y81600D01*
D51*
X6000Y50300D02*
Y53000D01*
X6020Y54417D02*
X7378Y53059D01*
X4892Y54108D02*
X6000Y53000D01*
D52*
X39100Y131400D02*
X39300D01*
X34100Y136400D02*
X39100Y131400D01*
X32600Y136400D02*
X34100D01*
X20700Y74400D02*
X21582Y75282D01*
X30682D01*
X33600Y82000D02*
X34069Y81532D01*
X30682Y75282D02*
X34069Y78668D01*
Y81532D01*
X7500Y79200D02*
X10800D01*
X15600Y74400D01*
X20700D01*
D53*
X13900Y71300D02*
Y72300D01*
X13200Y70600D02*
X13900Y71300D01*
X13200Y69300D02*
Y70600D01*
X12500Y73700D02*
X13900Y72300D01*
X10200Y73700D02*
X12500D01*
X18080Y93500D02*
X19700Y95120D01*
X9700Y93500D02*
X18080D01*
X8100Y91900D02*
X9700Y93500D01*
X28750Y80250D02*
X29300Y79700D01*
X28750Y80250D02*
Y84566D01*
X27416Y85900D02*
X28750Y84566D01*
X27100Y85900D02*
X27416D01*
X8100Y84000D02*
Y91900D01*
X10200Y73700D02*
X11400D01*
X5650Y81550D02*
X8100Y84000D01*
X7200Y73700D02*
X10200D01*
X5650Y75250D02*
Y81550D01*
Y75250D02*
X7200Y73700D01*
D58*
X27386Y100370D02*
D03*
D61*
X51500Y128700D02*
D03*
X6202Y64802D02*
D03*
X9200Y63900D02*
D03*
X45800Y55900D02*
D03*
X28895Y62595D02*
D03*
X3900Y46100D02*
D03*
X7378Y53059D02*
D03*
X7400Y54900D02*
D03*
X11600Y71800D02*
D03*
X13200Y69300D02*
D03*
X63400Y25000D02*
D03*
X63500Y29700D02*
D03*
X63200Y32100D02*
D03*
X36906Y47153D02*
D03*
X38749Y43251D02*
D03*
X43300Y68000D02*
D03*
X36906Y37311D02*
D03*
X38700Y37300D02*
D03*
X38900Y45100D02*
D03*
X38874Y25500D02*
D03*
X40843Y27468D02*
D03*
X10826Y90300D02*
D03*
X62200Y54100D02*
D03*
X63600Y69600D02*
D03*
X19700Y95120D02*
D03*
X27100Y85900D02*
D03*
X39300Y131400D02*
D03*
X57500Y128000D02*
D03*
X22539Y7061D02*
D03*
X38874Y27468D02*
D03*
X4295Y125600D02*
D03*
X32600Y136400D02*
D03*
X19100Y31600D02*
D03*
X17221Y27468D02*
D03*
X5402Y37303D02*
D03*
X19189Y29437D02*
D03*
X38874Y47153D02*
D03*
X41500Y131000D02*
D03*
X9300Y54900D02*
D03*
X39700Y64300D02*
D03*
X40900Y62700D02*
D03*
X29300Y79700D02*
D03*
X33600Y82000D02*
D03*
X45300Y98700D02*
D03*
X21158Y25500D02*
D03*
X21100Y22800D02*
D03*
X43700Y103700D02*
D03*
X44200Y80900D02*
D03*
X40800Y45200D02*
D03*
X5409Y33374D02*
D03*
X31300Y64200D02*
D03*
X9319Y53074D02*
D03*
X7500Y79200D02*
D03*
X17800Y65304D02*
D03*
X44143Y74900D02*
D03*
X50800Y72200D02*
D03*
X29400Y65851D02*
D03*
X63600Y156800D02*
D03*
M02*
