%FSLAX25Y25*%
%MOIN*%
G70*
G01*
G75*
G04 Layer_Physical_Order=1*
G04 Layer_Color=255*
%ADD10R,0.05906X0.05118*%
G04:AMPARAMS|DCode=11|XSize=25.59mil|YSize=23.62mil|CornerRadius=5.91mil|HoleSize=0mil|Usage=FLASHONLY|Rotation=180.000|XOffset=0mil|YOffset=0mil|HoleType=Round|Shape=RoundedRectangle|*
%AMROUNDEDRECTD11*
21,1,0.02559,0.01181,0,0,180.0*
21,1,0.01378,0.02362,0,0,180.0*
1,1,0.01181,-0.00689,0.00591*
1,1,0.01181,0.00689,0.00591*
1,1,0.01181,0.00689,-0.00591*
1,1,0.01181,-0.00689,-0.00591*
%
%ADD11ROUNDEDRECTD11*%
G04:AMPARAMS|DCode=12|XSize=25.59mil|YSize=23.62mil|CornerRadius=5.91mil|HoleSize=0mil|Usage=FLASHONLY|Rotation=270.000|XOffset=0mil|YOffset=0mil|HoleType=Round|Shape=RoundedRectangle|*
%AMROUNDEDRECTD12*
21,1,0.02559,0.01181,0,0,270.0*
21,1,0.01378,0.02362,0,0,270.0*
1,1,0.01181,-0.00591,-0.00689*
1,1,0.01181,-0.00591,0.00689*
1,1,0.01181,0.00591,0.00689*
1,1,0.01181,0.00591,-0.00689*
%
%ADD12ROUNDEDRECTD12*%
%ADD13R,0.00866X0.01024*%
%ADD14R,0.01024X0.00866*%
%ADD15R,0.05118X0.05906*%
G04:AMPARAMS|DCode=16|XSize=15.75mil|YSize=17.72mil|CornerRadius=3.94mil|HoleSize=0mil|Usage=FLASHONLY|Rotation=180.000|XOffset=0mil|YOffset=0mil|HoleType=Round|Shape=RoundedRectangle|*
%AMROUNDEDRECTD16*
21,1,0.01575,0.00984,0,0,180.0*
21,1,0.00787,0.01772,0,0,180.0*
1,1,0.00787,-0.00394,0.00492*
1,1,0.00787,0.00394,0.00492*
1,1,0.00787,0.00394,-0.00492*
1,1,0.00787,-0.00394,-0.00492*
%
%ADD16ROUNDEDRECTD16*%
%ADD17C,0.00984*%
%ADD18R,0.02756X0.01575*%
%ADD19R,0.02362X0.01969*%
%ADD20R,0.01654X0.01811*%
%ADD21R,0.03937X0.04331*%
%ADD22R,0.01575X0.02756*%
G04:AMPARAMS|DCode=23|XSize=15.75mil|YSize=17.72mil|CornerRadius=3.94mil|HoleSize=0mil|Usage=FLASHONLY|Rotation=270.000|XOffset=0mil|YOffset=0mil|HoleType=Round|Shape=RoundedRectangle|*
%AMROUNDEDRECTD23*
21,1,0.01575,0.00984,0,0,270.0*
21,1,0.00787,0.01772,0,0,270.0*
1,1,0.00787,-0.00492,-0.00394*
1,1,0.00787,-0.00492,0.00394*
1,1,0.00787,0.00492,0.00394*
1,1,0.00787,0.00492,-0.00394*
%
%ADD23ROUNDEDRECTD23*%
%ADD24R,0.01811X0.01654*%
%ADD25O,0.03347X0.01102*%
%ADD26O,0.01102X0.03347*%
%ADD27R,0.01181X0.01181*%
%ADD28R,0.06496X0.17323*%
%ADD29R,0.02559X0.00984*%
%ADD30R,0.01772X0.01772*%
%ADD31C,0.01082*%
%ADD32R,0.02658X0.00984*%
%ADD33R,0.02402X0.05591*%
%ADD34R,0.09843X0.06299*%
%ADD35R,0.00984X0.01969*%
G04:AMPARAMS|DCode=36|XSize=70.87mil|YSize=51.18mil|CornerRadius=12.8mil|HoleSize=0mil|Usage=FLASHONLY|Rotation=0.000|XOffset=0mil|YOffset=0mil|HoleType=Round|Shape=RoundedRectangle|*
%AMROUNDEDRECTD36*
21,1,0.07087,0.02559,0,0,0.0*
21,1,0.04528,0.05118,0,0,0.0*
1,1,0.02559,0.02264,-0.01280*
1,1,0.02559,-0.02264,-0.01280*
1,1,0.02559,-0.02264,0.01280*
1,1,0.02559,0.02264,0.01280*
%
%ADD36ROUNDEDRECTD36*%
%ADD37C,0.01181*%
%ADD38R,0.01181X0.03937*%
%ADD39R,0.09449X0.01181*%
%ADD40R,0.05512X0.06693*%
%ADD41R,0.01000X0.11811*%
%ADD42R,0.03937X0.01000*%
%ADD43R,0.11811X0.01000*%
%ADD44R,0.01969X0.03937*%
%ADD45R,0.03937X0.01969*%
%ADD46R,0.02362X0.02756*%
%ADD47R,0.01969X0.04724*%
%ADD48C,0.00800*%
%ADD49C,0.00500*%
%ADD50C,0.01000*%
%ADD51C,0.00400*%
%ADD52C,0.01200*%
%ADD53C,0.01500*%
%ADD54C,0.00900*%
%ADD55C,0.00600*%
%ADD56C,0.02000*%
%ADD57C,0.00700*%
%ADD58O,0.08000X0.07500*%
%ADD59C,0.07480*%
%ADD60C,0.08000*%
%ADD61C,0.01200*%
%ADD62C,0.01969*%
G36*
X48100Y18300D02*
Y16300D01*
X47700Y15900D01*
X47200Y15400D01*
X41000D01*
X40700Y15700D01*
X38000D01*
X37200Y14900D01*
Y11100D01*
Y3800D01*
X36500Y3100D01*
X33600D01*
X33400Y3300D01*
Y11200D01*
Y15700D01*
X35000Y17300D01*
X35600Y17900D01*
X43300D01*
X43400Y18000D01*
X44200Y18800D01*
X47600D01*
X48100Y18300D01*
D02*
G37*
G36*
X53500Y33800D02*
Y29700D01*
Y28300D01*
X53200Y28000D01*
X53100Y27900D01*
X45100D01*
X44300Y28700D01*
X44100Y28900D01*
Y30500D01*
Y32100D01*
X44800Y32800D01*
X46200Y34200D01*
X53100D01*
X53500Y33800D01*
D02*
G37*
G36*
X56200Y42200D02*
Y38500D01*
Y36700D01*
X55800Y36300D01*
X54400Y34900D01*
X49600D01*
X48900Y35600D01*
X48800Y35700D01*
Y36900D01*
Y37000D01*
X49000Y37200D01*
X49200Y37400D01*
X50500D01*
X51000Y37900D01*
Y40800D01*
Y42000D01*
X51400Y42400D01*
X56000D01*
X56200Y42200D01*
D02*
G37*
G36*
X17100Y6700D02*
Y2800D01*
X16600Y2300D01*
X10600D01*
X10400Y2500D01*
Y4479D01*
X10401Y4495D01*
X10400Y4510D01*
Y6700D01*
X10500Y6800D01*
X10900Y7200D01*
X16600D01*
X17100Y6700D01*
D02*
G37*
G36*
X48100Y14200D02*
X48500Y13800D01*
Y7700D01*
X48100Y7300D01*
X44900D01*
X44400Y7800D01*
Y8400D01*
Y9400D01*
X43900Y9900D01*
X42000D01*
X41900Y10000D01*
X41500Y10400D01*
Y11600D01*
Y14200D01*
X41800Y14500D01*
X47800D01*
X48100Y14200D01*
D02*
G37*
G36*
X17500Y14500D02*
Y9300D01*
X16700Y8500D01*
X11000D01*
X10200Y9300D01*
X9900Y9600D01*
X7300D01*
X6800Y9100D01*
Y7600D01*
X6600Y7400D01*
X6193D01*
X6016Y7435D01*
X5838Y7400D01*
X2300D01*
Y14800D01*
X2600Y15100D01*
X6692D01*
X6800Y15078D01*
X6908Y15100D01*
X11107D01*
X11385Y14914D01*
X11811Y14829D01*
X13189D01*
X13614Y14914D01*
X13893Y15100D01*
X16900D01*
X17500Y14500D01*
D02*
G37*
G36*
X19153Y87402D02*
X21653D01*
Y75394D01*
X19153D01*
Y70965D01*
X18248D01*
Y73819D01*
X16988D01*
Y70965D01*
X16082D01*
Y75394D01*
X13582D01*
Y87402D01*
X16082D01*
Y91831D01*
X16988D01*
Y88977D01*
X18248D01*
Y91831D01*
X19153D01*
Y87402D01*
D02*
G37*
G36*
X38619Y94346D02*
X33107D01*
X36454Y97693D01*
X38619D01*
Y94346D01*
D02*
G37*
G36*
X46493D02*
X40981D01*
Y97693D01*
X43146D01*
X46493Y94346D01*
D02*
G37*
G36*
X63100Y43800D02*
Y40100D01*
Y36800D01*
X62400Y36100D01*
X61200Y34900D01*
Y30200D01*
Y28400D01*
X60700Y27900D01*
X55700D01*
X55500Y28100D01*
X55400Y28200D01*
Y34400D01*
X56800Y35800D01*
X57500Y36500D01*
Y37600D01*
Y43800D01*
X57900Y44200D01*
X58200Y44500D01*
X58573D01*
X58578Y44499D01*
X59759D01*
X59764Y44500D01*
X62400D01*
X63100Y43800D01*
D02*
G37*
G36*
X38619Y84307D02*
X36454D01*
X33107Y87653D01*
X38619D01*
Y84307D01*
D02*
G37*
G36*
X43146D02*
X40981D01*
Y87653D01*
X46493D01*
X43146Y84307D01*
D02*
G37*
D10*
X60600Y94440D02*
D03*
Y86960D02*
D03*
X52600Y108640D02*
D03*
Y101160D02*
D03*
X60300D02*
D03*
Y108640D02*
D03*
D11*
X60500Y152532D02*
D03*
Y156468D02*
D03*
X57300Y130332D02*
D03*
Y134268D02*
D03*
X62000Y134268D02*
D03*
Y130332D02*
D03*
X48500Y25168D02*
D03*
Y21231D02*
D03*
X46500Y4532D02*
D03*
Y8468D02*
D03*
Y16969D02*
D03*
Y13032D02*
D03*
X12500Y16532D02*
D03*
Y20469D02*
D03*
X42000D02*
D03*
Y16532D02*
D03*
X54000Y24468D02*
D03*
Y20531D02*
D03*
D12*
X62868Y148600D02*
D03*
X58931D02*
D03*
X32469Y20000D02*
D03*
X28532D02*
D03*
X20031D02*
D03*
X23968D02*
D03*
X55231Y46300D02*
D03*
X59168D02*
D03*
X46668Y101700D02*
D03*
X42731D02*
D03*
X34231Y134300D02*
D03*
X38168D02*
D03*
X41131Y133400D02*
D03*
X45068D02*
D03*
X45169Y123800D02*
D03*
X41232D02*
D03*
X32368Y77700D02*
D03*
X28431D02*
D03*
X3272Y82640D02*
D03*
X7209D02*
D03*
X48031Y46300D02*
D03*
X51968D02*
D03*
X45268Y127300D02*
D03*
X41331D02*
D03*
D13*
X53900Y134406D02*
D03*
Y132595D02*
D03*
X45700Y76406D02*
D03*
Y74594D02*
D03*
X45100Y62094D02*
D03*
Y63906D02*
D03*
D14*
X50106Y129500D02*
D03*
X48294D02*
D03*
X52306Y70500D02*
D03*
X50494D02*
D03*
X56305Y70400D02*
D03*
X54495D02*
D03*
X8100Y121100D02*
D03*
X6289D02*
D03*
X3494Y66800D02*
D03*
X5305D02*
D03*
X6389Y124900D02*
D03*
X8200D02*
D03*
X44894Y38700D02*
D03*
X46705D02*
D03*
Y40800D02*
D03*
X44894D02*
D03*
X8405Y3500D02*
D03*
X6594D02*
D03*
X41006Y66200D02*
D03*
X39195D02*
D03*
X41006Y69200D02*
D03*
X39195D02*
D03*
D15*
X50760Y31000D02*
D03*
X58240D02*
D03*
X51960Y116200D02*
D03*
X59440D02*
D03*
Y123300D02*
D03*
X51960D02*
D03*
X51960Y10500D02*
D03*
X59440D02*
D03*
X60940Y39400D02*
D03*
X53460D02*
D03*
D16*
X5807Y88484D02*
D03*
Y91240D02*
D03*
X63100Y56122D02*
D03*
Y58878D02*
D03*
Y52078D02*
D03*
Y49322D02*
D03*
X45200Y71078D02*
D03*
Y68322D02*
D03*
X29100Y88978D02*
D03*
Y86222D02*
D03*
X5807Y98327D02*
D03*
Y95571D02*
D03*
X63000Y66978D02*
D03*
Y64222D02*
D03*
D17*
X10587Y67587D02*
D03*
Y66013D02*
D03*
X9013Y67587D02*
D03*
Y66013D02*
D03*
X13313D02*
D03*
Y67587D02*
D03*
X14887Y66013D02*
D03*
Y67587D02*
D03*
X40843Y25500D02*
D03*
X38874D02*
D03*
X36906D02*
D03*
X34937D02*
D03*
X32969D02*
D03*
X31000D02*
D03*
X29032D02*
D03*
X27063D02*
D03*
X25095D02*
D03*
X23126D02*
D03*
X21158D02*
D03*
X19189D02*
D03*
X17221D02*
D03*
X15252D02*
D03*
X13284D02*
D03*
X11315D02*
D03*
X9347D02*
D03*
X7378D02*
D03*
X5409D02*
D03*
X40843Y27468D02*
D03*
X38874D02*
D03*
X36906D02*
D03*
X34937D02*
D03*
X32969D02*
D03*
X31000D02*
D03*
X29032D02*
D03*
X27063D02*
D03*
X25095D02*
D03*
X23126D02*
D03*
X21158D02*
D03*
X19189D02*
D03*
X17221D02*
D03*
X15252D02*
D03*
X13284D02*
D03*
X11315D02*
D03*
X9347D02*
D03*
X7378D02*
D03*
X5409D02*
D03*
X40843Y29437D02*
D03*
X38874D02*
D03*
X36906D02*
D03*
X34937D02*
D03*
X32969D02*
D03*
X31000D02*
D03*
X29032D02*
D03*
X27063D02*
D03*
X25095D02*
D03*
X23126D02*
D03*
X21158D02*
D03*
X19189D02*
D03*
X17221D02*
D03*
X15252D02*
D03*
X13284D02*
D03*
X11315D02*
D03*
X9347D02*
D03*
X7378D02*
D03*
X5409D02*
D03*
X40843Y31405D02*
D03*
X38874D02*
D03*
X36906D02*
D03*
X34937D02*
D03*
X11315D02*
D03*
X9347D02*
D03*
X7378D02*
D03*
X5409D02*
D03*
X40843Y33374D02*
D03*
X38874D02*
D03*
X36906D02*
D03*
X34937D02*
D03*
X31000D02*
D03*
X29032D02*
D03*
X27063D02*
D03*
X25095D02*
D03*
X23126D02*
D03*
X21158D02*
D03*
X19189D02*
D03*
X17221D02*
D03*
X15252D02*
D03*
X11315D02*
D03*
X9347D02*
D03*
X7378D02*
D03*
X5409D02*
D03*
X40843Y35342D02*
D03*
X38874D02*
D03*
X36906D02*
D03*
X34937D02*
D03*
X31000D02*
D03*
X29032D02*
D03*
X27063D02*
D03*
X25095D02*
D03*
X23126D02*
D03*
X21158D02*
D03*
X19189D02*
D03*
X17221D02*
D03*
X15252D02*
D03*
X11315D02*
D03*
X9347D02*
D03*
X7378D02*
D03*
X5409D02*
D03*
X40843Y37311D02*
D03*
X38874D02*
D03*
X36906D02*
D03*
X34937D02*
D03*
X31000D02*
D03*
X29032D02*
D03*
X27063D02*
D03*
X25095D02*
D03*
X23126D02*
D03*
X21158D02*
D03*
X19189D02*
D03*
X17221D02*
D03*
X15252D02*
D03*
X11315D02*
D03*
X9347D02*
D03*
X7378D02*
D03*
X5409D02*
D03*
X40843Y39279D02*
D03*
X38874D02*
D03*
X36906D02*
D03*
X34937D02*
D03*
X31000D02*
D03*
X29032D02*
D03*
X27063D02*
D03*
X25095D02*
D03*
X23126D02*
D03*
X21158D02*
D03*
X19189D02*
D03*
X17221D02*
D03*
X15252D02*
D03*
X11315D02*
D03*
X9347D02*
D03*
X7378D02*
D03*
X5409D02*
D03*
X40843Y41248D02*
D03*
X38874D02*
D03*
X36906D02*
D03*
X34937D02*
D03*
X31000D02*
D03*
X29032D02*
D03*
X27063D02*
D03*
X25095D02*
D03*
X23126D02*
D03*
X21158D02*
D03*
X19189D02*
D03*
X17221D02*
D03*
X15252D02*
D03*
X11315D02*
D03*
X9347D02*
D03*
X7378D02*
D03*
X5409D02*
D03*
X40843Y43216D02*
D03*
X38874D02*
D03*
X36906D02*
D03*
X34937D02*
D03*
X31000D02*
D03*
X29032D02*
D03*
X27063D02*
D03*
X25095D02*
D03*
X23126D02*
D03*
X21158D02*
D03*
X19189D02*
D03*
X17221D02*
D03*
X15252D02*
D03*
X11315D02*
D03*
X9347D02*
D03*
X7378D02*
D03*
X5409D02*
D03*
X40843Y45185D02*
D03*
X38874D02*
D03*
X36906D02*
D03*
X34937D02*
D03*
X31000D02*
D03*
X29032D02*
D03*
X27063D02*
D03*
X25095D02*
D03*
X23126D02*
D03*
X21158D02*
D03*
X19189D02*
D03*
X17221D02*
D03*
X15252D02*
D03*
X11315D02*
D03*
X9347D02*
D03*
X7378D02*
D03*
X5409D02*
D03*
X40843Y47153D02*
D03*
X38874D02*
D03*
X36906D02*
D03*
X34937D02*
D03*
X31000D02*
D03*
X29032D02*
D03*
X27063D02*
D03*
X25095D02*
D03*
X23126D02*
D03*
X21158D02*
D03*
X19189D02*
D03*
X17221D02*
D03*
X15252D02*
D03*
X11315D02*
D03*
X9347D02*
D03*
X7378D02*
D03*
X5409D02*
D03*
X40843Y49122D02*
D03*
X38874D02*
D03*
X36906D02*
D03*
X34937D02*
D03*
X31000D02*
D03*
X29032D02*
D03*
X27063D02*
D03*
X25095D02*
D03*
X23126D02*
D03*
X21158D02*
D03*
X19189D02*
D03*
X17221D02*
D03*
X15252D02*
D03*
X11315D02*
D03*
X9347D02*
D03*
X7378D02*
D03*
X5409D02*
D03*
X40843Y51091D02*
D03*
X38874D02*
D03*
X36906D02*
D03*
X34937D02*
D03*
X31000D02*
D03*
X29032D02*
D03*
X27063D02*
D03*
X25095D02*
D03*
X23126D02*
D03*
X21158D02*
D03*
X19189D02*
D03*
X17221D02*
D03*
X15252D02*
D03*
X11315D02*
D03*
X9347D02*
D03*
X7378D02*
D03*
X5409D02*
D03*
X40843Y53059D02*
D03*
X38874D02*
D03*
X36906D02*
D03*
X34937D02*
D03*
X31000D02*
D03*
X29032D02*
D03*
X27063D02*
D03*
X25095D02*
D03*
X23126D02*
D03*
X21158D02*
D03*
X19189D02*
D03*
X17221D02*
D03*
X15252D02*
D03*
X11315D02*
D03*
X9347D02*
D03*
X7378D02*
D03*
X5409D02*
D03*
X40843Y55028D02*
D03*
X38874D02*
D03*
X36906D02*
D03*
X34937D02*
D03*
X32969D02*
D03*
X31000D02*
D03*
X29032D02*
D03*
X27063D02*
D03*
X25095D02*
D03*
X23126D02*
D03*
X21158D02*
D03*
X19189D02*
D03*
X17221D02*
D03*
X15252D02*
D03*
X13284D02*
D03*
X11315D02*
D03*
X9347D02*
D03*
X7378D02*
D03*
X5409D02*
D03*
X40843Y56996D02*
D03*
X38874D02*
D03*
X36906D02*
D03*
X34937D02*
D03*
X32969D02*
D03*
X31000D02*
D03*
X29032D02*
D03*
X27063D02*
D03*
X25095D02*
D03*
X23126D02*
D03*
X21158D02*
D03*
X19189D02*
D03*
X17221D02*
D03*
X15252D02*
D03*
X13284D02*
D03*
X11315D02*
D03*
X9347D02*
D03*
X7378D02*
D03*
X5409D02*
D03*
X40843Y58965D02*
D03*
X38874D02*
D03*
X36906D02*
D03*
X34937D02*
D03*
X32969D02*
D03*
X31000D02*
D03*
X29032D02*
D03*
X27063D02*
D03*
X25095D02*
D03*
X23126D02*
D03*
X21158D02*
D03*
X19189D02*
D03*
X17221D02*
D03*
X15252D02*
D03*
X13284D02*
D03*
X11315D02*
D03*
X9347D02*
D03*
X7378D02*
D03*
X5409D02*
D03*
X40843Y60933D02*
D03*
X38874D02*
D03*
X36906D02*
D03*
X34937D02*
D03*
X32969D02*
D03*
X31000D02*
D03*
X29032D02*
D03*
X27063D02*
D03*
X25095D02*
D03*
X23126D02*
D03*
X21158D02*
D03*
X19189D02*
D03*
X17221D02*
D03*
X15252D02*
D03*
X13284D02*
D03*
X11315D02*
D03*
X9347D02*
D03*
X7378D02*
D03*
X5409D02*
D03*
X6016Y6416D02*
D03*
Y8384D02*
D03*
X7984Y6416D02*
D03*
Y8384D02*
D03*
D18*
X62300Y79222D02*
D03*
Y81978D02*
D03*
X62400Y73122D02*
D03*
Y75878D02*
D03*
D19*
X37500Y20968D02*
D03*
Y17031D02*
D03*
X16000D02*
D03*
Y20968D02*
D03*
D20*
X3300Y5801D02*
D03*
Y8399D02*
D03*
X24100Y65501D02*
D03*
Y68099D02*
D03*
X35100Y102599D02*
D03*
Y100001D02*
D03*
X46200Y79201D02*
D03*
Y81799D02*
D03*
D21*
X12500Y11347D02*
D03*
Y4654D02*
D03*
X35800Y121754D02*
D03*
Y128446D02*
D03*
D22*
X6398Y75161D02*
D03*
X3642D02*
D03*
X3722Y70800D02*
D03*
X6478D02*
D03*
D23*
X17378Y94500D02*
D03*
X14622D02*
D03*
X28622Y71400D02*
D03*
X31378D02*
D03*
Y74500D02*
D03*
X28622D02*
D03*
X3122Y79500D02*
D03*
X5878D02*
D03*
D24*
X58801Y70400D02*
D03*
X61399D02*
D03*
X31299Y81800D02*
D03*
X28701D02*
D03*
D25*
X24409Y74508D02*
D03*
Y76477D02*
D03*
Y78445D02*
D03*
Y80414D02*
D03*
Y82382D02*
D03*
Y84351D02*
D03*
Y86319D02*
D03*
Y88288D02*
D03*
X10826D02*
D03*
Y86319D02*
D03*
Y84351D02*
D03*
Y82382D02*
D03*
Y80414D02*
D03*
Y78445D02*
D03*
Y76477D02*
D03*
Y74508D02*
D03*
D26*
X20571Y90158D02*
D03*
X14665D02*
D03*
Y72638D02*
D03*
X20571D02*
D03*
D27*
X17618Y81398D02*
D03*
D28*
X53900Y58500D02*
D03*
D29*
X48290Y51610D02*
D03*
Y53579D02*
D03*
Y55547D02*
D03*
Y57516D02*
D03*
Y59484D02*
D03*
Y61453D02*
D03*
Y63421D02*
D03*
Y65390D02*
D03*
X59510D02*
D03*
Y63421D02*
D03*
Y61453D02*
D03*
Y59484D02*
D03*
Y57516D02*
D03*
Y55547D02*
D03*
Y53579D02*
D03*
Y51610D02*
D03*
D30*
X9646Y98721D02*
D03*
Y95965D02*
D03*
D31*
X58500Y22000D02*
D03*
X59484Y20295D02*
D03*
X57516D02*
D03*
X59484Y23705D02*
D03*
X57516D02*
D03*
D32*
X50717Y75731D02*
D03*
Y77700D02*
D03*
Y79668D02*
D03*
X57883D02*
D03*
Y77700D02*
D03*
Y75731D02*
D03*
D33*
X54300Y77700D02*
D03*
D34*
X40500Y111000D02*
D03*
D35*
X36563Y116020D02*
D03*
X38138D02*
D03*
X39713D02*
D03*
X41287D02*
D03*
X42862D02*
D03*
X44437D02*
D03*
Y105980D02*
D03*
X42862D02*
D03*
X41287D02*
D03*
X39713D02*
D03*
X38138D02*
D03*
X36563D02*
D03*
D36*
X52000Y85263D02*
D03*
Y93137D02*
D03*
D37*
X39000Y12437D02*
D03*
X42150Y8500D02*
D03*
X35850D02*
D03*
X42150Y12437D02*
D03*
Y4563D02*
D03*
X35850Y12437D02*
D03*
Y4563D02*
D03*
X39000Y8500D02*
D03*
D38*
X28839Y13484D02*
D03*
X25689D02*
D03*
X22539D02*
D03*
X19390D02*
D03*
Y4035D02*
D03*
X22539D02*
D03*
X25689D02*
D03*
X28839D02*
D03*
D39*
X24114Y8760D02*
D03*
D40*
X35863Y91000D02*
D03*
X43737D02*
D03*
D41*
X591Y9744D02*
D03*
Y25492D02*
D03*
Y41240D02*
D03*
Y56988D02*
D03*
Y72736D02*
D03*
Y88484D02*
D03*
Y104232D02*
D03*
Y119980D02*
D03*
Y135728D02*
D03*
Y151476D02*
D03*
X65354D02*
D03*
Y135728D02*
D03*
Y119980D02*
D03*
Y104232D02*
D03*
Y88484D02*
D03*
Y72736D02*
D03*
Y56988D02*
D03*
Y41240D02*
D03*
Y25492D02*
D03*
Y9744D02*
D03*
D42*
X3937Y160728D02*
D03*
X59547D02*
D03*
D43*
X41339Y492D02*
D03*
X25591D02*
D03*
X9843D02*
D03*
D44*
X33500Y139500D02*
D03*
X39169D02*
D03*
X44839D02*
D03*
X50508D02*
D03*
X56177D02*
D03*
D45*
X60400Y145100D02*
D03*
D46*
X3635Y13444D02*
D03*
Y18956D02*
D03*
X7965D02*
D03*
Y13444D02*
D03*
D47*
X39500Y80840D02*
D03*
X42059Y73360D02*
D03*
X36941D02*
D03*
D48*
X26349Y84351D02*
X26900Y83800D01*
X64300Y144500D02*
X64500D01*
X65354Y145354D01*
X60772Y160728D02*
X62000Y159500D01*
X59547Y160728D02*
X60772D01*
X62000Y159400D02*
Y159500D01*
X60653Y55547D02*
X63100Y53100D01*
X64600Y65600D02*
X65354Y66354D01*
Y72736D01*
X64687Y64667D02*
X65354Y64000D01*
X64687Y64667D02*
Y65513D01*
X64600Y65600D02*
X64687Y65513D01*
X65354Y56988D02*
Y64000D01*
X591Y31991D02*
X1200Y32600D01*
X591Y25492D02*
Y31991D01*
Y47991D02*
X1100Y48500D01*
X591Y41240D02*
Y47991D01*
Y49009D02*
X1100Y48500D01*
X591Y49009D02*
Y56988D01*
X2100Y51300D02*
X3000Y50400D01*
X2100Y51300D02*
Y61300D01*
Y42500D02*
Y46700D01*
X591Y119980D02*
Y126191D01*
X1600Y160300D02*
X2028Y160728D01*
X3937D01*
X591Y64490D02*
X800Y64700D01*
X591Y56988D02*
Y64490D01*
Y64909D02*
X800Y64700D01*
X591Y64909D02*
Y66200D01*
Y72736D01*
Y64890D02*
Y66200D01*
X2100Y61300D02*
X2800Y62000D01*
Y65221D01*
X800Y64600D02*
Y64700D01*
X600Y64900D02*
X800Y64700D01*
X2000Y66021D02*
Y69078D01*
Y66021D02*
X2800Y65221D01*
X46995Y74594D02*
X47000Y74600D01*
X45700Y74594D02*
X46995D01*
X591Y141991D02*
X1400Y142800D01*
X591Y135728D02*
Y141991D01*
X1400Y142800D02*
Y143000D01*
X11400Y60800D02*
Y60848D01*
X11315Y60933D02*
X11400Y60848D01*
X9347Y60933D02*
X11315D01*
X7122Y66322D02*
X7432Y66013D01*
X9013D01*
X5305Y66905D02*
X6300Y67900D01*
X5305Y66800D02*
Y66905D01*
X40843Y43216D02*
X44783D01*
X45500Y42500D01*
Y42333D02*
Y42500D01*
X30222Y88978D02*
X32600Y86600D01*
X29100Y88978D02*
X30222D01*
X48294Y129093D02*
Y129500D01*
Y129093D02*
X49221Y128167D01*
X49233D02*
X49602Y127798D01*
X49221Y128167D02*
X49233D01*
X49602Y127402D02*
Y127798D01*
X20571Y72638D02*
X22100D01*
X22738Y72000D01*
X24300Y70300D02*
Y72000D01*
X24100Y68099D02*
Y70100D01*
X27600Y71400D02*
X28622D01*
X26800Y72200D02*
X27600Y71400D01*
X26800Y72200D02*
Y73700D01*
X25992Y74508D02*
X26800Y73700D01*
X24409Y74508D02*
X25992D01*
X3100Y38221D02*
Y41500D01*
X2100Y42500D02*
X3100Y41500D01*
X591Y34709D02*
X1100Y34200D01*
X591Y34709D02*
Y41240D01*
X1100Y34200D02*
X1200D01*
Y32600D02*
X1300D01*
X10100Y69300D02*
X10587Y68813D01*
Y67587D02*
Y68813D01*
X2000Y69078D02*
X3722Y70800D01*
X10100Y69300D02*
X10300Y69100D01*
X10100Y69300D02*
Y71459D01*
X9287Y72272D02*
X10100Y71459D01*
X7300Y5100D02*
X7984Y5784D01*
Y6416D01*
X46787Y64987D02*
X46800Y65000D01*
X32800Y45300D02*
Y45600D01*
X34937Y51091D02*
Y53059D01*
Y47153D02*
Y49122D01*
Y39279D02*
Y41248D01*
X33089Y37311D02*
X34937D01*
X33000Y37400D02*
X33089Y37311D01*
X32985Y45185D02*
X34937D01*
X32900Y45100D02*
X32985Y45185D01*
X34937Y33374D02*
Y35342D01*
X35863Y87937D02*
X35900Y87900D01*
X35863Y87937D02*
Y91000D01*
X43700Y87800D02*
X43737Y87837D01*
Y91000D01*
X64000Y54500D02*
Y54800D01*
X63100Y55700D02*
X64000Y54800D01*
X63100Y55700D02*
Y56122D01*
X47079Y63421D02*
X48290D01*
X46787Y63713D02*
X47079Y63421D01*
X46787Y63713D02*
Y64987D01*
X47190Y65390D01*
X48290D01*
X63100Y52078D02*
Y53100D01*
X59510Y55547D02*
X60653D01*
X62178Y58878D02*
X63100D01*
X60816Y57516D02*
X62178Y58878D01*
X59510Y57516D02*
X60816D01*
X54194Y73395D02*
X54200Y73400D01*
X63500Y71300D02*
Y72400D01*
X62778Y73122D02*
X63500Y72400D01*
X62400Y73122D02*
X62778D01*
X54200Y73300D02*
Y73400D01*
X54300Y73500D01*
Y77700D01*
X53900Y81600D02*
X54300Y81200D01*
Y77700D02*
Y81200D01*
X65354Y119980D02*
Y126646D01*
Y104232D02*
Y111546D01*
X64700Y96400D02*
X65354Y95746D01*
Y88484D02*
Y95746D01*
X35863Y91000D02*
Y96600D01*
X38138Y103662D02*
Y105980D01*
X35863Y96600D02*
X38800Y99537D01*
Y103000D01*
X38138Y103662D02*
X38800Y103000D01*
X38138Y103662D02*
Y104300D01*
X25614Y80414D02*
X26082Y80882D01*
X24409Y80414D02*
X25614D01*
X25600Y82382D02*
X26182Y81800D01*
X24409Y82382D02*
X25600D01*
X26082Y81700D02*
X26182Y81800D01*
X26082Y80882D02*
Y81700D01*
X24409Y88288D02*
X26288D01*
X26978Y88978D01*
X29100D01*
X41287Y104687D02*
Y105980D01*
X40200Y103600D02*
X41287Y104687D01*
X40200Y99700D02*
Y103600D01*
Y99700D02*
X43737Y96163D01*
X39713Y110213D02*
X40500Y111000D01*
X39713Y105980D02*
Y110213D01*
X43737Y91000D02*
Y96163D01*
X24409Y84351D02*
X26349D01*
X41500Y118000D02*
X41700D01*
X41300Y116032D02*
Y117800D01*
X41500Y118000D01*
X41287Y116020D02*
X41300Y116032D01*
X39800Y117900D02*
X40000D01*
X39713Y117613D02*
X40000Y117900D01*
X39713Y116020D02*
Y117613D01*
X53500Y136100D02*
X53900Y135700D01*
Y134406D02*
Y135700D01*
X14622Y94500D02*
X14665Y94457D01*
Y90158D02*
Y94457D01*
X20571Y90158D02*
Y92229D01*
X19900Y92900D02*
X20571Y92229D01*
X17900Y92900D02*
X19900D01*
X17378Y93422D02*
X17900Y92900D01*
X17378Y93422D02*
Y94500D01*
X31000Y56996D02*
X32969D01*
X31000Y55028D02*
X32969D01*
X25095Y47153D02*
X27063D01*
X25095Y45185D02*
X27050D01*
X27055Y45190D01*
X19189Y47153D02*
Y49115D01*
X21158Y47153D02*
X23107D01*
X17221Y39279D02*
X19179D01*
X25095Y35342D02*
Y37277D01*
X27063Y37311D02*
Y39279D01*
X23126Y32026D02*
Y33374D01*
X22700Y31600D02*
X23126Y32026D01*
X21305Y31600D02*
X22700D01*
X21200Y31495D02*
X21305Y31600D01*
X65354Y151476D02*
Y157846D01*
Y145354D02*
Y151476D01*
Y135728D02*
Y142146D01*
Y129254D02*
Y135728D01*
X13284Y56996D02*
X15252D01*
X11315D02*
X13284D01*
X9347D02*
Y58965D01*
X24409Y78445D02*
X26500D01*
X27245Y77700D01*
X28431D01*
X3722Y70800D02*
Y72722D01*
X3642Y72802D02*
Y75161D01*
X24409Y76477D02*
X26023D01*
X28000Y74500D01*
X28622D01*
X63100Y49322D02*
X64622D01*
X9843Y492D02*
X16592D01*
X16900Y800D01*
X3308Y492D02*
X9843D01*
X591Y3509D02*
Y9744D01*
Y64890D02*
X600Y64900D01*
X3937Y160728D02*
X6872D01*
X7200Y160400D01*
Y160300D02*
Y160400D01*
X41339Y492D02*
X47792D01*
X48300Y1000D01*
X65354Y50054D02*
Y56988D01*
Y72736D02*
Y79446D01*
X64900Y79900D02*
X65354Y79446D01*
Y82154D02*
Y88484D01*
X64800Y81600D02*
X65354Y82154D01*
X591Y81910D02*
Y88484D01*
Y81910D02*
X1200Y81300D01*
X591Y72736D02*
Y79090D01*
X1100Y79600D01*
X591Y94390D02*
X1600Y95400D01*
X591Y97809D02*
Y104232D01*
Y97809D02*
X1400Y97000D01*
X591Y113609D02*
Y119980D01*
Y113609D02*
X1300Y112900D01*
Y112800D02*
Y112900D01*
X591Y110191D02*
X1500Y111100D01*
X591Y126191D02*
X1300Y126900D01*
Y127000D01*
X591Y129309D02*
Y135728D01*
Y129309D02*
X1300Y128600D01*
X591Y145109D02*
Y151476D01*
Y145109D02*
X1300Y144400D01*
X591Y151476D02*
Y157791D01*
X1700Y158900D01*
X1600Y159000D02*
Y160300D01*
Y159000D02*
X1700Y158900D01*
X64622Y49322D02*
X64900Y49600D01*
X65354Y50054D01*
X2400Y35579D02*
X3100Y34879D01*
X2400Y35579D02*
Y37521D01*
X3100Y38221D01*
X2190Y23017D02*
Y30290D01*
X3100Y31200D01*
Y34879D01*
X9621Y76477D02*
X10826D01*
X3122Y79500D02*
X5183Y77439D01*
X7900D01*
X8658D02*
X9621Y76477D01*
X7900Y77439D02*
X8658D01*
X3642Y72802D02*
X3722Y72722D01*
X25069Y37303D02*
X25095Y37277D01*
X19179Y39279D02*
X19187Y39272D01*
X23107Y47153D02*
X23117Y47144D01*
X11315Y53059D02*
Y55028D01*
Y56996D02*
Y58965D01*
X9347D02*
X11315D01*
X13284Y55028D02*
X15252D01*
X19181Y49122D02*
X19189Y49115D01*
X29013Y41240D02*
X29039D01*
X54194Y70400D02*
Y73395D01*
X6398Y75161D02*
X9287Y72272D01*
X591Y104232D02*
Y110191D01*
Y88484D02*
Y94390D01*
X32600Y85900D02*
Y86600D01*
X2100Y46700D02*
X3000Y47600D01*
Y50400D01*
X591Y9744D02*
Y16390D01*
X1000Y16800D01*
X22738Y72000D02*
X24300D01*
X64100Y158500D02*
X64700D01*
X65354Y157846D01*
X64300Y142835D02*
X64665D01*
X65354Y142146D01*
X65000Y127000D02*
X65354Y126646D01*
X64300Y127000D02*
X65000D01*
X64600Y128800D02*
X64900D01*
X65354Y129254D01*
X64400Y112100D02*
X64800D01*
X65354Y111546D01*
X35708Y492D02*
X41339D01*
X34600Y1600D02*
X35708Y492D01*
X1500Y2600D02*
X1600D01*
X591Y3509D02*
X1500Y2600D01*
X2900Y1700D02*
X3000D01*
Y800D02*
Y1700D01*
Y800D02*
X3308Y492D01*
X1000Y16800D02*
X1500D01*
X17717Y-37309D02*
X21715D01*
X19716D01*
Y-43307D01*
X24714D02*
X26714D01*
X27713Y-42307D01*
Y-40308D01*
X26714Y-39308D01*
X24714D01*
X23715Y-40308D01*
Y-42307D01*
X24714Y-43307D01*
X29713Y-45306D02*
Y-39308D01*
X32712D01*
X33711Y-40308D01*
Y-42307D01*
X32712Y-43307D01*
X29713D01*
D49*
X44436Y75736D02*
X45105Y76406D01*
X44143Y75443D02*
X44436Y75736D01*
X44143Y74900D02*
Y75443D01*
X53900Y131500D02*
Y132595D01*
X53500Y131100D02*
X53900Y131500D01*
X54900Y130096D02*
X54921Y130116D01*
X3494Y66606D02*
X4600Y65500D01*
X3494Y66606D02*
Y66800D01*
Y67795D02*
X4300Y68600D01*
X3494Y66800D02*
Y67795D01*
X5000Y68600D02*
X6478Y70078D01*
X4300Y68600D02*
X5000D01*
X4891Y51091D02*
X5409D01*
X4500Y50700D02*
X4891Y51091D01*
X47188Y53579D02*
X48290D01*
X46600Y52991D02*
X47188Y53579D01*
X46600Y52100D02*
Y52991D01*
X43500Y59791D02*
X44891Y58400D01*
X45100Y60100D02*
X45400Y59800D01*
X45100Y60100D02*
Y61622D01*
X12487Y66013D02*
X13313D01*
X11850Y66650D02*
X12487Y66013D01*
X40500Y62600D02*
X40900D01*
X31000Y62400D02*
X40300D01*
X6478Y70078D02*
Y70800D01*
X22200Y62900D02*
X23126Y61974D01*
Y60933D02*
Y61974D01*
Y58965D02*
X25095Y56996D01*
X28622Y73878D02*
Y74500D01*
X41478Y69200D02*
X42400D01*
X43400Y68200D01*
Y68100D02*
Y68200D01*
X43300Y68000D02*
X43400Y68100D01*
X45100Y61622D02*
X46478D01*
X46647Y61453D01*
X48290D01*
X38863Y37300D02*
X38874Y37311D01*
X38700Y37300D02*
X38863D01*
X56700Y18200D02*
Y19479D01*
X57516Y20295D01*
X39000Y3200D02*
Y8500D01*
X46080Y105980D02*
X46200Y106100D01*
X44437Y105980D02*
X46080D01*
X45700Y76406D02*
X47295D01*
X47969Y75731D01*
X50717D01*
X44437Y105980D02*
X44450Y105967D01*
X54900Y130000D02*
X55270Y130370D01*
X54900Y130000D02*
Y130096D01*
X45068Y133869D02*
X47000Y135800D01*
X45068Y133400D02*
Y133869D01*
X55270Y130370D02*
Y132229D01*
X22539Y4035D02*
Y7061D01*
X19390Y4035D02*
Y7010D01*
X29039Y41240D02*
X31000Y39279D01*
X25689Y13484D02*
Y15522D01*
X24600Y16611D02*
X25689Y15522D01*
X22289Y16611D02*
X24600D01*
X28839Y13484D02*
Y15961D01*
X26800Y16600D02*
X28200D01*
X28839Y15961D01*
X56269Y134268D02*
X57300D01*
X55342Y133342D02*
X56269Y134268D01*
X55342Y132042D02*
Y132300D01*
Y133342D01*
X55270Y132229D02*
X55342Y132300D01*
X17221Y29437D02*
X19100Y31317D01*
X28622Y73878D02*
X29537Y72963D01*
X33537D01*
X35000Y66000D02*
X36500Y64500D01*
X40300Y62400D02*
X40500Y62600D01*
X40900D02*
Y62700D01*
X33537Y72963D02*
X35000Y71500D01*
Y66000D02*
Y71500D01*
X41478Y64522D02*
Y66200D01*
Y64522D02*
X42400Y63600D01*
Y59400D02*
Y63600D01*
X36500Y64500D02*
X39500D01*
X45105Y76406D02*
X45700D01*
X42400Y59400D02*
X44500Y57300D01*
X47090Y51610D02*
X48290D01*
X5402Y29429D02*
X5409Y29437D01*
X27800Y69078D02*
X28622Y69900D01*
Y71400D01*
X3700Y27728D02*
X5402Y29429D01*
X3700Y24800D02*
Y27728D01*
Y24800D02*
X4800Y23700D01*
X46600Y52100D02*
X47090Y51610D01*
X17221Y60933D02*
Y62520D01*
X17250Y62550D01*
X17259D01*
X18050Y63341D01*
Y63350D01*
X18700Y64000D01*
X47084Y59484D02*
X48290D01*
X44891Y58400D02*
X46000D01*
X47084Y59484D01*
X44500Y57300D02*
X46322D01*
X46538Y57516D01*
X48290D01*
X46150Y55550D02*
X46459D01*
X46462Y55547D02*
X48290D01*
X1600Y18500D02*
X1856Y18756D01*
X2056Y18956D02*
X3635D01*
X1856Y18756D02*
X2056Y18956D01*
X4800Y23700D02*
X8200D01*
X9100D01*
X8200D02*
X9500D01*
X19100Y31317D02*
Y31600D01*
X40843Y47153D02*
X45254D01*
X50906Y128700D02*
X51500D01*
X50106Y129500D02*
X50906Y128700D01*
X5504Y65500D02*
X6202Y64802D01*
X4600Y65500D02*
X5504D01*
X11600Y71800D02*
X11850Y71550D01*
Y69900D02*
Y71550D01*
Y66650D02*
Y69600D01*
Y70350D01*
X4500Y52600D02*
X4959Y53059D01*
X5359D01*
X5409D01*
X43400Y68100D02*
X43500Y68000D01*
Y59791D02*
Y68000D01*
X18700Y64000D02*
X18900D01*
X28841Y64501D02*
X28899D01*
X31000Y62400D01*
X27800Y65542D02*
X28841Y64501D01*
X27800Y65542D02*
Y69078D01*
D50*
X14887Y69487D02*
X15200Y69800D01*
X14887Y67587D02*
Y69487D01*
X64700Y48000D02*
X65354Y47346D01*
X8500Y68100D02*
X9013Y67587D01*
X8500Y68100D02*
Y69800D01*
X8600Y68000D02*
X9013Y67587D01*
X8500Y69800D02*
Y69900D01*
X10826Y90300D02*
Y93074D01*
X18463Y66904D02*
X19400Y65967D01*
X16213Y66013D02*
X17104Y66904D01*
X18463D01*
X19400Y64641D02*
Y65967D01*
X18729Y63971D02*
X19400Y64641D01*
X11100Y64700D02*
X11200D01*
X10587Y65213D02*
X11100Y64700D01*
X10587Y65213D02*
Y66013D01*
X21158Y56996D02*
Y58965D01*
X23126D01*
X13200Y67700D02*
X13313Y67587D01*
X22799Y65501D02*
X24100D01*
X22500Y65800D02*
X22799Y65501D01*
X40400Y5100D02*
X40937Y4563D01*
X42150D01*
X40600Y9500D02*
X41600Y8500D01*
X42150D01*
X38700Y10500D02*
X39000Y10800D01*
X48869Y4532D02*
X49000Y4400D01*
X46500Y4532D02*
X48869D01*
X5201Y5601D02*
X6016Y6416D01*
X8400Y2100D02*
X8405Y2105D01*
Y3500D01*
X9400Y4495D01*
X37500Y69200D02*
X38722D01*
X32969Y58965D02*
X34937D01*
Y56996D02*
X36906D01*
X34937Y60933D02*
X36906D01*
X34937Y55028D02*
Y56996D01*
X59484Y23705D02*
Y24677D01*
X58706Y25455D02*
X59484Y24677D01*
X52500Y72700D02*
X52600Y72800D01*
X48300Y80200D02*
X48831Y79668D01*
X50717D01*
X60458Y53579D02*
X61200Y52837D01*
X59510Y53579D02*
X60458D01*
X53133Y68967D02*
X55867D01*
X52306Y69794D02*
X53133Y68967D01*
X52306Y69794D02*
Y70500D01*
X61153Y61453D02*
X61800Y62100D01*
X59510Y61453D02*
X61153D01*
X59000Y67900D02*
X59610Y67290D01*
Y63421D02*
X60821D01*
X61100Y63700D01*
Y65100D01*
X60810Y65390D02*
X61100Y65100D01*
X59610Y65390D02*
X60810D01*
X55867Y68967D02*
X56305Y69406D01*
Y70400D01*
X56305Y70400D01*
X58801D01*
X58801Y70400D02*
X58801Y70400D01*
Y72599D01*
X57883Y73517D02*
X58801Y72599D01*
X57883Y73517D02*
Y75731D01*
X62199Y69600D02*
X63600D01*
X61399Y70400D02*
X62199Y69600D01*
X52000Y85263D02*
X52937D01*
X57883Y80317D01*
Y79668D02*
Y80317D01*
X62300Y75978D02*
X62400Y75878D01*
X62300Y75978D02*
Y79222D01*
X57883Y79668D02*
X60232D01*
X60678Y79222D01*
X62300D01*
X26182Y81800D02*
X28701D01*
X39294Y119700D02*
X42263D01*
X26681Y86319D02*
X27100Y85900D01*
X24409Y86319D02*
X26681D01*
X35100Y106000D02*
X35120Y105980D01*
X36563D01*
X45100Y121300D02*
X45169Y121369D01*
Y123800D01*
X44437Y116020D02*
Y117526D01*
X38100Y118506D02*
X39294Y119700D01*
X38100Y116058D02*
Y118506D01*
Y116058D02*
X38138Y116020D01*
X35800Y119500D02*
Y121754D01*
Y119100D02*
Y119500D01*
Y119100D02*
X36563Y118337D01*
Y116020D02*
Y118337D01*
X62868Y148600D02*
Y150868D01*
X63500Y151500D01*
X57500D02*
X57531Y151469D01*
Y150000D02*
Y151469D01*
Y150000D02*
X58931Y148600D01*
X60500Y151000D02*
Y152532D01*
X58931Y149432D02*
X60500Y151000D01*
X58931Y148600D02*
Y149432D01*
X58000Y156000D02*
X58469Y156468D01*
X60500D01*
X59800Y133100D02*
X60969Y134268D01*
X59800Y132500D02*
Y133100D01*
X12500Y23100D02*
X12600D01*
X11315Y29437D02*
Y31405D01*
X39000Y10800D02*
Y12437D01*
X22539Y10561D02*
Y13484D01*
X16000Y17031D02*
X18331D01*
X32469Y20000D02*
Y22368D01*
X28532Y20000D02*
Y22332D01*
X4900Y3500D02*
X6594D01*
X11315Y33374D02*
Y35342D01*
X19390Y13484D02*
Y15790D01*
X20100Y16500D01*
X25689Y4035D02*
Y7058D01*
X28839Y4035D02*
Y6961D01*
X28800Y7000D02*
X28839Y6961D01*
X24114Y8760D02*
X30060D01*
X35131Y20968D02*
X37500D01*
X15252Y33374D02*
X15274D01*
X15300Y33400D01*
X13284Y29437D02*
Y29484D01*
X13300Y29500D01*
X18560Y8760D02*
X24114D01*
X9646Y94254D02*
X10826Y93074D01*
X9646Y94254D02*
Y95965D01*
X5807Y94993D02*
X8100Y92700D01*
X5807Y94993D02*
Y95571D01*
X8100Y87500D02*
Y92700D01*
Y87500D02*
X9281Y86319D01*
X10826D01*
X4640Y91240D02*
X5807D01*
X3600Y90200D02*
X4640Y91240D01*
X10826Y88288D02*
Y90300D01*
X3232Y84431D02*
X3400Y84600D01*
X6389Y124900D02*
Y126495D01*
X6395Y126500D01*
X6289Y120006D02*
Y121100D01*
Y120006D02*
X6795Y119500D01*
X23126Y53059D02*
X25095D01*
X27063Y51091D02*
Y53043D01*
X27059Y53047D02*
X27063Y53043D01*
X29032Y51091D02*
Y53029D01*
X25095Y53059D02*
Y55028D01*
X60969Y134268D02*
X62000D01*
X57300Y130332D02*
X59632D01*
X59800Y130500D01*
X59632Y130332D02*
X62000D01*
X58500Y22000D02*
X60900D01*
X62000Y20900D01*
Y13060D02*
Y20900D01*
X9100Y80414D02*
X10826D01*
X5807Y87672D02*
Y88484D01*
X49060Y29300D02*
X50760Y31000D01*
X46900Y29300D02*
Y29400D01*
X45100D02*
X46900D01*
X59440Y10500D02*
X62000Y13060D01*
X37000Y68700D02*
X37500Y69200D01*
X18600Y800D02*
X18908Y492D01*
X25591D01*
X32292D01*
X32700Y900D01*
X65354Y9744D02*
Y15946D01*
Y19454D02*
Y25492D01*
Y31946D01*
X64900Y32400D02*
X65354Y31946D01*
X64900Y34100D02*
X65354Y34554D01*
Y41240D01*
Y47246D02*
Y47346D01*
X42731Y101700D02*
X42862Y101831D01*
X20031Y20000D02*
Y21468D01*
X18900Y22600D02*
X20031Y21468D01*
X42862Y104538D02*
Y105980D01*
Y104538D02*
X43700Y103700D01*
X42559Y73360D02*
X42919Y73000D01*
X16000Y20968D02*
Y23000D01*
X5878Y79500D02*
X7200D01*
X7500Y79200D01*
X5807Y87672D02*
X9128Y84351D01*
X10826D01*
X10169Y16532D02*
X12500D01*
X9100Y79000D02*
X9655Y78445D01*
X10826D01*
X14887Y66013D02*
X16213D01*
X61200Y50900D02*
Y52837D01*
X59610Y65390D02*
Y67290D01*
X42263Y119700D02*
X44437Y117526D01*
X9100Y79000D02*
Y80414D01*
X12500Y20469D02*
Y23100D01*
X46900Y29300D02*
X49060D01*
X3100Y5601D02*
X5201D01*
X9347Y29437D02*
X11315D01*
Y47153D02*
Y49122D01*
X29017Y53044D02*
X29032Y53029D01*
X38816Y35400D02*
X38874Y35342D01*
X13200Y67700D02*
Y69300D01*
X54986Y25455D02*
X58706D01*
X54000Y24468D02*
X54986Y25455D01*
X7965Y18956D02*
X9744D01*
X10500Y18200D01*
X34937Y29437D02*
X36906D01*
X34937Y29343D02*
Y29437D01*
Y29343D02*
X35220Y29060D01*
X65354Y41240D02*
Y47346D01*
X7209Y82640D02*
X8742D01*
X9000Y82382D02*
X10826D01*
X7209Y82305D02*
Y82640D01*
X7291Y82223D02*
X8157Y81357D01*
X7209Y82305D02*
X7291Y82223D01*
X8157Y81357D02*
X9100Y80414D01*
X3232Y82680D02*
X3272Y82640D01*
X3232Y82680D02*
Y84431D01*
X42919Y73000D02*
X47663D01*
X50800Y71537D02*
Y72200D01*
X50494Y71232D02*
X50800Y71537D01*
X50494Y70500D02*
Y71232D01*
X51200Y74200D02*
X52600Y72800D01*
X47663Y73000D02*
X48863Y74200D01*
X51200D01*
X64100Y18600D02*
X64500D01*
X65354Y19454D01*
X64200Y16600D02*
X64700D01*
X65354Y15946D01*
X32700Y900D02*
Y1500D01*
X34231Y134300D02*
Y135864D01*
X35367Y137000D02*
X36300D01*
X34231Y135864D02*
X35367Y137000D01*
D51*
X46705Y40800D02*
X47155Y40350D01*
X48887D01*
X49437Y40900D01*
X49500D01*
X46705Y38700D02*
X47155Y39150D01*
X49250D02*
X49600Y38800D01*
X47155Y39150D02*
X49250D01*
X43800Y52300D02*
X44400D01*
X43100Y51100D02*
X43400Y51400D01*
Y51900D01*
X43800Y52300D01*
X44400D02*
X44700Y52000D01*
X40843Y51091D02*
X41227Y50706D01*
X44300Y40600D02*
X44495D01*
X44695D02*
X44894Y40800D01*
X44300Y40600D02*
X44695D01*
X40843Y49122D02*
X41227Y49506D01*
X9338Y74508D02*
X10826D01*
X8417Y75429D02*
X9338Y74508D01*
X9995Y124200D02*
X10000D01*
X8200Y124900D02*
X9094D01*
X8100Y121100D02*
X9595D01*
X9794Y121300D01*
Y122000D01*
X43094Y51100D02*
X43100D01*
X44700Y52000D02*
X45200Y51500D01*
X42700Y50706D02*
X43094Y51100D01*
X41227Y50706D02*
X42700D01*
X44700Y49900D02*
X45200Y49400D01*
X43591Y49900D02*
X44700D01*
X43197Y49506D02*
X43591Y49900D01*
X41227Y49506D02*
X43197D01*
X43000Y35700D02*
X44300D01*
X42100Y36600D02*
X43000Y35700D01*
X42100Y36600D02*
Y38100D01*
X44300Y35700D02*
X44894Y36294D01*
Y38700D01*
X42100Y38100D02*
X42800Y38800D01*
X43000Y41000D02*
X43400Y40600D01*
X44300D01*
X8200Y124900D02*
X9295D01*
X9995Y124200D01*
D52*
X45200Y71078D02*
X48078D01*
X45100Y66064D02*
X45236Y66200D01*
X45100Y64378D02*
Y66064D01*
X45236Y66200D02*
X45300D01*
X36906Y58965D02*
Y60933D01*
X48150Y82050D02*
X48200Y82100D01*
X46451Y82050D02*
X48150D01*
X46200Y81799D02*
X46451Y82050D01*
X51968Y47069D02*
X53600Y48700D01*
X51968Y46300D02*
Y47069D01*
X53900Y52900D02*
Y58500D01*
Y49000D02*
Y52900D01*
X57200Y48700D02*
Y49600D01*
X55231Y46300D02*
X55400Y46468D01*
Y48700D01*
X53600D02*
X53900Y49000D01*
X51900Y46369D02*
X51968Y46300D01*
X38722Y66200D02*
Y69200D01*
X63800Y104660D02*
Y104700D01*
X60300Y101160D02*
X63800Y104660D01*
X51340Y101160D02*
X52600D01*
X50460D02*
X51340D01*
X48600Y103900D02*
X51340Y101160D01*
X56600Y104500D02*
X59940Y101160D01*
X60300D01*
X48352Y122448D02*
X49548D01*
X50400Y123300D01*
X51960D01*
X48300Y120800D02*
X49900D01*
X51960Y122860D01*
Y123300D01*
X50060Y114300D02*
X51960Y116200D01*
X48300Y114300D02*
X50060D01*
X48300Y116400D02*
X48500Y116200D01*
X51960D01*
X48300Y118400D02*
X49760D01*
X51960Y116200D01*
Y126360D02*
X53800Y128200D01*
X48600Y99300D02*
X50460Y101160D01*
X30378Y86222D02*
X30800Y85800D01*
X29100Y86222D02*
X30378D01*
X63700Y96400D02*
X64700D01*
X61740Y94440D02*
X63700Y96400D01*
X60600Y94440D02*
X61740D01*
X36601Y100001D02*
X37200Y100600D01*
X35100Y100001D02*
X36601D01*
X46900Y101932D02*
Y104300D01*
X46668Y101700D02*
X46900Y101932D01*
X47300Y127300D02*
X47500Y127500D01*
Y127700D01*
X45268Y127300D02*
X47300D01*
X23400Y20569D02*
X23968Y20000D01*
X23400Y20569D02*
Y22500D01*
X23968Y20000D02*
X24500D01*
X25400Y20900D01*
Y22500D01*
X59484Y16284D02*
Y20295D01*
X31299Y81800D02*
X32368Y80731D01*
X42067Y20535D02*
X47804D01*
X48500Y21231D01*
X49068D01*
X50600Y19700D01*
X58700Y15500D02*
X59484Y16284D01*
X50600Y11860D02*
Y19700D01*
Y11860D02*
X51960Y10500D01*
X41200Y21269D02*
X42000Y20469D01*
X41200Y21269D02*
Y23600D01*
X42900D01*
X43000Y23700D01*
X51960Y10500D02*
X54050Y12590D01*
Y14050D01*
X55500Y15500D01*
X33600Y81927D02*
Y82000D01*
Y81927D02*
X34800Y80727D01*
Y75900D02*
Y80727D01*
X31378Y74500D02*
X33400D01*
X34800Y75900D01*
X31378Y70122D02*
Y71400D01*
Y70122D02*
X32000Y69500D01*
X55500Y15500D02*
X56600D01*
X58700D01*
X36941Y76441D02*
X38000Y77500D01*
X32368Y77700D02*
Y80200D01*
Y80731D01*
X53900Y52900D02*
X57200Y49600D01*
X51960Y123300D02*
Y126360D01*
X36941Y73360D02*
Y76441D01*
X48078Y71078D02*
X49000Y72000D01*
D53*
X48031Y45068D02*
X49330Y43771D01*
X51900D01*
X53321D01*
X50616D02*
X51900D01*
X53351Y43800D02*
X53400D01*
X53321Y43771D02*
X53351Y43800D01*
X48290Y46558D02*
Y51610D01*
X48031Y46300D02*
X48290Y46558D01*
X51100Y24200D02*
X51400Y24500D01*
X54000Y18300D02*
Y20531D01*
X51432Y24468D02*
X54000D01*
X48390Y67290D02*
X49000Y67900D01*
X47301Y79201D02*
X48300Y80200D01*
X46200Y79201D02*
X47301D01*
X59168Y46300D02*
X61063Y48194D01*
Y50763D02*
X61200Y50900D01*
X59300Y81600D02*
X59700D01*
X59900Y83300D02*
X60600Y84000D01*
Y86960D01*
X58200Y83000D02*
Y84560D01*
X60600Y86960D01*
X60300Y108640D02*
X62300Y110640D01*
Y112000D01*
X58300Y110640D02*
Y112100D01*
Y110640D02*
X60300Y108640D01*
X53800Y109840D02*
X55800Y111840D01*
X52600Y108640D02*
X53800Y109840D01*
X55800Y111840D02*
Y112100D01*
X53800Y109840D02*
Y111997D01*
X51800Y109440D02*
Y111997D01*
Y109440D02*
X52600Y108640D01*
X61440Y114200D02*
X63100D01*
X59440Y116200D02*
X61440Y114200D01*
X59440Y116200D02*
X63200D01*
X60500Y118200D02*
X63100D01*
X59440Y117140D02*
X60500Y118200D01*
X59440Y116200D02*
Y117140D01*
X61400Y121200D02*
X63200D01*
X59440Y123160D02*
X61400Y121200D01*
X59440Y123160D02*
Y123300D01*
X63300D01*
X61540Y125400D02*
X63200D01*
X59440Y123300D02*
X61540Y125400D01*
X48800Y97200D02*
X50100D01*
X52000Y95300D01*
Y93137D02*
Y95300D01*
X46700Y96400D02*
X49963Y93137D01*
X52000D01*
X61360Y67964D02*
X62346Y66978D01*
X62900D01*
X33000Y98400D02*
Y102700D01*
Y105500D01*
Y102700D02*
X34999D01*
X35100Y102599D01*
X34639Y105500D02*
X35120Y105980D01*
X33000Y105500D02*
X34639D01*
X46616Y130700D02*
X50508Y134592D01*
Y139500D01*
X45000Y130700D02*
X46616D01*
X39200Y125700D02*
X41331D01*
Y127300D01*
Y123900D02*
Y125700D01*
X39100Y125800D02*
X39200Y125700D01*
X41232Y123800D02*
X41331Y123900D01*
X33000Y105500D02*
Y118200D01*
X34500D01*
X35800Y119500D01*
X38346Y128446D02*
X38800Y128900D01*
X35800Y128446D02*
X38346D01*
X32700Y128700D02*
X32954Y128446D01*
X35800D01*
X45500Y139500D02*
X47000Y138000D01*
X44839Y139500D02*
X45500D01*
X41300D02*
X41500Y139700D01*
X39169Y139500D02*
X41300D01*
X35700D02*
X35800Y139600D01*
X33500Y139500D02*
X35700D01*
X59600Y138900D02*
X60400Y139700D01*
Y145100D01*
X53900Y138100D02*
X55300Y139500D01*
X56177D01*
X3100Y5601D02*
X3300Y5801D01*
X3100Y3700D02*
Y5601D01*
X5807Y98327D02*
Y100593D01*
X5800Y100600D02*
X5807Y100593D01*
X9646Y98721D02*
X9825Y98900D01*
X12300D01*
X14622Y94500D02*
Y96578D01*
X14600Y96600D02*
X14622Y96578D01*
X56150Y139473D02*
X56177Y139500D01*
X28431Y77700D02*
X28477D01*
X47069Y25168D02*
X48500D01*
X45600Y23700D02*
X47069Y25168D01*
X58240Y31000D02*
Y33040D01*
Y31000D02*
Y33360D01*
X56800Y34800D02*
X58240Y33360D01*
X60940Y39400D02*
Y41760D01*
Y42640D02*
X61600Y43300D01*
X60300Y108640D02*
Y112000D01*
X60200Y112100D02*
X60300Y112000D01*
X28701Y81800D02*
Y82801D01*
X19700Y95120D02*
X29719D01*
X33000Y98400D01*
X28701Y82801D02*
X29777Y83877D01*
X48031Y45068D02*
Y46300D01*
X29777Y83877D02*
X34523D01*
X42731Y101268D02*
X45300Y98700D01*
X42731Y101268D02*
Y101700D01*
Y102732D01*
X43700Y103700D01*
X44562Y83955D02*
X45355D01*
X46900Y85500D01*
X45200Y68322D02*
X48578D01*
X49000Y67900D01*
X28431Y77700D02*
X29300Y78569D01*
Y79700D01*
X34523Y83877D02*
X35491Y82910D01*
X43517D02*
X44562Y83955D01*
X59400Y43300D02*
X60940Y41760D01*
Y42640D01*
X35491Y82910D02*
X43517D01*
X61063Y48194D02*
Y50763D01*
X48390Y65390D02*
Y67290D01*
X51400Y24500D02*
X51432Y24468D01*
X59300Y81600D02*
X61922D01*
X62300Y81978D01*
X54000Y20531D02*
X55584Y22116D01*
X55927D01*
X57516Y23705D01*
D54*
X9400Y5647D02*
X9426Y5674D01*
Y7013D01*
X8055Y8384D02*
X9426Y7013D01*
X7984Y8384D02*
X8055D01*
X9400Y4495D02*
Y5647D01*
D55*
X63000Y64222D02*
X63200Y64022D01*
Y61520D02*
Y64022D01*
X62380Y60700D02*
X63200Y61520D01*
X62239Y60700D02*
X62380D01*
X61023Y59484D02*
X62239Y60700D01*
X59510Y59484D02*
X61023D01*
D56*
X39068Y131632D02*
Y133400D01*
Y131632D02*
X39300Y131400D01*
X39068Y133400D02*
X41131D01*
X38168Y134300D02*
X39068Y133400D01*
X53460Y36060D02*
Y39400D01*
X53400Y36000D02*
X53460Y36060D01*
X51900Y36000D02*
X53400D01*
X51800Y35900D02*
X51900Y36000D01*
X50100Y35900D02*
X51800D01*
X49900Y36100D02*
X50100Y35900D01*
D57*
X7378Y35342D02*
X7400Y35320D01*
D58*
X27386Y100370D02*
D03*
Y109425D02*
D03*
Y118480D02*
D03*
Y127535D02*
D03*
Y136590D02*
D03*
D59*
X18331D02*
D03*
D60*
Y127535D02*
D03*
Y118480D02*
D03*
Y109425D02*
D03*
Y100370D02*
D03*
D61*
X62000Y159400D02*
D03*
X64100Y158500D02*
D03*
X57600Y143300D02*
D03*
X32700Y128700D02*
D03*
X54921Y130116D02*
D03*
X51500Y128700D02*
D03*
X53500Y131100D02*
D03*
X49500Y40900D02*
D03*
X49600Y38800D02*
D03*
X64600Y65600D02*
D03*
X1100Y48500D02*
D03*
X800Y64600D02*
D03*
X6202Y64802D02*
D03*
X1400Y142800D02*
D03*
X64700Y48000D02*
D03*
X11400Y60800D02*
D03*
X9200Y63900D02*
D03*
X7122Y66322D02*
D03*
X8500Y69800D02*
D03*
X6300Y67900D02*
D03*
X4800Y63800D02*
D03*
X5409Y60933D02*
D03*
Y58965D02*
D03*
X1600Y18500D02*
D03*
X4500Y52600D02*
D03*
X53400Y43800D02*
D03*
X45500Y42333D02*
D03*
X45900Y54200D02*
D03*
X38700Y50900D02*
D03*
X38900Y49100D02*
D03*
X45700Y47600D02*
D03*
X45800Y55900D02*
D03*
X36906Y49122D02*
D03*
X45400Y59800D02*
D03*
X53600Y48700D02*
D03*
X55400D02*
D03*
X17900Y69800D02*
D03*
X21400Y69200D02*
D03*
X11200Y64700D02*
D03*
X24300Y72000D02*
D03*
X28895Y62595D02*
D03*
X15200Y69800D02*
D03*
X7300Y60900D02*
D03*
X3900Y46100D02*
D03*
X10300Y69100D02*
D03*
X1100Y34200D02*
D03*
X1200Y32600D02*
D03*
X7378Y53059D02*
D03*
X7400Y54900D02*
D03*
X4500Y50700D02*
D03*
X11600Y71800D02*
D03*
X13200Y69300D02*
D03*
X5402Y31398D02*
D03*
Y43209D02*
D03*
X7370Y49114D02*
D03*
X11307Y45177D02*
D03*
Y43209D02*
D03*
X9339Y45177D02*
D03*
X11307Y41240D02*
D03*
X28900Y60600D02*
D03*
X22200Y62900D02*
D03*
X63400Y25000D02*
D03*
X63500Y29700D02*
D03*
X40400Y5100D02*
D03*
X40600Y9500D02*
D03*
X49000Y4400D02*
D03*
X8400Y2100D02*
D03*
X7300Y5100D02*
D03*
X63200Y32100D02*
D03*
X63300Y35026D02*
D03*
X45300Y66200D02*
D03*
X36906Y31405D02*
D03*
X34937Y43216D02*
D03*
Y41248D02*
D03*
X32800Y45600D02*
D03*
X36906Y43216D02*
D03*
X34937Y47153D02*
D03*
X36906D02*
D03*
X35131Y20968D02*
D03*
X33000Y37400D02*
D03*
X34937Y31405D02*
D03*
Y53059D02*
D03*
Y56996D02*
D03*
Y58965D02*
D03*
X38749Y43251D02*
D03*
X43300Y68000D02*
D03*
X36906Y37311D02*
D03*
X38700Y37300D02*
D03*
X38900Y45100D02*
D03*
X34937Y33374D02*
D03*
X36906D02*
D03*
X38900Y35400D02*
D03*
X38874Y25500D02*
D03*
X40843Y27468D02*
D03*
X39000Y3200D02*
D03*
X56700Y18200D02*
D03*
X49000Y67900D02*
D03*
X55800Y52100D02*
D03*
X55900Y54400D02*
D03*
X55800Y56600D02*
D03*
X55900Y58900D02*
D03*
Y61300D02*
D03*
X52500Y72700D02*
D03*
X46200Y106100D02*
D03*
X61200Y50200D02*
D03*
X10826Y90300D02*
D03*
X62200Y54100D02*
D03*
X59300Y81600D02*
D03*
X59900Y83300D02*
D03*
X58200Y83000D02*
D03*
X63800Y104700D02*
D03*
X48600Y103900D02*
D03*
X56600Y104500D02*
D03*
X60200Y112100D02*
D03*
X62300Y112000D02*
D03*
X58300Y112100D02*
D03*
X55800D02*
D03*
X53800D02*
D03*
X51800D02*
D03*
X63100Y114200D02*
D03*
X63200Y116200D02*
D03*
X63100Y118200D02*
D03*
X63200Y121200D02*
D03*
X63300Y123300D02*
D03*
X63200Y125400D02*
D03*
X48352Y122448D02*
D03*
X48300Y120800D02*
D03*
Y114300D02*
D03*
Y116400D02*
D03*
Y118400D02*
D03*
X53800Y128200D02*
D03*
X57200Y48700D02*
D03*
X48600Y99300D02*
D03*
X48800Y97200D02*
D03*
X46700Y96400D02*
D03*
X48100Y89100D02*
D03*
X30800Y85800D02*
D03*
X64000Y54500D02*
D03*
X61800Y62100D02*
D03*
X61360Y67964D02*
D03*
X59000Y67900D02*
D03*
X63500Y71300D02*
D03*
X63600Y69600D02*
D03*
X54200Y73300D02*
D03*
X53900Y81600D02*
D03*
X64700Y96400D02*
D03*
X19700Y95120D02*
D03*
X37200Y100600D02*
D03*
X46900Y104300D02*
D03*
X43700Y118200D02*
D03*
X27100Y85900D02*
D03*
X26900Y83800D02*
D03*
X49602Y127402D02*
D03*
X47500Y127700D02*
D03*
X45000Y130700D02*
D03*
X50800Y131700D02*
D03*
X45100Y121300D02*
D03*
X43200Y121400D02*
D03*
X39100Y125800D02*
D03*
X41700Y118000D02*
D03*
X39800Y117900D02*
D03*
X33000Y118200D02*
D03*
X39300Y131400D02*
D03*
X47000Y135800D02*
D03*
X44200D02*
D03*
X38800Y128900D02*
D03*
X57500Y128000D02*
D03*
X58800Y136900D02*
D03*
X53500Y136100D02*
D03*
X58000Y156000D02*
D03*
Y158500D02*
D03*
X3100Y3700D02*
D03*
X22539Y7061D02*
D03*
X38700Y10500D02*
D03*
X34300Y13300D02*
D03*
X34200Y4800D02*
D03*
X34300Y7300D02*
D03*
Y10000D02*
D03*
X35000Y15400D02*
D03*
X39700Y16600D02*
D03*
X36094Y14095D02*
D03*
X15800Y6100D02*
D03*
X22539Y10561D02*
D03*
X32469Y22368D02*
D03*
X28532Y22332D02*
D03*
X25400Y22500D02*
D03*
X4900Y3500D02*
D03*
X20100Y16500D02*
D03*
X25689Y7058D02*
D03*
X28800Y7000D02*
D03*
X30060Y8760D02*
D03*
X25300Y31495D02*
D03*
X29032Y31463D02*
D03*
X21150Y35335D02*
D03*
X27100Y31500D02*
D03*
X21200Y31495D02*
D03*
X23118Y25492D02*
D03*
X21154Y41244D02*
D03*
X29013Y41240D02*
D03*
X25091Y41244D02*
D03*
X19187Y39272D02*
D03*
X23110Y39263D02*
D03*
X21150Y37303D02*
D03*
X25069D02*
D03*
X21150Y39284D02*
D03*
X23114Y41244D02*
D03*
X19163Y41240D02*
D03*
X17210Y41243D02*
D03*
X15248Y41244D02*
D03*
X27059D02*
D03*
X25082Y39272D02*
D03*
X29019Y37303D02*
D03*
X31000D02*
D03*
X31000Y35335D02*
D03*
X29019D02*
D03*
X23110Y37295D02*
D03*
X23118Y35335D02*
D03*
X17213Y37297D02*
D03*
X27055Y33348D02*
D03*
X30992Y33361D02*
D03*
X31005Y41240D02*
D03*
X27063Y39279D02*
D03*
Y35342D02*
D03*
X29032Y33374D02*
D03*
X25095D02*
D03*
X38874Y27468D02*
D03*
X40800Y25500D02*
D03*
X19189Y33374D02*
D03*
X21158D02*
D03*
X19189Y35342D02*
D03*
X17221D02*
D03*
X19189Y37311D02*
D03*
X4295Y125600D02*
D03*
X6494Y116300D02*
D03*
X27063Y56996D02*
D03*
X25095Y55028D02*
D03*
Y47153D02*
D03*
X21158Y49122D02*
D03*
X23126D02*
D03*
X25095D02*
D03*
X21158Y53059D02*
D03*
X19189D02*
D03*
X17221D02*
D03*
X21150Y55020D02*
D03*
X17213Y49097D02*
D03*
X15244Y49129D02*
D03*
X15246Y47144D02*
D03*
X15245Y43209D02*
D03*
X31009Y49097D02*
D03*
X30991Y47144D02*
D03*
X29009Y45191D02*
D03*
X31007Y43194D02*
D03*
X29024Y43208D02*
D03*
X25095Y43209D02*
D03*
X23110Y45186D02*
D03*
X21124Y43209D02*
D03*
X27059Y43204D02*
D03*
X27055Y45190D02*
D03*
X23117Y47144D02*
D03*
X23118Y43203D02*
D03*
X19174Y43209D02*
D03*
X17213Y43197D02*
D03*
X21150Y45184D02*
D03*
X19193Y45177D02*
D03*
X17213Y45191D02*
D03*
X19181Y49122D02*
D03*
X27055Y49098D02*
D03*
X29024Y49130D02*
D03*
X9339Y43209D02*
D03*
X30992Y55027D02*
D03*
X29048Y55044D02*
D03*
X27059Y55024D02*
D03*
X25098Y51083D02*
D03*
X27059Y53047D02*
D03*
X30999Y53044D02*
D03*
X29017D02*
D03*
X19206Y55044D02*
D03*
X30959Y56994D02*
D03*
X29059Y56944D02*
D03*
X15256Y51094D02*
D03*
X19171Y51083D02*
D03*
X17210Y51086D02*
D03*
X23110Y51091D02*
D03*
X21150Y51084D02*
D03*
X5800Y100600D02*
D03*
X12300Y98900D02*
D03*
X14600Y96600D02*
D03*
X3400Y84600D02*
D03*
X3600Y90200D02*
D03*
X6395Y126500D02*
D03*
X6795Y119500D02*
D03*
X40843Y29437D02*
D03*
X23400Y22500D02*
D03*
X22289Y16611D02*
D03*
X26800Y16600D02*
D03*
X33300Y29100D02*
D03*
X35220Y29060D02*
D03*
X44000Y13700D02*
D03*
X44100Y11800D02*
D03*
X42600Y10700D02*
D03*
X47400D02*
D03*
X45600D02*
D03*
X14400Y14600D02*
D03*
X15900Y9200D02*
D03*
X3400Y10800D02*
D03*
X5500Y10600D02*
D03*
X16300Y4500D02*
D03*
X7500Y10600D02*
D03*
X44300Y16900D02*
D03*
X58000Y153500D02*
D03*
X57500Y151500D02*
D03*
X63500D02*
D03*
X64100Y139800D02*
D03*
X59800Y132500D02*
D03*
X59600Y138900D02*
D03*
X59800Y130500D02*
D03*
X47000Y138000D02*
D03*
X53900Y138100D02*
D03*
X35800Y139600D02*
D03*
X41500Y139700D02*
D03*
X32600Y136400D02*
D03*
X36300Y137000D02*
D03*
X19100Y31600D02*
D03*
X17221Y27468D02*
D03*
X5402Y37303D02*
D03*
X15289Y37348D02*
D03*
X11307Y37303D02*
D03*
Y39272D02*
D03*
X17221Y33374D02*
D03*
X19189Y29437D02*
D03*
X17100Y31400D02*
D03*
X13300Y29500D02*
D03*
X7400Y35320D02*
D03*
X7370Y37303D02*
D03*
X11307Y49114D02*
D03*
X5402Y41240D02*
D03*
X38874Y47153D02*
D03*
X43000Y23700D02*
D03*
X41200Y23600D02*
D03*
X46900Y29400D02*
D03*
X45100D02*
D03*
X45600Y23700D02*
D03*
X56800Y34800D02*
D03*
X59400Y43300D02*
D03*
X61600D02*
D03*
X49900Y36100D02*
D03*
X47400Y134100D02*
D03*
X63700Y137000D02*
D03*
X41500Y131000D02*
D03*
X38900Y121700D02*
D03*
X47500Y124000D02*
D03*
X9300Y54900D02*
D03*
X15252Y35342D02*
D03*
X15300Y33400D02*
D03*
X39700Y64300D02*
D03*
X41500Y64500D02*
D03*
X37000Y68700D02*
D03*
X34937Y60933D02*
D03*
X40843D02*
D03*
X40900Y62700D02*
D03*
X32600Y85900D02*
D03*
X29300Y79700D02*
D03*
X32368Y80200D02*
D03*
X33600Y82000D02*
D03*
X64900Y49600D02*
D03*
X18600Y800D02*
D03*
X16900D02*
D03*
X48300Y1000D02*
D03*
X64900Y32400D02*
D03*
Y34100D02*
D03*
X7200Y160300D02*
D03*
X64900Y79900D02*
D03*
X64800Y81600D02*
D03*
X1200Y81300D02*
D03*
X1600Y95400D02*
D03*
X1400Y97000D02*
D03*
X1300Y112800D02*
D03*
X1500Y111100D02*
D03*
X1300Y127000D02*
D03*
Y128600D02*
D03*
Y144400D02*
D03*
X1700Y158900D02*
D03*
X45300Y98700D02*
D03*
X48300Y80200D02*
D03*
X32000Y69500D02*
D03*
X56600Y15500D02*
D03*
X21158Y25500D02*
D03*
X21100Y22800D02*
D03*
X43700Y103700D02*
D03*
X48200Y82100D02*
D03*
X46900Y85500D02*
D03*
X5000Y16300D02*
D03*
X38000Y77500D02*
D03*
X44200Y80900D02*
D03*
X40800Y45200D02*
D03*
X18560Y8760D02*
D03*
X16400Y10900D02*
D03*
Y12600D02*
D03*
X19390Y7010D02*
D03*
X16300Y14600D02*
D03*
X52100Y22400D02*
D03*
X51800Y35900D02*
D03*
X54000Y18300D02*
D03*
X51100Y24200D02*
D03*
Y27100D02*
D03*
X18900Y22600D02*
D03*
X11315Y33374D02*
D03*
X9339Y31398D02*
D03*
X5402Y29429D02*
D03*
X7370Y27461D02*
D03*
X11307Y29429D02*
D03*
X3900Y36200D02*
D03*
X5409Y33374D02*
D03*
X9347Y51091D02*
D03*
X31300Y64200D02*
D03*
X11307Y55020D02*
D03*
X17188Y55044D02*
D03*
X6800Y16200D02*
D03*
X15252Y53059D02*
D03*
X15134Y55020D02*
D03*
X9319Y53074D02*
D03*
X11315Y51091D02*
D03*
X7370Y51083D02*
D03*
X22500Y65800D02*
D03*
X7370Y29429D02*
D03*
X18500Y17200D02*
D03*
X12600Y23100D02*
D03*
X10169Y16532D02*
D03*
X14600Y19116D02*
D03*
X10500Y18200D02*
D03*
X9500Y23700D02*
D03*
X16000Y23000D02*
D03*
X10900Y22600D02*
D03*
X7370Y25492D02*
D03*
X5402Y27461D02*
D03*
X5600Y25600D02*
D03*
X2190Y23017D02*
D03*
X1100Y79600D02*
D03*
X7500Y79200D02*
D03*
X7900Y77439D02*
D03*
X17800Y65304D02*
D03*
X17221Y56996D02*
D03*
X7300Y59000D02*
D03*
X15252Y56996D02*
D03*
X19204Y56988D02*
D03*
X25095Y56996D02*
D03*
X21110Y56994D02*
D03*
X2200Y77600D02*
D03*
X11307Y58947D02*
D03*
X8300Y75600D02*
D03*
X3642Y72802D02*
D03*
X1900Y73100D02*
D03*
X10000Y124200D02*
D03*
X9794Y122000D02*
D03*
X36900Y41200D02*
D03*
X40800D02*
D03*
X45200Y51500D02*
D03*
Y49400D02*
D03*
X38700Y39000D02*
D03*
X41000Y39200D02*
D03*
X42800Y38800D02*
D03*
X43000Y41000D02*
D03*
X18900Y64000D02*
D03*
X47000Y74600D02*
D03*
X44143Y74900D02*
D03*
X49000Y72000D02*
D03*
X50800Y72200D02*
D03*
X29400Y65851D02*
D03*
X42665Y111000D02*
D03*
X38335D02*
D03*
X63600Y156800D02*
D03*
X64300Y144500D02*
D03*
Y142835D02*
D03*
Y127000D02*
D03*
X62898Y128002D02*
D03*
X64600Y128800D02*
D03*
X64400Y112100D02*
D03*
X64100Y18600D02*
D03*
X64200Y16600D02*
D03*
X30700Y4100D02*
D03*
X32700Y1500D02*
D03*
X34600Y1600D02*
D03*
X1600Y2600D02*
D03*
X3000Y1700D02*
D03*
X1500Y16800D02*
D03*
X12100Y126400D02*
D03*
X12100Y119761D02*
D03*
X12800Y108239D02*
D03*
Y101561D02*
D03*
X30838Y105138D02*
D03*
X27400Y91700D02*
D03*
D62*
X15649Y85335D02*
D03*
Y81398D02*
D03*
Y77461D02*
D03*
X19586Y85335D02*
D03*
Y81398D02*
D03*
Y77461D02*
D03*
M02*
