%FSLAX25Y25*%
%MOIN*%
G70*
G01*
G75*
G04 Layer_Color=65535*
%ADD10R,0.05906X0.05118*%
G04:AMPARAMS|DCode=11|XSize=25.59mil|YSize=23.62mil|CornerRadius=5.91mil|HoleSize=0mil|Usage=FLASHONLY|Rotation=180.000|XOffset=0mil|YOffset=0mil|HoleType=Round|Shape=RoundedRectangle|*
%AMROUNDEDRECTD11*
21,1,0.02559,0.01181,0,0,180.0*
21,1,0.01378,0.02362,0,0,180.0*
1,1,0.01181,-0.00689,0.00591*
1,1,0.01181,0.00689,0.00591*
1,1,0.01181,0.00689,-0.00591*
1,1,0.01181,-0.00689,-0.00591*
%
%ADD11ROUNDEDRECTD11*%
G04:AMPARAMS|DCode=12|XSize=25.59mil|YSize=23.62mil|CornerRadius=5.91mil|HoleSize=0mil|Usage=FLASHONLY|Rotation=270.000|XOffset=0mil|YOffset=0mil|HoleType=Round|Shape=RoundedRectangle|*
%AMROUNDEDRECTD12*
21,1,0.02559,0.01181,0,0,270.0*
21,1,0.01378,0.02362,0,0,270.0*
1,1,0.01181,-0.00591,-0.00689*
1,1,0.01181,-0.00591,0.00689*
1,1,0.01181,0.00591,0.00689*
1,1,0.01181,0.00591,-0.00689*
%
%ADD12ROUNDEDRECTD12*%
%ADD13R,0.00866X0.01024*%
%ADD14R,0.01024X0.00866*%
%ADD15R,0.05118X0.05906*%
G04:AMPARAMS|DCode=16|XSize=15.75mil|YSize=17.72mil|CornerRadius=3.94mil|HoleSize=0mil|Usage=FLASHONLY|Rotation=180.000|XOffset=0mil|YOffset=0mil|HoleType=Round|Shape=RoundedRectangle|*
%AMROUNDEDRECTD16*
21,1,0.01575,0.00984,0,0,180.0*
21,1,0.00787,0.01772,0,0,180.0*
1,1,0.00787,-0.00394,0.00492*
1,1,0.00787,0.00394,0.00492*
1,1,0.00787,0.00394,-0.00492*
1,1,0.00787,-0.00394,-0.00492*
%
%ADD16ROUNDEDRECTD16*%
%ADD17C,0.00984*%
%ADD18R,0.02756X0.01575*%
%ADD19R,0.02362X0.01969*%
%ADD20R,0.01654X0.01811*%
%ADD21R,0.03937X0.04331*%
%ADD22R,0.01575X0.02756*%
G04:AMPARAMS|DCode=23|XSize=15.75mil|YSize=17.72mil|CornerRadius=3.94mil|HoleSize=0mil|Usage=FLASHONLY|Rotation=270.000|XOffset=0mil|YOffset=0mil|HoleType=Round|Shape=RoundedRectangle|*
%AMROUNDEDRECTD23*
21,1,0.01575,0.00984,0,0,270.0*
21,1,0.00787,0.01772,0,0,270.0*
1,1,0.00787,-0.00492,-0.00394*
1,1,0.00787,-0.00492,0.00394*
1,1,0.00787,0.00492,0.00394*
1,1,0.00787,0.00492,-0.00394*
%
%ADD23ROUNDEDRECTD23*%
%ADD24R,0.01811X0.01654*%
%ADD25O,0.03347X0.01102*%
%ADD26O,0.01102X0.03347*%
%ADD27R,0.01181X0.01181*%
%ADD28R,0.06496X0.17323*%
%ADD29R,0.02559X0.00984*%
%ADD30R,0.01772X0.01772*%
%ADD31C,0.01082*%
%ADD32R,0.02658X0.00984*%
%ADD33R,0.02402X0.05591*%
%ADD34R,0.09843X0.06299*%
%ADD35R,0.00984X0.01969*%
G04:AMPARAMS|DCode=36|XSize=70.87mil|YSize=51.18mil|CornerRadius=12.8mil|HoleSize=0mil|Usage=FLASHONLY|Rotation=0.000|XOffset=0mil|YOffset=0mil|HoleType=Round|Shape=RoundedRectangle|*
%AMROUNDEDRECTD36*
21,1,0.07087,0.02559,0,0,0.0*
21,1,0.04528,0.05118,0,0,0.0*
1,1,0.02559,0.02264,-0.01280*
1,1,0.02559,-0.02264,-0.01280*
1,1,0.02559,-0.02264,0.01280*
1,1,0.02559,0.02264,0.01280*
%
%ADD36ROUNDEDRECTD36*%
%ADD37C,0.01181*%
%ADD38R,0.01181X0.03937*%
%ADD39R,0.09449X0.01181*%
%ADD40R,0.05512X0.06693*%
%ADD41R,0.01000X0.11811*%
%ADD42R,0.03937X0.01000*%
%ADD43R,0.11811X0.01000*%
%ADD44R,0.01969X0.03937*%
%ADD45R,0.03937X0.01969*%
%ADD46R,0.02362X0.02756*%
%ADD47R,0.01969X0.04724*%
%ADD48C,0.00800*%
%ADD49C,0.00500*%
%ADD50C,0.01000*%
%ADD51C,0.00400*%
%ADD52C,0.01200*%
%ADD53C,0.01500*%
%ADD54C,0.00900*%
%ADD55C,0.00600*%
%ADD56C,0.02000*%
%ADD57C,0.00700*%
%ADD58O,0.08000X0.07500*%
%ADD59C,0.07480*%
%ADD60C,0.08000*%
%ADD61C,0.01200*%
%ADD62C,0.01969*%
%ADD63C,0.08200*%
%ADD64C,0.02200*%
%ADD65C,0.02600*%
%ADD66C,0.01024*%
%ADD67C,0.00807*%
%ADD68R,0.12000X0.06000*%
%ADD69R,0.03937X0.01575*%
%ADD70R,0.00886X0.00709*%
G04:AMPARAMS|DCode=71|XSize=8.86mil|YSize=7.09mil|CornerRadius=0mil|HoleSize=0mil|Usage=FLASHONLY|Rotation=135.000|XOffset=0mil|YOffset=0mil|HoleType=Round|Shape=Rectangle|*
%AMROTATEDRECTD71*
4,1,4,0.00564,-0.00063,0.00063,-0.00564,-0.00564,0.00063,-0.00063,0.00564,0.00564,-0.00063,0.0*
%
%ADD71ROTATEDRECTD71*%

%ADD72R,0.00709X0.00886*%
%ADD73R,0.03228X0.05197*%
%ADD74R,0.03228X0.05197*%
%ADD75R,0.00906X0.03543*%
%ADD76C,0.01339*%
%ADD77C,0.00394*%
%ADD78C,0.00984*%
%ADD79C,0.00591*%
%ADD80C,0.00197*%
%ADD81C,0.00098*%
%ADD82C,0.00472*%
%ADD83C,0.00787*%
G36*
X6446Y116034D02*
X6501D01*
X6571Y116027D01*
X6647Y116013D01*
X6737Y115999D01*
X6834Y115985D01*
X6945Y115964D01*
X7057Y115944D01*
X7181Y115909D01*
X7438Y115832D01*
X7577Y115784D01*
X7723Y115735D01*
X7869Y115673D01*
X8021Y115603D01*
X8174Y115527D01*
X8326Y115437D01*
X8479Y115340D01*
X8639Y115236D01*
X8792Y115124D01*
X8944Y115000D01*
X9097Y114861D01*
X9250Y114715D01*
X9395Y114556D01*
X9541Y114389D01*
X9680Y114201D01*
X9819Y114007D01*
X9944Y113792D01*
X10069Y113570D01*
Y113563D01*
X10082Y113535D01*
X10096Y113487D01*
X10117Y113424D01*
X10145Y113355D01*
X10173Y113265D01*
X10200Y113161D01*
X10228Y113056D01*
X10256Y112932D01*
X10284Y112807D01*
X10339Y112536D01*
X10374Y112244D01*
X10381Y112099D01*
X10388Y111953D01*
Y111946D01*
Y111925D01*
Y111897D01*
X10381Y111849D01*
Y111793D01*
X10374Y111731D01*
X10367Y111654D01*
X10353Y111571D01*
X10339Y111474D01*
X10318Y111370D01*
X10298Y111259D01*
X10270Y111148D01*
X10193Y110891D01*
X10103Y110620D01*
X10041Y110475D01*
X9978Y110329D01*
X9909Y110183D01*
X9826Y110031D01*
X9742Y109878D01*
X9645Y109725D01*
X9534Y109573D01*
X9423Y109420D01*
X9298Y109267D01*
X9159Y109121D01*
X9014Y108969D01*
X8854Y108823D01*
X8681Y108684D01*
X8500Y108545D01*
X8306Y108414D01*
X8098Y108282D01*
X8084Y108275D01*
X8056Y108268D01*
X8007Y108247D01*
X7945Y108219D01*
X7862Y108192D01*
X7771Y108157D01*
X7660Y108122D01*
X7549Y108087D01*
X7424Y108053D01*
X7299Y108018D01*
X7029Y107956D01*
X6751Y107907D01*
X6612Y107900D01*
X6481Y107893D01*
X6161D01*
X6120Y107900D01*
X6071D01*
X6009Y107907D01*
X5932Y107914D01*
X5856Y107928D01*
X5766Y107942D01*
X5669Y107956D01*
X5564Y107983D01*
X5453Y108004D01*
X5217Y108073D01*
X4954Y108164D01*
X4822Y108212D01*
X4683Y108275D01*
X4537Y108344D01*
X4391Y108414D01*
X4246Y108497D01*
X4100Y108587D01*
X3954Y108691D01*
X3802Y108795D01*
X3656Y108913D01*
X3510Y109045D01*
X3364Y109184D01*
X3226Y109330D01*
X3080Y109489D01*
X2948Y109663D01*
X2809Y109843D01*
X2684Y110038D01*
X2677Y110051D01*
X2664Y110079D01*
X2643Y110135D01*
X2608Y110211D01*
X2573Y110301D01*
X2539Y110405D01*
X2497Y110523D01*
X2448Y110655D01*
X2407Y110801D01*
X2365Y110954D01*
X2330Y111113D01*
X2289Y111280D01*
X2261Y111453D01*
X2240Y111634D01*
X2226Y111807D01*
X2219Y111988D01*
Y111995D01*
Y112009D01*
Y112036D01*
Y112078D01*
X2226Y112119D01*
X2233Y112182D01*
X2240Y112244D01*
X2247Y112314D01*
X2261Y112397D01*
X2275Y112487D01*
X2310Y112682D01*
X2365Y112904D01*
X2434Y113140D01*
X2525Y113397D01*
X2643Y113667D01*
X2705Y113799D01*
X2781Y113938D01*
X2858Y114077D01*
X2948Y114222D01*
X3045Y114361D01*
X3149Y114500D01*
X3260Y114639D01*
X3378Y114778D01*
X3503Y114909D01*
X3642Y115048D01*
X3788Y115180D01*
X3947Y115305D01*
X3961Y115312D01*
X3996Y115340D01*
X4051Y115374D01*
X4135Y115423D01*
X4232Y115479D01*
X4350Y115541D01*
X4489Y115603D01*
X4641Y115673D01*
X4808Y115742D01*
X4988Y115805D01*
X5183Y115867D01*
X5391Y115923D01*
X5606Y115971D01*
X5828Y116006D01*
X6064Y116034D01*
X6300Y116041D01*
X6397D01*
X6446Y116034D01*
D02*
G37*
G36*
X43626Y12732D02*
X42051Y14307D01*
X43626D01*
Y12732D01*
D02*
G37*
G36*
X42811Y23531D02*
X41379D01*
X42811Y24963D01*
Y23531D01*
D02*
G37*
%LPC*%
G36*
X8153Y114625D02*
X8125D01*
X3274Y113161D01*
Y113126D01*
X3288D01*
X3316Y113112D01*
X3364Y113098D01*
X3434Y113077D01*
X3517Y113056D01*
X3614Y113029D01*
X3732Y112994D01*
X3857Y112952D01*
X3989Y112918D01*
X4135Y112869D01*
X4287Y112827D01*
X4454Y112779D01*
X4787Y112675D01*
X5141Y112571D01*
X5488Y112467D01*
X5828Y112362D01*
X5995Y112314D01*
X6147Y112265D01*
X6300Y112217D01*
X6439Y112175D01*
X6571Y112133D01*
X6689Y112092D01*
X6793Y112057D01*
X6883Y112029D01*
X6952Y112002D01*
X7015Y111981D01*
X7050Y111967D01*
X7070Y111953D01*
Y111925D01*
X3274Y110801D01*
Y110773D01*
X8153Y109274D01*
Y109545D01*
X8146D01*
X8132Y109552D01*
X8104Y109559D01*
X8070Y109566D01*
X8028Y109573D01*
X7980Y109586D01*
X7862Y109621D01*
X7716Y109670D01*
X7556Y109725D01*
X7390Y109788D01*
X7209Y109864D01*
X7036Y109947D01*
X6869Y110045D01*
X6709Y110149D01*
X6564Y110266D01*
X6446Y110391D01*
X6397Y110461D01*
X6356Y110530D01*
X6321Y110600D01*
X6293Y110676D01*
X6279Y110752D01*
X6272Y110836D01*
Y110863D01*
Y110870D01*
Y110891D01*
X6279Y110919D01*
X6293Y110960D01*
X6314Y111009D01*
X6342Y111072D01*
X6376Y111134D01*
X6432Y111210D01*
X6494Y111294D01*
X6578Y111377D01*
X6682Y111467D01*
X6807Y111557D01*
X6952Y111654D01*
X7119Y111752D01*
X7209Y111807D01*
X7313Y111856D01*
X7417Y111904D01*
X7535Y111953D01*
Y111988D01*
X7528D01*
X7521Y111995D01*
X7480Y112009D01*
X7417Y112036D01*
X7341Y112078D01*
X7244Y112119D01*
X7133Y112175D01*
X7022Y112238D01*
X6904Y112314D01*
X6786Y112390D01*
X6675Y112473D01*
X6564Y112564D01*
X6467Y112654D01*
X6390Y112751D01*
X6328Y112855D01*
X6286Y112959D01*
X6272Y113015D01*
Y113070D01*
Y113161D01*
Y113168D01*
Y113195D01*
X6286Y113237D01*
X6300Y113285D01*
X6328Y113355D01*
X6369Y113424D01*
X6432Y113507D01*
X6508Y113598D01*
X6605Y113695D01*
X6730Y113799D01*
X6807Y113848D01*
X6883Y113896D01*
X6973Y113952D01*
X7063Y114000D01*
X7168Y114049D01*
X7279Y114104D01*
X7403Y114153D01*
X7535Y114201D01*
X7674Y114250D01*
X7820Y114299D01*
X7980Y114347D01*
X8153Y114389D01*
Y114625D01*
D02*
G37*
%LPD*%
D50*
X31500Y94900D02*
G03*
X31500Y94900I-355J0D01*
G01*
X17613Y142113D02*
G03*
X12200Y136700I0J-5413D01*
G01*
D51*
X61400Y48900D02*
G03*
X61400Y48900I-492J0D01*
G01*
X34400Y82499D02*
Y81333D01*
X34633Y81100D01*
X35100D01*
X35333Y81333D01*
Y82499D01*
X35800Y81100D02*
X36266D01*
X36033D01*
Y82499D01*
X35800Y82266D01*
X37899Y82499D02*
X36966D01*
Y81800D01*
X37432Y82033D01*
X37666D01*
X37899Y81800D01*
Y81333D01*
X37666Y81100D01*
X37199D01*
X36966Y81333D01*
X51933Y105366D02*
X51700Y105599D01*
X51233D01*
X51000Y105366D01*
Y104433D01*
X51233Y104200D01*
X51700D01*
X51933Y104433D01*
X52399Y105366D02*
X52633Y105599D01*
X53099D01*
X53333Y105366D01*
Y105133D01*
X53099Y104900D01*
X52866D01*
X53099D01*
X53333Y104666D01*
Y104433D01*
X53099Y104200D01*
X52633D01*
X52399Y104433D01*
X53799Y104200D02*
X54266D01*
X54032D01*
Y105599D01*
X53799Y105366D01*
X59433Y91066D02*
X59200Y91299D01*
X58733D01*
X58500Y91066D01*
Y90133D01*
X58733Y89900D01*
X59200D01*
X59433Y90133D01*
X60599Y89900D02*
Y91299D01*
X59899Y90600D01*
X60833D01*
X61299Y90133D02*
X61532Y89900D01*
X61999D01*
X62232Y90133D01*
Y91066D01*
X61999Y91299D01*
X61532D01*
X61299Y91066D01*
Y90833D01*
X61532Y90600D01*
X62232D01*
X1600Y64000D02*
Y65399D01*
X2300D01*
X2533Y65166D01*
Y64700D01*
X2300Y64467D01*
X1600D01*
X2066D02*
X2533Y64000D01*
X3699D02*
Y65399D01*
X2999Y64700D01*
X3933D01*
X4399Y64000D02*
X4866D01*
X4632D01*
Y65399D01*
X4399Y65166D01*
X47400Y77400D02*
X48799D01*
Y76700D01*
X48566Y76467D01*
X48100D01*
X47866Y76700D01*
Y77400D01*
Y76933D02*
X47400Y76467D01*
X47633Y76000D02*
X47400Y75767D01*
Y75301D01*
X47633Y75067D01*
X48566D01*
X48799Y75301D01*
Y75767D01*
X48566Y76000D01*
X48333D01*
X48100Y75767D01*
Y75067D01*
X50100Y67800D02*
Y69200D01*
X50800D01*
X51033Y68966D01*
Y68500D01*
X50800Y68266D01*
X50100D01*
X50567D02*
X51033Y67800D01*
X51499D02*
X51966D01*
X51733D01*
Y69200D01*
X51499Y68966D01*
X52666D02*
X52899Y69200D01*
X53366D01*
X53599Y68966D01*
Y68733D01*
X53366Y68500D01*
X53132D01*
X53366D01*
X53599Y68266D01*
Y68033D01*
X53366Y67800D01*
X52899D01*
X52666Y68033D01*
X54100Y67800D02*
Y69200D01*
X54800D01*
X55033Y68966D01*
Y68500D01*
X54800Y68266D01*
X54100D01*
X54567D02*
X55033Y67800D01*
X55500D02*
X55966D01*
X55733D01*
Y69200D01*
X55500Y68966D01*
X57366Y67800D02*
Y69200D01*
X56666Y68500D01*
X57599D01*
X2300Y16899D02*
Y15733D01*
X2533Y15500D01*
X3000D01*
X3233Y15733D01*
Y16899D01*
X3700Y15500D02*
X4166D01*
X3933D01*
Y16899D01*
X3700Y16666D01*
X50900Y136100D02*
X52299D01*
Y135400D01*
X52066Y135167D01*
X51600D01*
X51367Y135400D01*
Y136100D01*
Y135634D02*
X50900Y135167D01*
X52299Y133767D02*
X52066Y134234D01*
X51600Y134701D01*
X51133D01*
X50900Y134467D01*
Y134001D01*
X51133Y133767D01*
X51367D01*
X51600Y134001D01*
Y134701D01*
X50900Y132368D02*
Y133301D01*
X51833Y132368D01*
X52066D01*
X52299Y132601D01*
Y133068D01*
X52066Y133301D01*
X46700Y131000D02*
Y132399D01*
X47400D01*
X47633Y132166D01*
Y131700D01*
X47400Y131466D01*
X46700D01*
X47166D02*
X47633Y131000D01*
X49033Y132399D02*
X48566Y132166D01*
X48099Y131700D01*
Y131233D01*
X48333Y131000D01*
X48799D01*
X49033Y131233D01*
Y131466D01*
X48799Y131700D01*
X48099D01*
X49499Y131000D02*
X49966D01*
X49732D01*
Y132399D01*
X49499Y132166D01*
X28233Y142200D02*
X27766D01*
X28000D01*
Y141033D01*
X27766Y140800D01*
X27533D01*
X27300Y141033D01*
X28699Y140800D02*
X29166D01*
X28933D01*
Y142200D01*
X28699Y141966D01*
X56500Y147300D02*
Y148699D01*
X57200D01*
X57433Y148466D01*
Y148000D01*
X57200Y147766D01*
X56500D01*
X56967D02*
X57433Y147300D01*
X57899D02*
X58366D01*
X58133D01*
Y148699D01*
X57899Y148466D01*
X59999Y148699D02*
X59532Y148466D01*
X59066Y148000D01*
Y147533D01*
X59299Y147300D01*
X59766D01*
X59999Y147533D01*
Y147766D01*
X59766Y148000D01*
X59066D01*
X62600Y155800D02*
X63999D01*
Y155100D01*
X63766Y154867D01*
X63300D01*
X63067Y155100D01*
Y155800D01*
Y155333D02*
X62600Y154867D01*
Y154401D02*
Y153934D01*
Y154167D01*
X63999D01*
X63766Y154401D01*
Y153234D02*
X63999Y153001D01*
Y152534D01*
X63766Y152301D01*
X63533D01*
X63300Y152534D01*
X63067Y152301D01*
X62833D01*
X62600Y152534D01*
Y153001D01*
X62833Y153234D01*
X63067D01*
X63300Y153001D01*
X63533Y153234D01*
X63766D01*
X63300Y153001D02*
Y152534D01*
X61400Y141200D02*
X62800D01*
Y140500D01*
X62566Y140267D01*
X62100D01*
X61866Y140500D01*
Y141200D01*
Y140734D02*
X61400Y140267D01*
Y139101D02*
X62800D01*
X62100Y139801D01*
Y138867D01*
X61400Y137701D02*
X62800D01*
X62100Y138401D01*
Y137468D01*
X58000Y141200D02*
X59399D01*
Y140500D01*
X59166Y140267D01*
X58700D01*
X58467Y140500D01*
Y141200D01*
Y140734D02*
X58000Y140267D01*
X59399Y138867D02*
Y139801D01*
X58700D01*
X58933Y139334D01*
Y139101D01*
X58700Y138867D01*
X58233D01*
X58000Y139101D01*
Y139567D01*
X58233Y139801D01*
X59166Y138401D02*
X59399Y138168D01*
Y137701D01*
X59166Y137468D01*
X58933D01*
X58700Y137701D01*
X58467Y137468D01*
X58233D01*
X58000Y137701D01*
Y138168D01*
X58233Y138401D01*
X58467D01*
X58700Y138168D01*
X58933Y138401D01*
X59166D01*
X58700Y138168D02*
Y137701D01*
X8433Y159066D02*
X8200Y159300D01*
X7733D01*
X7500Y159066D01*
Y158833D01*
X7733Y158600D01*
X8200D01*
X8433Y158367D01*
Y158133D01*
X8200Y157900D01*
X7733D01*
X7500Y158133D01*
X8900Y157900D02*
X9366D01*
X9133D01*
Y159300D01*
X8900Y159066D01*
X27433Y94999D02*
X26967D01*
X27200D01*
Y93833D01*
X26967Y93600D01*
X26733D01*
X26500Y93833D01*
X27900Y94766D02*
X28133Y94999D01*
X28599D01*
X28833Y94766D01*
Y94533D01*
X28599Y94300D01*
X28366D01*
X28599D01*
X28833Y94067D01*
Y93833D01*
X28599Y93600D01*
X28133D01*
X27900Y93833D01*
X59710Y15489D02*
Y14090D01*
X60643D01*
X62043Y15489D02*
X61110D01*
Y14790D01*
X61576Y15023D01*
X61809D01*
X62043Y14790D01*
Y14323D01*
X61809Y14090D01*
X61343D01*
X61110Y14323D01*
X51283Y22534D02*
X51500Y22750D01*
Y23183D01*
X51283Y23400D01*
X50417D01*
X50200Y23183D01*
Y22750D01*
X50417Y22534D01*
X51283Y22100D02*
X51500Y21884D01*
Y21451D01*
X51283Y21234D01*
X51066D01*
X50850Y21451D01*
X50633Y21234D01*
X50417D01*
X50200Y21451D01*
Y21884D01*
X50417Y22100D01*
X50633D01*
X50850Y21884D01*
X51066Y22100D01*
X51283D01*
X50850Y21884D02*
Y21451D01*
X50200Y19934D02*
Y20801D01*
X51066Y19934D01*
X51283D01*
X51500Y20151D01*
Y20584D01*
X51283Y20801D01*
X60066Y105283D02*
X59850Y105500D01*
X59417D01*
X59200Y105283D01*
Y104417D01*
X59417Y104200D01*
X59850D01*
X60066Y104417D01*
X61366Y105500D02*
X60500D01*
Y104850D01*
X60933Y105066D01*
X61149D01*
X61366Y104850D01*
Y104417D01*
X61149Y104200D01*
X60716D01*
X60500Y104417D01*
X61799Y105283D02*
X62016Y105500D01*
X62449D01*
X62665Y105283D01*
Y105066D01*
X62449Y104850D01*
X62232D01*
X62449D01*
X62665Y104633D01*
Y104417D01*
X62449Y104200D01*
X62016D01*
X61799Y104417D01*
X5300Y7900D02*
Y6733D01*
X5533Y6500D01*
X6000D01*
X6233Y6733D01*
Y7900D01*
X6700Y6500D02*
X7166D01*
X6933D01*
Y7900D01*
X6700Y7666D01*
X7866D02*
X8099Y7900D01*
X8566D01*
X8799Y7666D01*
Y7433D01*
X8566Y7200D01*
X8332D01*
X8566D01*
X8799Y6966D01*
Y6733D01*
X8566Y6500D01*
X8099D01*
X7866Y6733D01*
X11633Y8366D02*
X11400Y8600D01*
X10933D01*
X10700Y8366D01*
Y7433D01*
X10933Y7200D01*
X11400D01*
X11633Y7433D01*
X12100D02*
X12333Y7200D01*
X12799D01*
X13033Y7433D01*
Y8366D01*
X12799Y8600D01*
X12333D01*
X12100Y8366D01*
Y8133D01*
X12333Y7900D01*
X13033D01*
X14432Y8600D02*
X13499D01*
Y7900D01*
X13966Y8133D01*
X14199D01*
X14432Y7900D01*
Y7433D01*
X14199Y7200D01*
X13732D01*
X13499Y7433D01*
X6733Y3966D02*
X6500Y4200D01*
X6033D01*
X5800Y3966D01*
Y3033D01*
X6033Y2800D01*
X6500D01*
X6733Y3033D01*
X7200D02*
X7433Y2800D01*
X7899D01*
X8133Y3033D01*
Y3966D01*
X7899Y4200D01*
X7433D01*
X7200Y3966D01*
Y3733D01*
X7433Y3500D01*
X8133D01*
X9299Y2800D02*
Y4200D01*
X8599Y3500D01*
X9532D01*
X51266Y5067D02*
X51499Y5300D01*
Y5767D01*
X51266Y6000D01*
X50333D01*
X50100Y5767D01*
Y5300D01*
X50333Y5067D01*
X50100Y3901D02*
X51499D01*
X50800Y4600D01*
Y3667D01*
X50100Y3201D02*
Y2734D01*
Y2968D01*
X51499D01*
X51266Y3201D01*
X49433Y16166D02*
X49200Y16399D01*
X48733D01*
X48500Y16166D01*
Y15233D01*
X48733Y15000D01*
X49200D01*
X49433Y15233D01*
X50599Y15000D02*
Y16399D01*
X49900Y15700D01*
X50833D01*
X51299Y16166D02*
X51532Y16399D01*
X51999D01*
X52232Y16166D01*
Y15233D01*
X51999Y15000D01*
X51532D01*
X51299Y15233D01*
Y16166D01*
X19000Y18000D02*
Y16833D01*
X19233Y16600D01*
X19700D01*
X19933Y16833D01*
Y18000D01*
X21333D02*
X20400D01*
Y17300D01*
X20866Y17533D01*
X21099D01*
X21333Y17300D01*
Y16833D01*
X21099Y16600D01*
X20633D01*
X20400Y16833D01*
X27566Y18183D02*
X27350Y18400D01*
X26917D01*
X26700Y18183D01*
Y17317D01*
X26917Y17100D01*
X27350D01*
X27566Y17317D01*
X28000Y18400D02*
X28866D01*
Y18183D01*
X28000Y17317D01*
Y17100D01*
X30166D02*
X29299D01*
X30166Y17966D01*
Y18183D01*
X29949Y18400D01*
X29516D01*
X29299Y18183D01*
X23733Y18166D02*
X23500Y18399D01*
X23033D01*
X22800Y18166D01*
Y17233D01*
X23033Y17000D01*
X23500D01*
X23733Y17233D01*
X25133Y18399D02*
X24666Y18166D01*
X24200Y17700D01*
Y17233D01*
X24433Y17000D01*
X24899D01*
X25133Y17233D01*
Y17467D01*
X24899Y17700D01*
X24200D01*
X25599Y17000D02*
X26066D01*
X25832D01*
Y18399D01*
X25599Y18166D01*
X11266Y20883D02*
X11050Y21100D01*
X10617D01*
X10400Y20883D01*
Y20017D01*
X10617Y19800D01*
X11050D01*
X11266Y20017D01*
X12566Y21100D02*
X12133Y20883D01*
X11700Y20450D01*
Y20017D01*
X11916Y19800D01*
X12349D01*
X12566Y20017D01*
Y20233D01*
X12349Y20450D01*
X11700D01*
X12999Y20883D02*
X13216Y21100D01*
X13649D01*
X13866Y20883D01*
Y20017D01*
X13649Y19800D01*
X13216D01*
X12999Y20017D01*
Y20883D01*
X44983Y21234D02*
X45200Y21450D01*
Y21883D01*
X44983Y22100D01*
X44117D01*
X43900Y21883D01*
Y21450D01*
X44117Y21234D01*
X45200Y19934D02*
Y20800D01*
X44550D01*
X44766Y20367D01*
Y20151D01*
X44550Y19934D01*
X44117D01*
X43900Y20151D01*
Y20584D01*
X44117Y20800D01*
Y19501D02*
X43900Y19284D01*
Y18851D01*
X44117Y18634D01*
X44983D01*
X45200Y18851D01*
Y19284D01*
X44983Y19501D01*
X44766D01*
X44550Y19284D01*
Y18634D01*
X3766Y7867D02*
X3999Y8100D01*
Y8567D01*
X3766Y8800D01*
X2833D01*
X2600Y8567D01*
Y8100D01*
X2833Y7867D01*
X3999Y6467D02*
Y7400D01*
X3300D01*
X3533Y6934D01*
Y6701D01*
X3300Y6467D01*
X2833D01*
X2600Y6701D01*
Y7167D01*
X2833Y7400D01*
X3999Y6001D02*
Y5068D01*
X3766D01*
X2833Y6001D01*
X2600D01*
X35266Y19067D02*
X35500Y19300D01*
Y19767D01*
X35266Y20000D01*
X34333D01*
X34100Y19767D01*
Y19300D01*
X34333Y19067D01*
X35266Y18600D02*
X35500Y18367D01*
Y17901D01*
X35266Y17667D01*
X35033D01*
X34800Y17901D01*
Y18134D01*
Y17901D01*
X34567Y17667D01*
X34333D01*
X34100Y17901D01*
Y18367D01*
X34333Y18600D01*
X35500Y17201D02*
Y16268D01*
X35266D01*
X34333Y17201D01*
X34100D01*
X17483Y21834D02*
X17700Y22050D01*
Y22483D01*
X17483Y22700D01*
X16617D01*
X16400Y22483D01*
Y22050D01*
X16617Y21834D01*
X16400Y21400D02*
Y20967D01*
Y21184D01*
X17700D01*
X17483Y21400D01*
X17700Y19451D02*
X17483Y19884D01*
X17050Y20317D01*
X16617D01*
X16400Y20101D01*
Y19668D01*
X16617Y19451D01*
X16833D01*
X17050Y19668D01*
Y20317D01*
X44100Y2799D02*
Y1633D01*
X44333Y1400D01*
X44800D01*
X45033Y1633D01*
Y2799D01*
X45500Y1400D02*
X45966D01*
X45733D01*
Y2799D01*
X45500Y2566D01*
X46666Y1400D02*
X47132D01*
X46899D01*
Y2799D01*
X46666Y2566D01*
X61633Y46366D02*
X61400Y46600D01*
X60933D01*
X60700Y46366D01*
Y45433D01*
X60933Y45200D01*
X61400D01*
X61633Y45433D01*
X62799Y45200D02*
Y46600D01*
X62099Y45900D01*
X63033D01*
X63499Y46600D02*
X64432D01*
Y46366D01*
X63499Y45433D01*
Y45200D01*
X44633Y44466D02*
X44400Y44699D01*
X43933D01*
X43700Y44466D01*
Y43533D01*
X43933Y43300D01*
X44400D01*
X44633Y43533D01*
X45099Y44466D02*
X45333Y44699D01*
X45799D01*
X46033Y44466D01*
Y44233D01*
X45799Y44000D01*
X46033Y43766D01*
Y43533D01*
X45799Y43300D01*
X45333D01*
X45099Y43533D01*
Y43766D01*
X45333Y44000D01*
X45099Y44233D01*
Y44466D01*
X45333Y44000D02*
X45799D01*
X47432Y44699D02*
X46966Y44466D01*
X46499Y44000D01*
Y43533D01*
X46732Y43300D01*
X47199D01*
X47432Y43533D01*
Y43766D01*
X47199Y44000D01*
X46499D01*
X44933Y36766D02*
X44700Y36999D01*
X44233D01*
X44000Y36766D01*
Y35833D01*
X44233Y35600D01*
X44700D01*
X44933Y35833D01*
X45399Y36766D02*
X45633Y36999D01*
X46099D01*
X46333Y36766D01*
Y36533D01*
X46099Y36300D01*
X46333Y36066D01*
Y35833D01*
X46099Y35600D01*
X45633D01*
X45399Y35833D01*
Y36066D01*
X45633Y36300D01*
X45399Y36533D01*
Y36766D01*
X45633Y36300D02*
X46099D01*
X47732Y36999D02*
X46799D01*
Y36300D01*
X47266Y36533D01*
X47499D01*
X47732Y36300D01*
Y35833D01*
X47499Y35600D01*
X47032D01*
X46799Y35833D01*
X54933Y123566D02*
X54700Y123800D01*
X54233D01*
X54000Y123566D01*
Y122633D01*
X54233Y122400D01*
X54700D01*
X54933Y122633D01*
X55400Y122400D02*
X55866D01*
X55633D01*
Y123800D01*
X55400Y123566D01*
X56566Y122400D02*
X57032D01*
X56799D01*
Y123800D01*
X56566Y123566D01*
X46133Y84666D02*
X45900Y84899D01*
X45433D01*
X45200Y84666D01*
Y83733D01*
X45433Y83500D01*
X45900D01*
X46133Y83733D01*
X46600D02*
X46833Y83500D01*
X47299D01*
X47533Y83733D01*
Y84666D01*
X47299Y84899D01*
X46833D01*
X46600Y84666D01*
Y84433D01*
X46833Y84200D01*
X47533D01*
X59433Y70866D02*
X59200Y71100D01*
X58733D01*
X58500Y70866D01*
Y69933D01*
X58733Y69700D01*
X59200D01*
X59433Y69933D01*
X59899Y69700D02*
X60366D01*
X60133D01*
Y71100D01*
X59899Y70866D01*
X61066D02*
X61299Y71100D01*
X61766D01*
X61999Y70866D01*
Y69933D01*
X61766Y69700D01*
X61299D01*
X61066Y69933D01*
Y70866D01*
X55333Y116466D02*
X55100Y116700D01*
X54633D01*
X54400Y116466D01*
Y115533D01*
X54633Y115300D01*
X55100D01*
X55333Y115533D01*
X55800Y116466D02*
X56033Y116700D01*
X56499D01*
X56733Y116466D01*
Y116233D01*
X56499Y116000D01*
X56733Y115767D01*
Y115533D01*
X56499Y115300D01*
X56033D01*
X55800Y115533D01*
Y115767D01*
X56033Y116000D01*
X55800Y116233D01*
Y116466D01*
X56033Y116000D02*
X56499D01*
X47366Y33267D02*
X47600Y33500D01*
Y33967D01*
X47366Y34200D01*
X46433D01*
X46200Y33967D01*
Y33500D01*
X46433Y33267D01*
X47366Y32800D02*
X47600Y32567D01*
Y32101D01*
X47366Y31867D01*
X47133D01*
X46900Y32101D01*
Y32334D01*
Y32101D01*
X46666Y31867D01*
X46433D01*
X46200Y32101D01*
Y32567D01*
X46433Y32800D01*
X47366Y31401D02*
X47600Y31168D01*
Y30701D01*
X47366Y30468D01*
X47133D01*
X46900Y30701D01*
X46666Y30468D01*
X46433D01*
X46200Y30701D01*
Y31168D01*
X46433Y31401D01*
X46666D01*
X46900Y31168D01*
X47133Y31401D01*
X47366D01*
X46900Y31168D02*
Y30701D01*
X40433Y102166D02*
X40200Y102400D01*
X39733D01*
X39500Y102166D01*
Y101233D01*
X39733Y101000D01*
X40200D01*
X40433Y101233D01*
X41833Y102400D02*
X40900D01*
Y101700D01*
X41366Y101933D01*
X41599D01*
X41833Y101700D01*
Y101233D01*
X41599Y101000D01*
X41133D01*
X40900Y101233D01*
X42299Y102166D02*
X42532Y102400D01*
X42999D01*
X43232Y102166D01*
Y101233D01*
X42999Y101000D01*
X42532D01*
X42299Y101233D01*
Y102166D01*
X32266Y123767D02*
X32500Y124000D01*
Y124467D01*
X32266Y124700D01*
X31333D01*
X31100Y124467D01*
Y124000D01*
X31333Y123767D01*
X32500Y122367D02*
Y123301D01*
X31800D01*
X32033Y122834D01*
Y122601D01*
X31800Y122367D01*
X31333D01*
X31100Y122601D01*
Y123067D01*
X31333Y123301D01*
X31100Y120968D02*
Y121901D01*
X32033Y120968D01*
X32266D01*
X32500Y121201D01*
Y121668D01*
X32266Y121901D01*
X33266Y102367D02*
X33500Y102600D01*
Y103067D01*
X33266Y103300D01*
X32333D01*
X32100Y103067D01*
Y102600D01*
X32333Y102367D01*
X33500Y101900D02*
Y100967D01*
X33266D01*
X32333Y101900D01*
X32100D01*
X33500Y100501D02*
Y99568D01*
X33266D01*
X32333Y100501D01*
X32100D01*
X50166Y42467D02*
X50400Y42700D01*
Y43167D01*
X50166Y43400D01*
X49233D01*
X49000Y43167D01*
Y42700D01*
X49233Y42467D01*
X50400Y42000D02*
Y41067D01*
X50166D01*
X49233Y42000D01*
X49000D01*
X50166Y40601D02*
X50400Y40368D01*
Y39901D01*
X50166Y39668D01*
X49933D01*
X49700Y39901D01*
X49466Y39668D01*
X49233D01*
X49000Y39901D01*
Y40368D01*
X49233Y40601D01*
X49466D01*
X49700Y40368D01*
X49933Y40601D01*
X50166D01*
X49700Y40368D02*
Y39901D01*
X61400Y81499D02*
Y80100D01*
X62100D01*
X62333Y80333D01*
Y81266D01*
X62100Y81499D01*
X61400D01*
X62800Y80100D02*
X63266D01*
X63033D01*
Y81499D01*
X62800Y81266D01*
X61300Y75200D02*
Y73800D01*
X62000D01*
X62233Y74033D01*
Y74966D01*
X62000Y75200D01*
X61300D01*
X63633Y73800D02*
X62700D01*
X63633Y74733D01*
Y74966D01*
X63399Y75200D01*
X62933D01*
X62700Y74966D01*
X50700Y89899D02*
Y88500D01*
X51633D01*
X53033D02*
X52100D01*
X53033Y89433D01*
Y89666D01*
X52799Y89899D01*
X52333D01*
X52100Y89666D01*
X30700Y131100D02*
Y132500D01*
X31400D01*
X31633Y132266D01*
Y131800D01*
X31400Y131567D01*
X30700D01*
X31166D02*
X31633Y131100D01*
X32100D02*
X32566D01*
X32333D01*
Y132500D01*
X32100Y132266D01*
X33266Y131100D02*
X33732D01*
X33499D01*
Y132500D01*
X33266Y132266D01*
X39900Y135200D02*
Y136600D01*
X40600D01*
X40833Y136366D01*
Y135900D01*
X40600Y135667D01*
X39900D01*
X40367D02*
X40833Y135200D01*
X41300D02*
X41766D01*
X41533D01*
Y136600D01*
X41300Y136366D01*
X43399Y135200D02*
X42466D01*
X43399Y136133D01*
Y136366D01*
X43166Y136600D01*
X42699D01*
X42466Y136366D01*
X39500Y120500D02*
Y121899D01*
X40200D01*
X40433Y121666D01*
Y121200D01*
X40200Y120966D01*
X39500D01*
X39966D02*
X40433Y120500D01*
X40900D02*
X41366D01*
X41133D01*
Y121899D01*
X40900Y121666D01*
X42066Y121899D02*
X42999D01*
Y121666D01*
X42066Y120733D01*
Y120500D01*
X41700Y128900D02*
Y130299D01*
X42400D01*
X42633Y130066D01*
Y129600D01*
X42400Y129367D01*
X41700D01*
X42167D02*
X42633Y128900D01*
X43099D02*
X43566D01*
X43333D01*
Y130299D01*
X43099Y130066D01*
X44266Y129133D02*
X44499Y128900D01*
X44966D01*
X45199Y129133D01*
Y130066D01*
X44966Y130299D01*
X44499D01*
X44266Y130066D01*
Y129833D01*
X44499Y129600D01*
X45199D01*
X2699Y30100D02*
X1533D01*
X1300Y29867D01*
Y29400D01*
X1533Y29167D01*
X2699D01*
X2466Y28701D02*
X2699Y28467D01*
Y28001D01*
X2466Y27767D01*
X2233D01*
X2000Y28001D01*
Y28234D01*
Y28001D01*
X1767Y27767D01*
X1533D01*
X1300Y28001D01*
Y28467D01*
X1533Y28701D01*
X44700Y120399D02*
Y119233D01*
X44933Y119000D01*
X45400D01*
X45633Y119233D01*
Y120399D01*
X46099D02*
X47033D01*
Y120166D01*
X46099Y119233D01*
Y119000D01*
X53600Y73199D02*
Y72033D01*
X53833Y71800D01*
X54300D01*
X54533Y72033D01*
Y73199D01*
X55699Y71800D02*
Y73199D01*
X55000Y72500D01*
X55933D01*
X54866Y25667D02*
X55099Y25900D01*
Y26367D01*
X54866Y26600D01*
X53933D01*
X53700Y26367D01*
Y25900D01*
X53933Y25667D01*
X54866Y25201D02*
X55099Y24967D01*
Y24501D01*
X54866Y24267D01*
X54633D01*
X54400Y24501D01*
X54167Y24267D01*
X53933D01*
X53700Y24501D01*
Y24967D01*
X53933Y25201D01*
X54167D01*
X54400Y24967D01*
X54633Y25201D01*
X54866D01*
X54400Y24967D02*
Y24501D01*
X53700Y23801D02*
Y23334D01*
Y23568D01*
X55099D01*
X54866Y23801D01*
X4000Y75899D02*
Y74500D01*
X4700D01*
X4933Y74733D01*
Y75666D01*
X4700Y75899D01*
X4000D01*
X5399Y75666D02*
X5633Y75899D01*
X6099D01*
X6333Y75666D01*
Y75433D01*
X6099Y75200D01*
X5866D01*
X6099D01*
X6333Y74967D01*
Y74733D01*
X6099Y74500D01*
X5633D01*
X5399Y74733D01*
X3700Y71299D02*
Y69900D01*
X4400D01*
X4633Y70133D01*
Y71066D01*
X4400Y71299D01*
X3700D01*
X5799Y69900D02*
Y71299D01*
X5099Y70600D01*
X6033D01*
X8000Y118200D02*
Y119599D01*
X8700D01*
X8933Y119366D01*
Y118900D01*
X8700Y118667D01*
X8000D01*
X8467D02*
X8933Y118200D01*
X9400D02*
X9866D01*
X9633D01*
Y119599D01*
X9400Y119366D01*
X11499Y119599D02*
X10566D01*
Y118900D01*
X11032Y119133D01*
X11266D01*
X11499Y118900D01*
Y118433D01*
X11266Y118200D01*
X10799D01*
X10566Y118433D01*
X7700Y126500D02*
Y127900D01*
X8400D01*
X8633Y127666D01*
Y127200D01*
X8400Y126967D01*
X7700D01*
X8167D02*
X8633Y126500D01*
X9100Y127666D02*
X9333Y127900D01*
X9799D01*
X10033Y127666D01*
Y127433D01*
X9799Y127200D01*
X9566D01*
X9799D01*
X10033Y126967D01*
Y126733D01*
X9799Y126500D01*
X9333D01*
X9100Y126733D01*
X10499Y126500D02*
X10966D01*
X10732D01*
Y127900D01*
X10499Y127666D01*
X9300Y70999D02*
Y69833D01*
X9533Y69600D01*
X10000D01*
X10233Y69833D01*
Y70999D01*
X11633Y69600D02*
X10700D01*
X11633Y70533D01*
Y70766D01*
X11399Y70999D01*
X10933D01*
X10700Y70766D01*
X16800Y68000D02*
Y66833D01*
X17033Y66600D01*
X17500D01*
X17733Y66833D01*
Y68000D01*
X19133D02*
X18666Y67766D01*
X18200Y67300D01*
Y66833D01*
X18433Y66600D01*
X18899D01*
X19133Y66833D01*
Y67067D01*
X18899Y67300D01*
X18200D01*
X57400Y26700D02*
Y25533D01*
X57633Y25300D01*
X58100D01*
X58333Y25533D01*
Y26700D01*
X58799Y25300D02*
X59266D01*
X59033D01*
Y26700D01*
X58799Y26466D01*
X60899Y25300D02*
X59966D01*
X60899Y26233D01*
Y26466D01*
X60666Y26700D01*
X60199D01*
X59966Y26466D01*
X31733Y77666D02*
X31500Y77899D01*
X31033D01*
X30800Y77666D01*
Y76733D01*
X31033Y76500D01*
X31500D01*
X31733Y76733D01*
X32899Y76500D02*
Y77899D01*
X32199Y77200D01*
X33133D01*
X34532Y76500D02*
X33599D01*
X34532Y77433D01*
Y77666D01*
X34299Y77899D01*
X33832D01*
X33599Y77666D01*
X5533Y85666D02*
X5300Y85900D01*
X4833D01*
X4600Y85666D01*
Y84733D01*
X4833Y84500D01*
X5300D01*
X5533Y84733D01*
X6699Y84500D02*
Y85900D01*
X5999Y85200D01*
X6933D01*
X7399Y85666D02*
X7632Y85900D01*
X8099D01*
X8332Y85666D01*
Y85433D01*
X8099Y85200D01*
X7866D01*
X8099D01*
X8332Y84966D01*
Y84733D01*
X8099Y84500D01*
X7632D01*
X7399Y84733D01*
X21266Y67467D02*
X21499Y67700D01*
Y68167D01*
X21266Y68400D01*
X20333D01*
X20100Y68167D01*
Y67700D01*
X20333Y67467D01*
X20100Y66301D02*
X21499D01*
X20800Y67001D01*
Y66067D01*
X21499Y64668D02*
Y65601D01*
X20800D01*
X21033Y65134D01*
Y64901D01*
X20800Y64668D01*
X20333D01*
X20100Y64901D01*
Y65368D01*
X20333Y65601D01*
X28933Y82066D02*
X28700Y82300D01*
X28233D01*
X28000Y82066D01*
Y81133D01*
X28233Y80900D01*
X28700D01*
X28933Y81133D01*
X30099Y80900D02*
Y82300D01*
X29399Y81600D01*
X30333D01*
X31732Y82300D02*
X31266Y82066D01*
X30799Y81600D01*
Y81133D01*
X31032Y80900D01*
X31499D01*
X31732Y81133D01*
Y81366D01*
X31499Y81600D01*
X30799D01*
X45433Y46666D02*
X45200Y46900D01*
X44733D01*
X44500Y46666D01*
Y45733D01*
X44733Y45500D01*
X45200D01*
X45433Y45733D01*
X46599Y45500D02*
Y46900D01*
X45900Y46200D01*
X46833D01*
X47299Y46666D02*
X47532Y46900D01*
X47999D01*
X48232Y46666D01*
Y46433D01*
X47999Y46200D01*
X48232Y45967D01*
Y45733D01*
X47999Y45500D01*
X47532D01*
X47299Y45733D01*
Y45967D01*
X47532Y46200D01*
X47299Y46433D01*
Y46666D01*
X47532Y46200D02*
X47999D01*
X2400Y89200D02*
X3799D01*
Y88500D01*
X3566Y88267D01*
X3100D01*
X2867Y88500D01*
Y89200D01*
Y88734D02*
X2400Y88267D01*
X3566Y87801D02*
X3799Y87567D01*
Y87101D01*
X3566Y86867D01*
X3333D01*
X3100Y87101D01*
Y87334D01*
Y87101D01*
X2867Y86867D01*
X2633D01*
X2400Y87101D01*
Y87567D01*
X2633Y87801D01*
X3799Y85468D02*
X3566Y85934D01*
X3100Y86401D01*
X2633D01*
X2400Y86168D01*
Y85701D01*
X2633Y85468D01*
X2867D01*
X3100Y85701D01*
Y86401D01*
X8800Y105100D02*
X10200D01*
Y104400D01*
X9966Y104167D01*
X9500D01*
X9267Y104400D01*
Y105100D01*
Y104633D02*
X8800Y104167D01*
X9966Y103700D02*
X10200Y103467D01*
Y103001D01*
X9966Y102767D01*
X9733D01*
X9500Y103001D01*
Y103234D01*
Y103001D01*
X9267Y102767D01*
X9033D01*
X8800Y103001D01*
Y103467D01*
X9033Y103700D01*
X10200Y102301D02*
Y101368D01*
X9966D01*
X9033Y102301D01*
X8800D01*
X2800Y78800D02*
Y80199D01*
X3500D01*
X3733Y79966D01*
Y79500D01*
X3500Y79267D01*
X2800D01*
X3266D02*
X3733Y78800D01*
X4200Y79966D02*
X4433Y80199D01*
X4899D01*
X5133Y79966D01*
Y79733D01*
X4899Y79500D01*
X4666D01*
X4899D01*
X5133Y79267D01*
Y79033D01*
X4899Y78800D01*
X4433D01*
X4200Y79033D01*
X5599Y79966D02*
X5832Y80199D01*
X6299D01*
X6532Y79966D01*
Y79733D01*
X6299Y79500D01*
X6532Y79267D01*
Y79033D01*
X6299Y78800D01*
X5832D01*
X5599Y79033D01*
Y79267D01*
X5832Y79500D01*
X5599Y79733D01*
Y79966D01*
X5832Y79500D02*
X6299D01*
X27100Y68000D02*
Y69399D01*
X27800D01*
X28033Y69166D01*
Y68700D01*
X27800Y68467D01*
X27100D01*
X27566D02*
X28033Y68000D01*
X29199D02*
Y69399D01*
X28499Y68700D01*
X29433D01*
X29899Y69166D02*
X30132Y69399D01*
X30599D01*
X30832Y69166D01*
Y68233D01*
X30599Y68000D01*
X30132D01*
X29899Y68233D01*
Y69166D01*
X27100Y66100D02*
Y67500D01*
X27800D01*
X28033Y67266D01*
Y66800D01*
X27800Y66566D01*
X27100D01*
X27566D02*
X28033Y66100D01*
X29199D02*
Y67500D01*
X28499Y66800D01*
X29433D01*
X30832Y66100D02*
X29899D01*
X30832Y67033D01*
Y67266D01*
X30599Y67500D01*
X30132D01*
X29899Y67266D01*
X21000Y94000D02*
Y95399D01*
X21700D01*
X21933Y95166D01*
Y94700D01*
X21700Y94467D01*
X21000D01*
X21466D02*
X21933Y94000D01*
X23099D02*
Y95399D01*
X22400Y94700D01*
X23333D01*
X24732Y95399D02*
X24266Y95166D01*
X23799Y94700D01*
Y94233D01*
X24032Y94000D01*
X24499D01*
X24732Y94233D01*
Y94467D01*
X24499Y94700D01*
X23799D01*
X5000Y105400D02*
X6400D01*
Y104700D01*
X6166Y104467D01*
X5700D01*
X5466Y104700D01*
Y105400D01*
Y104934D02*
X5000Y104467D01*
Y103301D02*
X6400D01*
X5700Y104000D01*
Y103067D01*
X6400Y102601D02*
Y101668D01*
X6166D01*
X5233Y102601D01*
X5000D01*
X31100Y91800D02*
X32500D01*
Y91100D01*
X32266Y90867D01*
X31800D01*
X31567Y91100D01*
Y91800D01*
Y91334D02*
X31100Y90867D01*
Y89701D02*
X32500D01*
X31800Y90400D01*
Y89467D01*
X32266Y89001D02*
X32500Y88768D01*
Y88301D01*
X32266Y88068D01*
X32033D01*
X31800Y88301D01*
X31567Y88068D01*
X31333D01*
X31100Y88301D01*
Y88768D01*
X31333Y89001D01*
X31567D01*
X31800Y88768D01*
X32033Y89001D01*
X32266D01*
X31800Y88768D02*
Y88301D01*
X44400Y71700D02*
X45799D01*
Y71000D01*
X45566Y70767D01*
X45100D01*
X44866Y71000D01*
Y71700D01*
Y71233D02*
X44400Y70767D01*
Y69601D02*
X45799D01*
X45100Y70301D01*
Y69367D01*
X44633Y68901D02*
X44400Y68668D01*
Y68201D01*
X44633Y67968D01*
X45566D01*
X45799Y68201D01*
Y68668D01*
X45566Y68901D01*
X45333D01*
X45100Y68668D01*
Y67968D01*
X32500Y65200D02*
Y66600D01*
X33200D01*
X33433Y66366D01*
Y65900D01*
X33200Y65667D01*
X32500D01*
X32967D02*
X33433Y65200D01*
X34833Y66600D02*
X33900D01*
Y65900D01*
X34366Y66133D01*
X34599D01*
X34833Y65900D01*
Y65433D01*
X34599Y65200D01*
X34133D01*
X33900Y65433D01*
X35299Y66366D02*
X35532Y66600D01*
X35999D01*
X36232Y66366D01*
Y65433D01*
X35999Y65200D01*
X35532D01*
X35299Y65433D01*
Y66366D01*
X32600Y67400D02*
Y68800D01*
X33300D01*
X33533Y68566D01*
Y68100D01*
X33300Y67866D01*
X32600D01*
X33066D02*
X33533Y67400D01*
X34933Y68800D02*
X33999D01*
Y68100D01*
X34466Y68333D01*
X34699D01*
X34933Y68100D01*
Y67633D01*
X34699Y67400D01*
X34233D01*
X33999Y67633D01*
X35399Y67400D02*
X35866D01*
X35632D01*
Y68800D01*
X35399Y68566D01*
X44500Y64800D02*
X45900D01*
Y64100D01*
X45666Y63867D01*
X45200D01*
X44967Y64100D01*
Y64800D01*
Y64333D02*
X44500Y63867D01*
X45900Y62467D02*
Y63401D01*
X45200D01*
X45433Y62934D01*
Y62701D01*
X45200Y62467D01*
X44733D01*
X44500Y62701D01*
Y63167D01*
X44733Y63401D01*
X44500Y61301D02*
X45900D01*
X45200Y62001D01*
Y61068D01*
X62300Y51600D02*
X63700D01*
Y50900D01*
X63466Y50667D01*
X63000D01*
X62766Y50900D01*
Y51600D01*
Y51134D02*
X62300Y50667D01*
X63700Y49267D02*
Y50200D01*
X63000D01*
X63233Y49734D01*
Y49501D01*
X63000Y49267D01*
X62533D01*
X62300Y49501D01*
Y49967D01*
X62533Y50200D01*
X63700Y47868D02*
Y48801D01*
X63000D01*
X63233Y48334D01*
Y48101D01*
X63000Y47868D01*
X62533D01*
X62300Y48101D01*
Y48568D01*
X62533Y48801D01*
X62300Y60100D02*
X63700D01*
Y59400D01*
X63466Y59167D01*
X63000D01*
X62766Y59400D01*
Y60100D01*
Y59633D02*
X62300Y59167D01*
X63700Y57767D02*
Y58701D01*
X63000D01*
X63233Y58234D01*
Y58001D01*
X63000Y57767D01*
X62533D01*
X62300Y58001D01*
Y58467D01*
X62533Y58701D01*
X63700Y56368D02*
X63466Y56834D01*
X63000Y57301D01*
X62533D01*
X62300Y57068D01*
Y56601D01*
X62533Y56368D01*
X62766D01*
X63000Y56601D01*
Y57301D01*
X62400Y67700D02*
X63800D01*
Y67000D01*
X63566Y66767D01*
X63100D01*
X62866Y67000D01*
Y67700D01*
Y67234D02*
X62400Y66767D01*
X63800Y65367D02*
Y66300D01*
X63100D01*
X63333Y65834D01*
Y65601D01*
X63100Y65367D01*
X62633D01*
X62400Y65601D01*
Y66067D01*
X62633Y66300D01*
X63800Y64901D02*
Y63968D01*
X63566D01*
X62633Y64901D01*
X62400D01*
X45500Y58400D02*
X44333D01*
X44100Y58167D01*
Y57700D01*
X44333Y57467D01*
X45500D01*
X44100Y57000D02*
Y56534D01*
Y56767D01*
X45500D01*
X45266Y57000D01*
X44100Y55134D02*
X45500D01*
X44800Y55834D01*
Y54901D01*
X8900Y93599D02*
Y92433D01*
X9133Y92200D01*
X9600D01*
X9833Y92433D01*
Y93599D01*
X10300Y93366D02*
X10533Y93599D01*
X10999D01*
X11233Y93366D01*
Y93133D01*
X10999Y92900D01*
X11233Y92667D01*
Y92433D01*
X10999Y92200D01*
X10533D01*
X10300Y92433D01*
Y92667D01*
X10533Y92900D01*
X10300Y93133D01*
Y93366D01*
X10533Y92900D02*
X10999D01*
X59500Y72200D02*
Y73133D01*
X59966Y73599D01*
X60433Y73133D01*
Y72200D01*
Y72900D01*
X59500D01*
Y78600D02*
Y79533D01*
X59966Y80000D01*
X60433Y79533D01*
Y78600D01*
Y79300D01*
X59500D01*
X59900Y82700D02*
Y81900D01*
Y82167D01*
X60433Y82700D01*
X60033Y82300D01*
X60433Y81900D01*
X59700Y76400D02*
Y75600D01*
Y75867D01*
X60233Y76400D01*
X59833Y76000D01*
X60233Y75600D01*
X-1969Y-41908D02*
X-1036D01*
X-1502D01*
Y-43307D01*
X-336D02*
X131D01*
X364Y-43074D01*
Y-42607D01*
X131Y-42374D01*
X-336D01*
X-569Y-42607D01*
Y-43074D01*
X-336Y-43307D01*
X831Y-43774D02*
Y-42374D01*
X1530D01*
X1764Y-42607D01*
Y-43074D01*
X1530Y-43307D01*
X831D01*
X4329Y-41908D02*
X3863D01*
X3630Y-42141D01*
Y-43074D01*
X3863Y-43307D01*
X4329D01*
X4563Y-43074D01*
Y-42141D01*
X4329Y-41908D01*
X5029Y-42374D02*
X5496Y-43307D01*
X5962Y-42374D01*
X7129Y-43307D02*
X6662D01*
X6429Y-43074D01*
Y-42607D01*
X6662Y-42374D01*
X7129D01*
X7362Y-42607D01*
Y-42841D01*
X6429D01*
X7828Y-42374D02*
Y-43307D01*
Y-42841D01*
X8062Y-42607D01*
X8295Y-42374D01*
X8528D01*
X9228Y-43307D02*
X9694D01*
X9461D01*
Y-41908D01*
X9228D01*
X10627Y-42374D02*
X11094D01*
X11327Y-42607D01*
Y-43307D01*
X10627D01*
X10394Y-43074D01*
X10627Y-42841D01*
X11327D01*
X11794Y-42374D02*
Y-43074D01*
X12027Y-43307D01*
X12727D01*
Y-43540D01*
X12494Y-43774D01*
X12260D01*
X12727Y-43307D02*
Y-42374D01*
X3400Y77700D02*
Y76900D01*
Y77167D01*
X3933Y77700D01*
X3533Y77300D01*
X3933Y76900D01*
X7600Y73400D02*
Y74333D01*
X8066Y74800D01*
X8533Y74333D01*
Y73400D01*
Y74100D01*
X7600D01*
X1500Y68700D02*
Y67900D01*
Y68167D01*
X2033Y68700D01*
X1633Y68300D01*
X2033Y67900D01*
X7800Y70800D02*
Y71733D01*
X8266Y72199D01*
X8733Y71733D01*
Y70800D01*
Y71500D01*
X7800D01*
D55*
X58000Y72300D02*
G03*
X58000Y72300I-492J0D01*
G01*
X64100Y88200D02*
Y93200D01*
X57100Y88200D02*
Y93200D01*
X56100Y102400D02*
Y107400D01*
X49100Y102400D02*
Y107400D01*
X52000Y34500D02*
X57000D01*
X52000Y27500D02*
X57000D01*
X53200Y119700D02*
X58200D01*
X53200Y112700D02*
X58200D01*
X53200Y119800D02*
X58200D01*
X53200Y126800D02*
X58200D01*
X56800Y102400D02*
Y107400D01*
X63800Y102400D02*
Y107400D01*
X53200Y14000D02*
X58200D01*
X53200Y7000D02*
X58200D01*
X60816Y83663D02*
X63871D01*
X36319Y19000D02*
X38681D01*
X15000Y5500D02*
Y10500D01*
X10000Y5500D02*
Y10500D01*
X60916Y77563D02*
X63971D01*
X1957Y73677D02*
Y76732D01*
X2037Y69316D02*
Y72371D01*
X54700Y35900D02*
X59700D01*
X54700Y42900D02*
X59700D01*
X33300Y122600D02*
Y127600D01*
X38300Y122600D02*
Y127600D01*
X14819Y19000D02*
X17181D01*
X48300Y98100D02*
X46700D01*
Y97034D01*
X48300Y95434D02*
X48033Y95967D01*
X47500Y96500D01*
X46967D01*
X46700Y96234D01*
Y95701D01*
X46967Y95434D01*
X47233D01*
X47500Y95701D01*
Y96500D01*
X3601Y130200D02*
X6600D01*
Y131700D01*
X6100Y132199D01*
X5600D01*
X5100Y131700D01*
Y130200D01*
Y131700D01*
X4601Y132199D01*
X4101D01*
X3601Y131700D01*
Y130200D01*
X4601Y133699D02*
Y134699D01*
X5100Y135198D01*
X6600D01*
Y133699D01*
X6100Y133199D01*
X5600Y133699D01*
Y135198D01*
X4101Y136698D02*
X4601D01*
Y136198D01*
Y137198D01*
Y136698D01*
X6100D01*
X6600Y137198D01*
Y141696D02*
X3601D01*
X4601Y142696D01*
X3601Y143696D01*
X6600D01*
Y145195D02*
Y146195D01*
X6100Y146695D01*
X5100D01*
X4601Y146195D01*
Y145195D01*
X5100Y144695D01*
X6100D01*
X6600Y145195D01*
X3601Y149694D02*
X6600D01*
Y148194D01*
X6100Y147694D01*
X5100D01*
X4601Y148194D01*
Y149694D01*
Y150693D02*
X6100D01*
X6600Y151193D01*
Y152693D01*
X4601D01*
X6600Y153692D02*
Y154692D01*
Y154192D01*
X3601D01*
Y153692D01*
X6600Y157691D02*
Y156691D01*
X6100Y156192D01*
X5100D01*
X4601Y156691D01*
Y157691D01*
X5100Y158191D01*
X5600D01*
Y156192D01*
D77*
X8028Y64832D02*
G03*
X8028Y64832I-197J0D01*
G01*
X56217Y25130D02*
G03*
X56217Y25130I-197J0D01*
G01*
X12328Y64832D02*
G03*
X12328Y64832I-197J0D01*
G01*
X43626Y15390D02*
G03*
X43626Y15390I-197J0D01*
G01*
X4736Y9861D02*
G03*
X4736Y9861I-197J0D01*
G01*
X7831Y68769D02*
X8816D01*
X7831Y67784D02*
Y68769D01*
X11768Y67784D02*
Y68769D01*
X10784D02*
X11768D01*
Y64832D02*
Y65816D01*
X10784Y64832D02*
X11768D01*
X60567Y19284D02*
Y24716D01*
X56433Y19284D02*
X60567D01*
X56433D02*
Y24716D01*
X60567D01*
X15084Y64832D02*
X16069D01*
Y65816D01*
X15084Y68769D02*
X16069D01*
Y67784D02*
Y68769D01*
X12132Y67784D02*
Y68769D01*
X13116D01*
X34374Y14307D02*
X43626D01*
Y2693D02*
Y14307D01*
X34374Y2693D02*
X43626D01*
X34374D02*
Y14307D01*
X7984Y5432D02*
X8969D01*
Y6416D01*
X7984Y9369D02*
X8969D01*
Y8384D02*
Y9369D01*
X5032Y5432D02*
X6016D01*
X5032D02*
Y6416D01*
D78*
X25900Y70300D02*
G03*
X25900Y70300I-492J0D01*
G01*
X37800Y103000D02*
G03*
X37800Y103000I-492J0D01*
G01*
X45862Y24122D02*
G03*
X45862Y24122I-492J0D01*
G01*
X31921Y16933D02*
G03*
X31921Y16933I-492J0D01*
G01*
X10700Y14500D02*
G03*
X10700Y14500I-295J0D01*
G01*
X35000Y73000D02*
G03*
X35000Y73000I-492J0D01*
G01*
D79*
X59713Y154500D02*
X61287D01*
X60900Y147813D02*
Y149387D01*
X56513Y132300D02*
X58087D01*
X61213D02*
X62787D01*
X36200Y133513D02*
Y135087D01*
X43100Y132613D02*
Y134187D01*
X43200Y123013D02*
Y124587D01*
X43300Y126513D02*
Y128087D01*
D80*
X52916Y131532D02*
X54884D01*
Y135468D01*
X52916D02*
X54884D01*
X52916Y131532D02*
Y135468D01*
X47232Y128516D02*
X51169D01*
X47232D02*
Y130484D01*
X51169D01*
Y128516D02*
Y130484D01*
X46684Y73532D02*
Y77469D01*
X44716Y73532D02*
X46684D01*
X44716D02*
Y77469D01*
X46684D01*
X49431Y69516D02*
Y71484D01*
Y69516D02*
X53369D01*
Y71484D01*
X49431D02*
X53369D01*
X53431Y69416D02*
X57368D01*
X53431D02*
Y71384D01*
X57368D01*
Y69416D02*
Y71384D01*
X5226Y120116D02*
X9163D01*
X5226D02*
Y122084D01*
X9163D01*
Y120116D02*
Y122084D01*
X6368Y65816D02*
Y67784D01*
X2431D02*
X6368D01*
X2431Y65816D02*
Y67784D01*
Y65816D02*
X6368D01*
X4429Y93209D02*
X7185D01*
Y86516D02*
Y93209D01*
X4429Y86516D02*
X7185D01*
X4429D02*
Y93209D01*
X64478Y54154D02*
Y60847D01*
X61722D02*
X64478D01*
X61722Y54154D02*
Y60847D01*
Y54154D02*
X64478D01*
X61722Y47354D02*
X64478D01*
X61722D02*
Y54046D01*
X64478D01*
Y47354D02*
Y54046D01*
X43822Y66353D02*
Y73046D01*
Y66353D02*
X46578D01*
Y73046D01*
X43822D02*
X46578D01*
X27722Y84254D02*
X30478D01*
X27722D02*
Y90947D01*
X30478D01*
Y84254D02*
Y90947D01*
X4429Y93602D02*
Y100295D01*
Y93602D02*
X7185D01*
Y100295D01*
X4429D02*
X7185D01*
X12653Y93122D02*
Y95878D01*
X19346D01*
Y93122D02*
Y95878D01*
X12653Y93122D02*
X19346D01*
X26654Y70022D02*
X33346D01*
Y72778D01*
X26654D02*
X33346D01*
X26654Y70022D02*
Y72778D01*
Y73122D02*
Y75878D01*
X33346D01*
Y73122D02*
Y75878D01*
X26654Y73122D02*
X33346D01*
X1154Y78122D02*
X7846D01*
Y80878D01*
X1154D02*
X7846D01*
X1154Y78122D02*
Y80878D01*
X61622Y62253D02*
Y68946D01*
Y62253D02*
X64378D01*
Y68946D01*
X61622D02*
X64378D01*
X8071Y94390D02*
Y100295D01*
Y94390D02*
X11220D01*
Y100295D01*
X8071D02*
X11220D01*
X9263Y123916D02*
Y125884D01*
X5326D02*
X9263D01*
X5326Y123916D02*
Y125884D01*
Y123916D02*
X9263D01*
X47769Y37716D02*
Y39684D01*
X43832Y37716D02*
Y39684D01*
X47769D01*
X43832Y37716D02*
X47769D01*
X43832Y39816D02*
X47769D01*
X43832Y41784D02*
X47769D01*
X43832Y39816D02*
Y41784D01*
X47769Y39816D02*
Y41784D01*
X5531Y2516D02*
Y4484D01*
X9469Y2516D02*
Y4484D01*
X5531Y2516D02*
X9469D01*
X5531Y4484D02*
X9469D01*
D81*
X2119Y9738D02*
X4481D01*
Y4502D02*
Y9738D01*
X2119Y4502D02*
X4481D01*
X2119D02*
Y9738D01*
X22919Y69438D02*
X25281D01*
Y64202D02*
Y69438D01*
X22919Y64202D02*
X25281D01*
X22919D02*
Y69438D01*
X33919Y98702D02*
Y103938D01*
Y98702D02*
X36281D01*
Y103938D01*
X33919D02*
X36281D01*
X62738Y69219D02*
Y71581D01*
X57502Y69219D02*
X62738D01*
X57502D02*
Y71581D01*
X62738D01*
X47381Y77862D02*
Y83098D01*
X45019D02*
X47381D01*
X45019Y77862D02*
Y83098D01*
Y77862D02*
X47381D01*
X27362Y80619D02*
Y82981D01*
X32598D01*
Y80619D02*
Y82981D01*
X27362Y80619D02*
X32598D01*
D82*
X47713Y23200D02*
X49287D01*
X45713Y6500D02*
X47287D01*
X45713Y15000D02*
X47287D01*
X30500Y19213D02*
Y20787D01*
X22000Y19213D02*
Y20787D01*
X11713Y18500D02*
X13287D01*
X41213D02*
X42787D01*
X57200Y45513D02*
Y47087D01*
X44700Y100913D02*
Y102487D01*
X53213Y22500D02*
X54787D01*
X30400Y76913D02*
Y78487D01*
X5240Y81853D02*
Y83428D01*
X50000Y45513D02*
Y47087D01*
D83*
X22696Y71654D02*
X25393D01*
Y72382D01*
X9842Y71654D02*
X12539D01*
X9842D02*
Y72382D01*
Y91142D02*
X12539D01*
X9842Y90414D02*
Y91142D01*
X22696D02*
X25393D01*
Y90414D02*
Y91142D01*
X59806Y48658D02*
Y49543D01*
X58723Y48658D02*
X59806D01*
X47995D02*
Y49543D01*
Y48658D02*
X49077D01*
X47995Y67457D02*
Y68343D01*
X49077D01*
X58723D02*
X59806D01*
Y67457D02*
Y68343D01*
X56367Y73566D02*
X58434D01*
Y73665D01*
Y81735D02*
Y81834D01*
X56367D02*
X58434D01*
X50166D02*
X52233D01*
X50166Y81735D02*
Y81834D01*
Y73566D02*
Y73665D01*
Y73566D02*
X52233D01*
X33807Y104307D02*
X34595D01*
X46406D02*
X47193D01*
Y117693D01*
X46406D02*
X47193D01*
X33807D02*
X34595D01*
X33807Y104307D02*
Y117693D01*
X41379Y23531D02*
X42811Y24963D01*
Y23531D02*
Y62902D01*
X3441Y23531D02*
Y62902D01*
Y23531D02*
X42811D01*
X3441Y62902D02*
X42811D01*
X55209Y88609D02*
Y89790D01*
X48906Y88609D02*
Y89790D01*
X32776Y2854D02*
Y14665D01*
X15453Y2854D02*
Y14665D01*
X39209Y83476D02*
X40391D01*
X39209Y98480D02*
X40391D01*
X2355Y21613D02*
X9245D01*
X2355Y10688D02*
X9245D01*
X42059Y79757D02*
X44028D01*
Y77395D02*
Y79757D01*
X34972D02*
X36941D01*
X34972Y77395D02*
Y79757D01*
M02*
