M48
;Layer_Color=9474304
;FILE_FORMAT=2:5
INCH,LZ
;TYPE=PLATED
T1F00S00C0.00600
T2F00S00C0.01000
T3F00S00C0.06600
%
T01
X00016Y00026
X0003Y00017
X00031Y00037
X00049Y00035
X00073Y00051
X00084Y00021
X00075Y00106
X00055
X00034Y00108
X0005Y00163
X00068Y00162
X0010169Y0016532
X00105Y00182
X00109Y00226
X00126Y00231
X0016Y0023
X00189Y00226
X00211Y00228
X00234Y00225
X00254
X0028532Y0022332
X0032469Y0022368
X0035131Y0020968
X0035Y00154
X0036094Y0014095
X00343Y00133
Y001
Y00073
X00342Y00048
X00346Y00016
X00327Y00015
X00307Y00041
X00288Y0007
X003006Y000876
X0025689Y0007058
X0022539Y0007061
X001939Y000701
X001856Y000876
X00159Y00092
X00164Y00109
Y00126
X00163Y00146
X00144
X00146Y0019116
X00185Y00172
X00201Y00165
X0022289Y0016611
X00268Y00166
X0022539Y0010561
X00158Y00061
X00163Y00045
X00169Y00008
X00186
X0039Y00032
X00404Y00051
X00406Y00095
X00387Y00105
X00426Y00107
X00441Y00118
X0044Y00137
X00443Y00169
X00397Y00166
X00412Y00236
X0043Y00237
X00456
X00511Y00242
X00521Y00224
X00511Y00271
X00469Y00294
X00451
X0040843Y0029437
Y0027468
X0038874
Y00255
X00408
X003522Y002906
X00333Y00291
X0034937Y0031405
X0036906
Y0033374
X0034937
X0030992Y0033361
X0029032Y0033374
Y0031463
X00271Y00315
X00253Y0031495
X0025095Y0033374
X0027055Y0033348
X0027063Y0035342
X0029019Y0035335
X0029019Y0037303
X0031
X0031Y0035335
X0033Y00374
X0036906Y0037311
X00387Y00373
Y0039
X0041Y00392
X00408Y00412
X0043Y0041
X00428Y00388
X00455Y0042333
X00495Y00409
X00496Y00388
X00499Y00361
X00518Y00359
X00568Y00348
X00633Y0035026
X00649Y00341
Y00324
X00632Y00321
X00635Y00297
X00634Y0025
X00641Y00186
X00642Y00166
X00566Y00155
X00567Y00182
X0054Y00183
X00474Y00107
X00456
X0049Y00044
X00483Y0001
X00389Y00354
X00369Y00412
X0034937Y0041248
Y0043216
X0036906
X0038749Y0043251
X00389Y00451
X00408Y00452
X0038874Y0047153
X0036906
X0034937
X00328Y00456
X0030991Y0047144
X0031009Y0049097
X0029024Y004913
X0027055Y0049098
X0025095Y0049122
X0025098Y0051083
X002311Y0051091
X002115Y0051084
X0021158Y0049122
X0023126
X0023117Y0047144
X002311Y0045186
X002115Y0045184
X0019193Y0045177
X0019174Y0043209
X0021124
X0021154Y0041244
X0023114
X0023118Y0043203
X0025095Y0043209
X0025091Y0041244
X0027059
X0029013Y004124
X0029024Y0043208
X0027059Y0043204
X0027055Y004519
X0029009Y0045191
X0031007Y0043194
X0031005Y004124
X0027063Y0039279
X0025082Y0039272
X002311Y0039263
Y0037295
X002115Y0037303
X002115Y0035335
X0021158Y0033374
X00212Y0031495
X00191Y00316
X0019189Y0033374
Y0035342
Y0037311
X0019187Y0039272
X002115Y0039284
X0019163Y004124
X001721Y0041243
X0017213Y0043197
X0015245Y0043209
X0015248Y0041244
X0015289Y0037348
X0017213Y0037297
X0017221Y0035342
Y0033374
X00153Y00334
X0015252Y0035342
X00171Y00314
X0017221Y0027468
X0019189Y0029437
X0021158Y00255
X0023118Y0025492
Y0035335
X0025069Y0037303
X0025095Y0047153
X0027059Y0053047
X0029017Y0053044
X0030999
X0030992Y0055027
X0029048Y0055044
X0029059Y0056944
X0030959Y0056994
X0027063Y0056996
X0025095
Y0055028
X0027059Y0055024
X002115Y005502
X0021158Y0053059
X0019189
X0017221
X0015252
X0015256Y0051094
X001721Y0051086
X0019171Y0051083
X0019181Y0049122
X0017213Y0049097
X0015244Y0049129
X0015246Y0047144
X0017213Y0045191
X0011307Y0045177
Y0043209
X0009339
Y0045177
X0005402Y0043209
Y004124
Y0037303
X000737
X00074Y003532
X0005409Y0033374
X0005402Y0031398
Y0029429
X000737
Y0027461
Y0025492
X00056Y00256
X0005402Y0027461
X000219Y0023017
X00016Y00185
X00015Y00168
X00095Y00237
X0011307Y0029429
X00133Y00295
X0009339Y0031398
X0011315Y0033374
X0011307Y0037303
Y0039272
Y004124
Y0049114
X0011315Y0051091
X0009347
X000737Y0051083
Y0049114
X0007378Y0053059
X00074Y00549
X00093
X0009319Y0053074
X0011307Y005502
X0015134
X0017188Y0055044
X0017221Y0056996
X0015252
X0019204Y0056988
X002111Y0056994
X0019206Y0055044
X00189Y0064
X00178Y0065304
X00179Y00698
X00152
X00132Y00693
X00103Y00691
X00085Y00698
X00063Y00679
X0007122Y0066322
X0006202Y0064802
X00048Y00638
X0005409Y0060933
X00073Y00609
Y0059
X0005409Y0058965
X0011307Y0058947
X00114Y00608
X00112Y00647
X00092Y00639
X00008Y00646
X00019Y00731
X0003642Y0072802
X00022Y00776
X00011Y00796
X00012Y00813
X00034Y00846
X00036Y00902
X0010826Y00903
X00075Y00792
X00079Y0077439
X00083Y00756
X00116Y00718
X00214Y00692
X00225Y00658
X00222Y00629
X0028895Y0062595
X00289Y00606
X00294Y0065851
X00313Y00642
X0032Y00695
X0037Y00687
X00433Y0068
X00453Y00662
X0049Y00679
Y0072
X00508Y00722
X00525Y00727
X00542Y00733
X0047Y00746
X0044143Y00749
X00442Y00809
X00483Y00802
X00482Y00821
X00469Y00855
X00481Y00891
X00539Y00816
X00593
X00599Y00833
X00582Y0083
X00648Y00816
X00649Y00799
X00635Y00713
X00636Y00696
X006136Y0067964
X0059Y00679
X00646Y00656
X00618Y00621
X00559Y00613
Y00589
X00558Y00566
X00559Y00544
X00558Y00521
X00554Y00487
X00536
X00572
X00612Y00502
X00649Y00496
X00647Y0048
X0064Y00545
X00622Y00541
X00616Y00433
X00594
X00534Y00438
X00457Y00476
X00452Y00494
Y00515
X00459Y00542
X00458Y00559
X00454Y00598
X0040843Y0060933
X00409Y00627
X00415Y00645
X00397Y00643
X0034937Y0060933
Y0058965
Y0056996
Y0053059
X0036906Y0049122
X00389Y00491
X00387Y00509
X0038Y00775
X0032368Y00802
X00336Y0082
X00326Y00859
X00308Y00858
X00271Y00859
X00269Y00838
X00293Y00797
X00243Y0072
X00045Y00526
Y00507
X00039Y00461
X00011Y00485
Y00342
X00012Y00326
X00039Y00362
X00016Y00954
X00014Y0097
X00058Y01006
X00128Y0101561
X00123Y00989
X00146Y00966
X00197Y009512
X00274Y00917
X0030838Y0105138
X00372Y01006
X00437Y01037
X00469Y01043
X00486Y01039
X00462Y01061
X00453Y00987
X00467Y00964
X00488Y00972
X00486Y00993
X00566Y01045
X00638Y01047
X00644Y01121
X00623Y0112
X00602Y01121
X00583
X00558
X00538
X00518
X00483Y01143
Y01164
Y01184
Y01208
X0048352Y0122448
X00475Y0124
Y01277
X0049602Y0127402
X00515Y01287
X00538Y01282
X0054921Y0130116
X00535Y01311
X00508Y01317
X00474Y01341
X0047Y01358
Y0138
X00442Y01358
X0045Y01307
X00415Y0131
X00393Y01314
X00388Y01289
X00391Y01258
X00389Y01217
X00432Y01214
X00451Y01213
X00437Y01182
X00417Y0118
X00398Y01179
X0033Y01182
X00327Y01287
X00326Y01364
X00363Y0137
X00358Y01396
X00415Y01397
X00539Y01381
X00535Y01361
X00588Y01369
X00596Y01389
X00641Y01398
X00637Y0137
X00643Y0142835
Y01445
X00635Y01515
X00636Y01568
X00641Y01585
X0062Y01594
X0058Y01585
Y0156
Y01535
X00575Y01515
X00576Y01433
X00598Y01325
Y01305
X00575Y0128
X0062898Y0128002
X00643Y0127
X00646Y01288
X00632Y01254
X00633Y01233
X00632Y01212
X00631Y01182
X00632Y01162
X00631Y01142
X00647Y00964
X0042665Y0111
X0038335
X00128Y0108239
X00121Y0119761
X0009794Y0122
X001Y01242
X00121Y01264
X0006395Y01265
X0004295Y01256
X00013Y0127
Y01286
X00014Y01428
X00013Y01444
X00017Y01589
X00072Y01603
X0006795Y01195
X0006494Y01163
X00013Y01128
X00015Y01111
T02
X0015649Y0077461
X0019586
Y0081398
Y0085335
X0015649
Y0081398
T03
X0018331Y010037
X0027386
Y0109425
Y011848
Y0127535
Y013659
X0018331
Y0127535
Y011848
Y0109425
M30
